<?xml version="1.0" encoding="UTF-8" standalone="no"?>
<!-- Created with Inkscape (http://www.inkscape.org/) -->

<svg
   version="1.1"
   id="svg96"
   width="1152"
   height="1152"
   viewBox="0 0 1152 1152"
   sodipodi:docname="naegleria.svg"
   inkscape:version="1.1.1 (c3084ef, 2021-09-22)"
   xmlns:inkscape="http://www.inkscape.org/namespaces/inkscape"
   xmlns:sodipodi="http://sodipodi.sourceforge.net/DTD/sodipodi-0.dtd"
   xmlns="http://www.w3.org/2000/svg"
   xmlns:svg="http://www.w3.org/2000/svg">
  <defs
     id="defs100" />
  <sodipodi:namedview
     id="namedview98"
     pagecolor="#ffffff"
     bordercolor="#666666"
     borderopacity="1.0"
     inkscape:pageshadow="2"
     inkscape:pageopacity="0.0"
     inkscape:pagecheckerboard="0"
     showgrid="false"
     inkscape:zoom="0.63149066"
     inkscape:cx="927.17127"
     inkscape:cy="528.11549"
     inkscape:window-width="1680"
     inkscape:window-height="937"
     inkscape:window-x="0"
     inkscape:window-y="25"
     inkscape:window-maximized="0"
     inkscape:current-layer="g102" />
  <g
     inkscape:groupmode="layer"
     inkscape:label="Image"
     id="g102">
    <path
       style="fill:none;stroke:#000000"
       d="m 581.237,32.2566 c 6.29,-2.3972 11.362,6.7627 4.518,9.6829 -6.523,2.7824 -11.993,-6.8346 -4.518,-9.6829 m 1.767,52.8375 c 17.082,-0.27 16.617,25.3579 0,25.1729 -15.054,-0.167 -16.177,-24.9171 0,-25.1729 M 579,153.688 c 11.515,-2.534 24.731,6.004 25.56,18.312 0.636,9.437 -7.694,18.991 -16.56,21.148 -9.14,2.225 -18.738,-2.574 -22.796,-11.152 -5.549,-11.731 1.047,-25.503 13.796,-28.308 m 3,79.809 c 5.746,-0.974 12.354,5.3 16.751,8.35 13.988,9.699 27.947,19.522 41.249,30.153 54.749,43.759 107.283,91.387 150.263,147 30.95,40.046 59.608,81.626 78.471,129 11.438,28.727 20.82,59.224 23.999,90 14.202,137.505 -68.107,257.975 -159.77,352 -32.27,33.1 -67.993,64.08 -104.967,91.77 -11.668,8.74 -28.408,26.49 -42.996,29.26 -5.984,1.13 -12.4,-4.68 -17,-7.8 -13.656,-9.26 -27.193,-19.42 -40,-29.78 C 474.414,1030.1 423.436,983.87 380.06,930 321.538,857.318 272.038,767.701 272.038,672 c 0,-36.538 8.161,-73.729 20.477,-108 22.703,-63.172 60.827,-120.071 104.889,-170.249 13.345,-15.198 27.269,-30.41 41.764,-44.439 7.019,-6.793 13.801,-13.53 20.832,-20.25 25.865,-24.721 53.815,-48.34 83,-69.222 10.612,-7.593 25.885,-24.119 39,-26.343 m -1,24.783 c 6.368,-1.676 13.146,4.236 18,7.628 13.564,9.476 26.971,19.778 40.11,29.653 34.681,26.066 67.414,56.759 97.408,88.186 20.853,21.85 39.678,45.364 58.106,69.261 24.154,31.325 44.939,67.09 59.51,103.992 12.229,30.972 20.405,63.746 22.695,97 8.816,128.014 -74.95,244.606 -162.848,329.109 -28.516,27.411 -58.419,53.451 -89.981,77.271 -10.859,8.2 -24.792,22.52 -38,26.24 -6.688,1.88 -13.85,-4.53 -18.89,-8.17 -13.973,-10.1 -27.578,-20.59 -41.22,-31.1 C 465.794,1001.05 411.108,945.853 367.153,884 335.067,838.85 308.815,788.225 296.29,734 c -1.987,-8.605 -2.899,-17.405 -3.988,-26 -16.996,-134.167 67.631,-257.751 160.43,-346.488 27.666,-26.455 56.99,-51.847 87.268,-75.233 11.467,-8.857 26.731,-24.244 41,-27.999 M 439,497 c 28.314,-23.169 60.908,-36.277 96,-45.164 10.481,-2.655 22.211,-3.562 33,-3.846 4.088,-0.108 11.679,0.366 14.545,-3.094 2.23,-2.692 1.452,-7.628 1.455,-10.896 0.007,-9.332 0,-18.668 0,-28 v -83 c 0,-12.952 -0.303,-27.146 0,-38 10.002,3.563 21.585,12.949 32,20.428 23.722,17.034 46.496,36.014 67.996,55.725 67.267,61.668 125.416,132.851 158.061,218.847 8.109,21.362 14.182,46.077 14.943,69 0.188,5.668 3.424,16.343 -0.455,21.084 -2.492,3.046 -9.02,1.918 -12.545,1.916 -11.085,-0.005 -23.608,-0.743 -34,1 -2.762,-16.464 -2.335,-36.004 -6.803,-53 C 794.746,587.847 780.446,559.915 761,533 M 402,810 c -20.909,-25.633 -34.418,-56.215 -42.647,-88 -2.647,-10.225 -4.196,-21.532 -5.192,-32 -0.429,-4.51 0.3,-12.555 -3.166,-15.991 -2.843,-2.818 -8.341,-2.006 -11.995,-2.009 -9.421,-0.007 -20.195,-0.973 -29,1 -2.644,-11.8 0.468,-29.485 2.284,-42 3.181,-21.927 9.395,-44.482 17.965,-65 14.301,-34.243 32.594,-65.75 53.998,-96 7.058,-9.974 14.591,-19.581 22.458,-28.963 22.311,-26.605 46.36,-53.015 72.361,-75.959 23.093,-20.377 47.033,-41.295 71.934,-59.746 9.933,-7.361 21.782,-17.721 32,-19.332 m 2,161 c 10.979,1.842 25.308,1.695 37,3.669 28.136,4.75 55.861,15.637 80,30.614 7.906,4.906 15.844,9.813 22,16.717 m 30,93 c 1.561,5.725 3.841,10.788 6.206,17 4.901,12.875 7.313,25.52 9.775,39 2.029,11.111 1.032,22.531 1.019,34 -0.014,11.169 -1.895,21.919 -4.318,33 -1.396,6.387 -4.536,12.514 -5.321,18.987 -0.964,7.944 7.636,10.755 13.639,12.013 -1.361,15.981 -17.141,38.883 -27.647,52 -22.608,28.225 -51.165,50.492 -84.353,64.975 -51.551,22.497 -117.153,22.94 -168,-1.616 C 455.23,841.151 419.593,812.21 398.275,773 c -12.213,-22.462 -23.311,-49.199 -25.183,-75 -0.948,-13.077 -1.294,-25.658 -1.073,-39 1.603,-96.731 91.922,-191.039 189.975,-193.91 13.975,-0.409 5.764,16.502 16.077,18.524 7.41,1.453 14.488,0 21.929,0.636 13.054,1.117 26.511,4.216 39,8.214 45.136,14.448 75,43.42 104,79.536 M 591,465 c 34.561,0.003 71.304,12.953 101,31.041 50.009,30.46 87.111,84.195 95.617,141.959 0.805,5.461 1.883,10.517 2.486,16 1.864,16.942 0.315,33.227 -2.335,50 -2.217,14.029 -4.372,29.83 -12.768,41 m -347,65 c 3.152,-3.506 9.064,-7.618 8.547,-13.019 -0.494,-5.168 -6.143,-9.953 -9.064,-13.981 -6.339,-8.743 -12.429,-18.315 -17.126,-28 -10.523,-21.693 -16.44,-44.325 -19.02,-68 -0.62,-5.694 -1.388,-11.154 -1.291,-17 0.21,-12.696 1.516,-27.629 4.921,-40 4.808,-17.468 11.09,-34.964 19.974,-51 18.881,-34.082 49.932,-61.478 85.059,-77.956 15.67,-7.351 32.189,-11.778 49,-15.122 7.499,-1.492 14.963,-1.981 22,-2.922 m -105,63 c 80.768,-69.612 206.324,-52.445 262.54,40 12.568,20.667 22.782,46.623 23.423,71 0.128,4.863 0.037,9.238 0.037,14 0,22.979 -4.401,43.321 -13.033,65 -8.346,20.96 -21.73,40.198 -37.957,55.886 -41.698,40.315 -101.512,57.211 -158.01,44.663 -29.264,-6.5 -55.169,-20.817 -77.936,-40.213 C 436.458,771.966 417.805,734.427 412.082,698 404.472,649.562 417.943,596.823 452,560 m 281,122 c -5.482,27.898 -10.936,53.126 -28.38,77 C 667.858,809.315 603.102,831.942 543,817.262 491.341,804.644 447.77,762.408 434.145,711 c -3.528,-13.311 -5.492,-27.304 -5.459,-41 0.019,-7.675 0.547,-15.237 1.94,-23 2.943,-16.403 8.54,-33.334 16.851,-48 20.696,-36.525 61.363,-70.48 104.523,-75.036 25.629,-2.705 49.812,-3.761 75,4.211 53.341,16.881 89.877,60.728 103.62,113.825 1.448,5.594 3.041,17.877 -2.867,20.136 -4.772,1.824 -11.803,-0.699 -13.335,5.111 -1.653,6.269 -0.336,11.302 -1.113,17.753 -1.146,9.521 -3.353,18.754 -6.12,28 -9.466,31.632 -35.146,58.299 -63.185,74.174 -15.349,8.69 -32.779,12.981 -50,14.825 -4.088,0.438 -8.938,1.987 -11.991,-1.017 -2.628,-2.586 -2.566,-9.35 -1.342,-12.735 2.236,-6.187 19.434,-6.322 25.333,-7.19 15.633,-2.301 38.944,-11.999 48,-25.057 M 402,534 c -19.766,27.269 -35.162,56.046 -42.895,89 -3.497,14.902 -6.043,34.514 -6.105,49 m 126,84 c -19.243,-23.59 -31.789,-54.332 -31.78,-85 0.018,-59.416 43.628,-110.997 99.78,-126.957 7.323,-2.081 16.396,-3.611 24,-3.906 13.881,-0.538 27.279,0.683 41,3.324 38.624,7.436 71.377,37.741 89.178,71.539 7.47,14.182 10.33,32.515 12.822,47 M 580,542 c 0,4.147 -1.19,11.68 2.009,14.794 4.408,4.291 16.013,3.314 21.991,4.708 14.659,3.418 28.073,8.635 40.658,17.057 C 696.446,613.221 715.312,695.993 668,743 M 580,557 c -5.616,2.365 -11.371,2.158 -18,3.499 -14.562,2.945 -29.268,7.917 -42,15.91 -29.49,18.512 -50.928,51.562 -52.889,86.591 -0.532,9.513 -0.219,18.946 1.765,28 6.108,27.868 19.755,52.782 43.133,70.012 11.02,8.123 22.949,14.254 35.991,18.439 10.129,3.249 21.418,4.464 31,4.549 m 75,-171 c 14.432,14.349 21.96,38.01 21.962,58 0.003,30.021 -15.599,58.946 -39.962,76.504 -36.565,26.352 -88.559,22.062 -120.991,-8.623 -18.493,-17.497 -28.935,-42.72 -28.935,-67.881 0,-50.188 43.038,-92.528 92.926,-92.991 21.549,-0.2 44.623,6.613 61,20.991 m -69,146 c -28.167,-0.941 -50.679,-23.354 -61.06,-48 -5.44,-12.915 -5.919,-32.602 -2.037,-46 9.806,-33.835 42.725,-54.59 77.097,-53.98 37.519,0.665 70.968,34.773 71.96,71.98 0.975,36.554 -29.779,75.633 -67.96,76 m -7,-119 c -0.134,3.547 -1.293,7.211 0.212,10.338 4.875,10.125 13.267,-4.521 13.788,-8.338 m -35,4 4,10 c 5.554,-1.373 9.547,-2.362 15,-3 m 30,-2 c -5.441,6.71 -4.629,21.247 5.579,25.877 3.31,1.502 7.358,-0.136 10.421,-0.877 m -33,-23 c 3.154,3.043 5.047,4.344 9,6 m -54,-4 c 6.438,5.111 10.093,6.883 17,1 m -8,6 c -4.788,7.897 -8.456,8.762 -16,7 m 79,-7 -9,6 m -61,4 c -0.263,5.361 -1.429,11.35 -0.905,17 0.988,10.671 5.098,15.701 -4.095,21 m 69,-32 c 0.018,7.806 0.452,15.792 -3.911,22.998 C 606.303,693.25 597.354,698.03 597,705 v 1 1 l 1,1 m -64,-40 14,1 m 310,4 c 0,11.095 -0.803,27.045 -2.825,39 -4.345,25.689 -11.277,51.047 -21.956,75 -25.449,57.081 -62.384,108.299 -105.665,153.247 -18.103,18.801 -36.966,37.166 -56.563,54.344 -20.041,17.569 -41.134,35.039 -62.991,50.349 -4.858,3.41 -9.908,7.64 -15,10.55 -3.131,1.79 -6.268,2.99 -10,2.91 -8.475,-0.19 -15.95,-7.11 -23,-12.27 -18.095,-13.26 -35.928,-27.03 -52.991,-41.57 C 437.044,944.912 369.901,872.938 334.092,787 c -9.548,-22.916 -18.085,-47.367 -21.628,-72 -1.202,-8.357 -3.3,-16.527 -3.445,-25 C 308.921,684.22 309,679.255 309,674 m 500,0 c 0,13.603 -1.947,36.461 -5.97,51 -9.053,32.71 -22.738,64.68 -46.03,90 m -141,-140 12,1 m -88,7 8,-2 m -13,4 h 2 m 75,1 12,7 m -69,-1 c 4.009,2.548 7.33,6.598 12.046,8.664 11.038,4.838 17.079,2.832 17.954,15.336 m 20,-20 7,7 m -50,-4 -5,7 m 27,-1 11,-3 m -23,2 -1,7 m -3,4 v 2 m 183,40 c -12.77,19.763 -24.961,38.366 -42.658,54.256 C 656.441,857.859 586.301,868.851 521,849.856 496.999,842.875 469.845,828.812 453,810 m 41,-38 c 18.841,11.214 36.617,24.743 59,27.963 10.073,1.449 17.792,3.835 27,2.037 m -142,44 c 6.022,7.866 16.596,13.399 25,18.517 21.461,13.071 47.008,24.425 72,28.204 11.569,1.748 22.27,4.262 34,4.279 3.86,0.005 10.977,-0.897 13.545,2.667 2.057,2.854 1.448,6.836 1.454,10.333 0.017,8.621 10e-4,17.367 10e-4,26 v 88 c 0,12.14 0,25.7 0,34 M 721,850 c -16.186,11.703 -34.246,23.049 -53,30.658 -10.945,4.44 -22.487,8.06 -34,11.015 -15.736,4.039 -35.09,2.986 -50,6.327"
       id="path204" />
  </g>
</svg>
