<?xml version="1.0" encoding="utf-8"?>
<!-- Generator: Adobe Illustrator 25.4.1, SVG Export Plug-In . SVG Version: 6.00 Build 0)  -->
<svg version="1.1" id="Layer_1" xmlns="http://www.w3.org/2000/svg" xmlns:xlink="http://www.w3.org/1999/xlink" x="0px" y="0px"
	 viewBox="0 0 300 294" style="enable-background:new 0 0 300 294;" xml:space="preserve">
<g transform="translate(0.000000,294.000000) scale(0.100000,-0.100000)">
	<path d="M1515,2250c-22-12-67-28-99-36c-41-11-66-25-83-45c-14-16-42-33-62-39c-29-7-48-23-77-63c-27-36-51-56-76-64
		c-21-7-55-24-78-39c-33-22-48-26-85-22c-32,4-56,0-82-13c-40-20-112-17-148,7c-31,22-53,17-99-26c-24-22-48-40-54-40
		c-5,0-15-13-21-30c-5-16-17-30-26-30c-8,0-20-12-25-26c-10-26-12-26-78-21c-37,3-82,9-100,13c-29,6-37,2-71-35c-29-31-45-41-69-41
		c-18,0-32-4-32-10c0-5,14-10,30-10c23,0,44,12,80,46l48,45l37-15c21-9,60-16,87-16c45,0,54,4,92,43c24,23,45,47,47,54
		c7,18,102,93,119,93c8-1,26-7,40-15s41-15,60-16c34-1,33-2-34-33c-38-18-64-36-59-39c11-7,90,28,157,71c28,18,61,32,75,31
		c25,0,25-1,5-9c-12-5-37-27-54-49c-18-22-41-43-50-46c-28-9-60-45-60-67c0-12-10-32-22-45s-18-26-15-30c12-12,47,29,53,64
		c5,25,16,41,44,58c21,13,50,40,65,59c19,25,41,39,78,50c29,8,67,27,86,41s42,25,50,25c29,0,76,37,101,78c19,32,36,45,72,57
		c29,10,56,28,68,44c14,20,32,30,61,35c22,4,63,18,90,31c46,24,55,25,162,19c156-8,174-14,254-87c39-34,81-67,94-74
		c111-53,159-73,179-73c12,0,63-27,112-60c50-33,96-60,103-60s39-18,72-39c71-48,143-69,179-52c19,8,33,8,61-4c19-8,65-15,102-15
		c36,0,83-5,104-11c20-5,43-7,50-2c24,15-158,41-328,46c-77,3-134,21-151,48c-3,6-35,24-69,39c-35,16-94,51-133,79
		c-48,35-79,51-101,51c-17,0-52,11-78,24c-27,13-64,31-83,40s-68,45-107,81c-77,68-94,75-199,80c-33,1-84,6-114,9
		C1564,2270,1548,2268,1515,2250z"/>
	<path d="M1508,2197c-39-34-66-77-49-77c6,0,16,10,22,23c7,12,28,36,48,54s32,32,26,32C1550,2230,1529,2215,1508,2197z"/>
	<path d="M1524,2154c-26-37-66-78-87-92s-45-39-54-56c-8-17-27-43-41-58s-23-30-20-33s20,13,39,35c19,23,61,69,95,103
		c79,80,137,154,125,161C1577,2217,1551,2190,1524,2154z"/>
	<path d="M1694,2189c-10-12-33-49-49-83c-25-51-38-65-77-85c-29-15-51-34-59-52c-6-16-26-38-44-49c-30-19-74-70-60-70
		s107,87,121,112c8,15,33,35,57,46c37,16,48,29,76,86c19,36,37,69,42,72c14,8,31,44,21,44C1717,2210,1705,2201,1694,2189z"/>
	<path d="M1628,2167c-14-13-29-33-32-44c-4-11-24-34-45-51c-46-37-117-132-98-132c7,0,21,14,31,30c9,17,44,59,77,93
		c74,77,109,117,109,123C1670,2197,1651,2188,1628,2167z"/>
	<path d="M1472,1869c-23-17-81-44-129-60c-87-29-196-90-174-97c7-2,29,7,49,21c20,15,77,40,126,57c83,30,185,86,186,103
		C1530,1906,1516,1900,1472,1869z"/>
	<path d="M1580,1795c-13-13-43-32-67-41c-39-15-51-16-93-5c-55,14-79,10-105-19c-24-26-1-27,32,0c23,18,27,18,64,3c34-13,46-14,85-3
		c47,13,124,63,124,80S1605,1821,1580,1795z"/>
	<path d="M615,1744c-22-13-48-24-57-24c-10,0-18-4-18-10c0-16,23-12,74,14c44,22,48,23,68,7c20-17,20-17-20-29c-23-7-44-16-47-21
		c-2-5-32,0-66,10c-82,25-106,24-194-11c-44-17-94-30-120-30c-24,0-47-5-51-11c-12-21,116-3,181,25c78,33,108,32,224-5
		c70-22,106-29,131-24c19,4,69,10,110,14c57,6,85,14,117,35c37,25,48,27,90,21c27-4,80-19,118-35c93-38,112-43,127-33
		c7,4,58,8,113,8c170,2,348,16,390,32c26,9,51,12,75,7c19-4,45-6,58-5c14,2,40-11,68-34c24-20,49-35,55-33s-14,23-45,47
		c-41,32-62,42-78,37c-13-3-37,0-55,6c-25,9-40,8-75-5c-25-9-94-18-168-22c-69-4-142-11-164-15c-22-5-65-4-99,1c-43,7-67,7-82-1
		c-17-9-38-4-112,25c-117,45-190,48-235,10c-24-20-40-25-86-25c-31,0-75-5-96-11c-45-13-138-3-115,12c8,5,33,14,57,20
		c23,6,42,15,42,20c0,7-34,34-65,52C659,1766,637,1757,615,1744z"/>
	<path d="M2300,1641c0-6,18-11,45-11s72-11,108-26c67-28,61-28,276-4c91,11,94,11,130-13c36-25,111-43,111-27c0,10-25,20-53,20
		c-11,0-37,11-57,25l-37,26l-124-17c-161-21-187-21-239,6C2411,1645,2300,1660,2300,1641z"/>
	<path d="M1060,1577c0-12-7-33-16-45c-8-12-12-27-9-32c4-6,0-22-9-35c-10-14-12-25-5-27c6-2,1-15-10-30c-14-17-18-29-11-33
		c8-5,8-11,0-20c-7-8-9-19-5-25s-1-20-10-30c-10-11-14-26-11-37c4-12-4-30-21-51l-28-33l-38,26c-21,14-35,30-32,34c3,5-7,16-21,26
		c-19,12-23,20-15,29c8,10,7,17-4,26c-9,7-14,19-11,26s-4,36-15,66c-12,29-22,65-25,80c-2,15-12,41-22,58l-19,31l-22-36
		c-12-20-19-40-16-45s0-12-6-15c-5-4-8-13-5-21c3-7-2-21-11-30c-13-13-14-17-3-24c10-6,8-15-9-39c-12-17-21-36-20-43
		c4-33-1-41-16-28c-8,7-12,16-9,22c3,5,1,14-5,21c-5,7-12,29-14,48s-10,46-19,58l-16,23l-17-32c-9-17-14-34-11-38c3-3-2-14-11-24
		c-14-16-15-21-4-27c11-7,9-11-5-20c-15-8-16-12-5-20c15-10,4-38-24-61c-13-11-13-15-3-22c10-6,9-11-5-19c-9-6-15-15-11-20
		c16-27-72-77-155-89c-59-8-84,1-79,29c1,9-2,22-7,30c-5,10-4,16,3,19c8,2,7,10-3,26c-8,12-12,26-9,29c4,4,1,13-6,22c-7,8-8,15-3,15
		c6,0,6,13-1,35c-11,35-26,47-26,21c0-7-6-19-14-26c-8-6-12-18-9-26s0-14-7-14c-6,0-9-8-6-18c4-11-2-27-13-39c-11-11-17-24-13-28
		s-2-13-13-21c-16-12-17-16-6-23s10-14-8-39c-22-32-26-42-13-42c12,0,54,68,50,82c-3,7,4,29,15,48s26,55,33,80l12,45l1-38
		c1-21,6-47,11-58c8-14,7-19-2-19s-9-3,0-12c7-7,12-22,12-34s9-32,20-46c18-24,22-25,82-16c86,13,174,61,182,100c2,7,6,21,11,31
		c4,10,5,21,1,24c-3,4,2,15,11,25s18,31,20,46c7,56,9,68,16,79c4,6,4,18,1,26s-1,18,5,22c6,3,12-1,12-9c5-64,18-105,42-139l20-29
		l18,29c11,15,17,34,14,41s3,24,12,38s18,37,20,52s5,34,7,42c1,9,5,21,10,28c4,6,5,16,2,21s1,14,8,20c10,8,16,9,21,1c3-5,3-10-1-10
		c-3,0-1-7,6-15s10-15,6-15c-3,0-1-12,5-27c6-16,13-37,14-48c8-53,15-79,25-89c5-5,10-19,10-31s6-27,13-33c6-7,12-18,12-24
		s22-26,48-44c39-27,53-32,68-24c24,13,73,96,64,110c-4,6-2,17,4,24s12,30,14,52s9,49,15,60c6,12,9,24,6,26c-2,3,0,16,5,29
		s12,37,16,52c7,34,23,28,20-7c-2-14,3-30,11-37c7-6,11-15,8-21c-3-5,2-20,11-35c14-21,15-27,4-34c-12-8-11-12,2-22c9-6,14-18,11-25
		c-2-8,5-27,16-42c19-25,19-29,5-34c-14-6-12-11,11-35c25-26,26-30,10-33c-15-3-13-8,15-41c18-20,39-37,47-37c17,0,74,76,74,99
		c0,9,12,48,26,86c14,39,27,92,29,119c5,52,24,88,26,48c1-21,4-33,9-49c1-5,2-12,1-16c-5-28,41-117,60-117c15,0,32,43,36,94
		c3,28,9,56,15,61c7,7,9,5,6-5c-3-8,0-24,5-35c6-11,12-24,12-30c1-5,10-28,20-50s19-48,20-57c2-25,35-58,56-58c20,0,39,29,44,64
		c7,62,18,106,26,106c5,0,9-4,9-9s5-22,12-38c6-15,12-34,14-42c4-23,40-66,57-69c18-4,51,41,53,72c1,12,4,28,7,36
		c18,53,37,125,37,141c0,19,16,34,23,22c3-5,8-26,11-48c4-21,14-47,23-57s13-18,8-18c-4,0,0-11,9-25s14-30,11-35c-8-13,22-56,56-81
		l28-20l25,38c15,23,27,57,29,86c2,26,7,50,11,54c3,3,6,16,7,27c0,16,3,14,11-9c6-16,17-37,24-46c8-9,11-19,8-22c-4-4-1-13,6-21
		c6-9,10-21,8-28c-3-7,8-26,23-42c28-30,28-30,50-11c29,27,46,68,54,138c4,31,11,60,16,63s9,15,9,27c1,18,4,15,18-13
		c9-19,21-42,27-50c5-8,11-24,12-35c2-11,9-36,17-55s14-39,14-45c1-19,53-75,82-90c26-13,34-14,62-1c45,19,82,60,75,85
		c-3,12,1,22,9,25s14,14,14,24c0,11,7,25,16,33c8,7,13,21,11,31c-3,10-2,20,3,23c4,3,11,25,14,50c9,59,20,63,36,12c8-23,17-46,22-52
		c4-5,8-18,8-30s4-25,9-30c5-6,12-28,15-50c12-77,44-135,75-135c13,1,13,3-3,15c-10,7-16,18-13,23c4,4-3,16-14,26c-12,9-19,26-17,39
		c1,12-1,28-5,35c-5,7-3,12,4,12s2,11-10,24c-13,14-20,30-16,36s-1,20-10,30s-14,24-10,30s0,19-8,28c-9,9-17,22-18,27
		c-3,16-28,70-29,65c-1-3-3-13-5-23s-11-27-19-36c-9-10-13-21-10-24c4-4,1-13-5-21c-7-8-11-21-9-30c2-8-6-22-17-30
		c-18-14-18-15-2-16c23,0,22-13-3-35c-11-10-20-24-20-30c0-7-7-18-15-25c-12-10-13-16-4-26c9-11,8-18-2-30c-20-24-68-46-89-39
		c-28,9-79,65-73,81c3,8,0,14-6,14s-10,3-9,8c0,4-6,23-15,42c-9,20-12,39-7,45c6,7,1,16-11,23c-11,7-17,16-14,21c2,5-2,14-10,21
		s-13,16-10,20c3,5,1,11-5,15c-5,3-10,15-10,26c0,10-4,19-10,19c-5,0-10-6-10-14c0-7-7-19-15-26s-12-17-9-22s-2-18-11-28
		c-11-12-13-20-6-25c7-4,6-16-5-37c-11-20-12-33-5-37c11-7-34-91-49-91s-27,30-34,82c-1,10-10,26-20,37s-15,25-11,30c3,6-1,14-9,17
		c-9,3-13,10-10,15c2,5,0,18-7,31c-12,21-12,21-27-8c-9-16-17-33-17-39c-1-5-3-12-5-15c-3-5-5-22-12-88c-3-18-12-40-21-49
		c-16-16-19-15-47,12c-21,20-26,31-18,36c9,6,7,13-7,28c-10,12-15,24-12,27c4,4-5,20-19,37c-19,23-22,32-13,43c8,10,8,14,0,14
		c-6,0-11,6-11,13c0,8-7,28-16,46l-16,33l-21-34c-18-30-23-46-28-98c-1-8-8-23-16-32s-12-22-8-28s-1-22-9-35c-9-14-12-25-6-25
		s5-9-2-25c-6-14-17-25-23-25c-7,0-20,11-29,25c-11,17-12,25-5,25c8,0,6,6-4,18c-8,9-16,20-16,24c-1,5-9,26-18,48
		c-18,40-33,52-33,26c0-7-6-19-14-26c-8-6-12-18-9-27c3-8,0-19-8-25c-11-8-11-11-1-15s10-9-3-23c-11-12-13-20-5-25s8-11-1-21
		c-16-20-36-17-49,6c-8,15-8,20,1,20c8,0,6,7-4,18c-10,10-14,21-11,25c4,3-1,13-10,22s-16,25-16,34c0,10-7,24-15,31s-13,16-10,20
		s-1,23-9,41l-14,32l-13-24c-7-13-17-53-23-89s-15-65-21-65c-5,0-10,7-10,15s-6,25-13,37c-8,15-9,24-2,28c8,5,7,11-1,21
		c-6,8-8,14-4,14s2,6-4,13c-6,8-8,17-4,20c3,4-1,15-9,24c-9,10-18,25-21,33c-4,12-6,11-12-5c-5-11-15-28-23-38c-8-9-12-20-9-24
		c4-3,2-12-4-20c-9-9-8-13,0-13c16,0,14-31-5-51c-8-9-16-27-16-40c-1-13-6-30-11-36c-5-7-7-13-3-13s0-13-8-29c-9-16-13-31-9-34
		c8-9-37-77-50-77c-7,0-20,12-30,25c-17,23-17,25-1,25c14,0,12,6-11,30c-24,25-26,30-12,36c14,5,13,11-10,41c-19,25-23,37-14,42
		c9,6,8,11-4,21c-11,9-12,15-5,20c7,4,4,15-10,32c-14,19-17,27-8,31c10,3,10,8-2,22c-8,10-15,23-15,29c0,18-39,106-47,106
		C1063,1600,1060,1590,1060,1577z"/>
</g>
</svg>
