<?xml version="1.0" encoding="utf-8"?>
<!DOCTYPE svg PUBLIC "-//W3C//DTD SVG 20010904//EN" "http://www.w3.org/TR/2001/REC-SVG-20010904/DTD/svg10.dtd">
<svg version="1.0" xmlns="http://www.w3.org/2000/svg" width="600px" height="599px" viewBox="0 0 600 599" preserveAspectRatio="xMidYMid meet">
 <g fill="#000000">
  <path d="M454.25 467.65 c-18.80 -1.10 -37.85 -2.65 -44 -3.65 -3.30 -0.50 -7.55 -1.10 -9.50 -1.25 -1.90 -0.15 -5.50 -0.60 -8 -1 -6.40 -1 -11.50 -1.65 -15.25 -2 -3.80 -0.40 -8.30 -1.15 -19.25 -3.30 -4.40 -0.85 -9.70 -1.85 -11.75 -2.15 -13.50 -2.30 -32.45 -5.90 -40.50 -7.80 -3.45 -0.80 -9.50 -2.15 -13.50 -3 -10.90 -2.30 -21.45 -4.70 -34.75 -7.95 -6.60 -1.60 -13.90 -3.30 -16.25 -3.80 -2.35 -0.45 -7.95 -1.70 -12.50 -2.75 -12.60 -2.90 -29.95 -6.80 -45 -10 -18.25 -3.95 -29.55 -6.85 -39.75 -10.25 -3.55 -1.15 -11.55 -3.65 -17.70 -5.45 l-11.25 -3.30 -1.70 1.60 c-0.95 0.90 -3.40 3.70 -5.40 6.25 -7.75 9.55 -15.10 15.10 -22.15 16.70 -4.05 0.90 -10.55 0.35 -13.45 -1.15 l-2.35 -1.25 0.05 -2.60 c0.10 -3.05 0.95 -4.25 3.65 -5.10 1 -0.30 2 -0.75 2.25 -1 0.30 -0.25 0.90 -0.45 1.35 -0.45 0.45 0 2.15 -1.45 3.80 -3.20 2.45 -2.60 3.20 -3.80 4.15 -6.80 1.35 -4.25 1.55 -8.90 0.40 -11.55 -0.85 -1.95 -0.40 -1.75 -11.80 -5.45 -3.65 -1.20 -6.85 -2.45 -7.15 -2.80 -0.30 -0.35 -1.20 -0.80 -2 -0.95 -0.85 -0.20 -2.30 -1 -3.25 -1.85 -1.50 -1.35 -1.70 -1.80 -1.70 -3.95 l0 -2.45 2.30 0 c2.80 0 5.40 0.65 19.20 4.85 5.90 1.80 11.45 3.45 12.25 3.65 0.85 0.25 7.20 2.10 14.10 4.20 6.95 2.10 13 3.80 13.45 3.80 0.45 0 4.25 1.05 8.40 2.30 4.15 1.30 8.80 2.60 10.30 2.95 1.50 0.35 9.05 2.25 16.75 4.20 7.70 1.95 16.10 3.90 18.60 4.30 2.55 0.45 6.70 1.30 9.25 2 6 1.55 18.40 4.30 26.65 5.95 3.60 0.70 8.85 1.75 11.75 2.35 4.20 0.85 30.30 7.05 39.75 9.45 1.10 0.30 5.25 1.20 9.25 2 4 0.85 9.70 2.10 12.75 2.80 3 0.65 8 1.80 11 2.45 3.05 0.70 7.85 1.80 10.75 2.50 2.90 0.65 12.60 2.55 21.60 4.20 9 1.65 18.30 3.45 20.75 4.05 2.40 0.60 9.45 1.95 15.65 3 6.20 1.10 12.45 2.30 13.90 2.75 1.50 0.40 5.85 1.20 9.75 1.75 3.90 0.60 7.50 1.15 8 1.30 0.70 0.20 0.85 -0.05 0.85 -1.55 0 -0.95 0.55 -2.85 1.20 -4.15 0.80 -1.60 1.25 -3.60 1.45 -6.20 0.15 -2.10 0.50 -4.30 0.85 -4.85 0.65 -1.25 2 -9.75 2 -12.55 0 -1.85 3.65 -17.05 5.25 -21.75 0.85 -2.60 6.90 -14.45 8 -15.75 1.60 -1.85 6.05 -9.55 7.10 -12.25 l1.20 -3 -1.40 -3.50 c-0.75 -1.90 -1.95 -4.50 -2.70 -5.75 -1.55 -2.70 -15.95 -31.80 -17.20 -34.75 -5.40 -12.90 -7.25 -25.40 -7.25 -49.45 l0 -14.60 -3.20 -5.50 c-3.10 -5.35 -6.85 -10.95 -12 -17.80 l-2.50 -3.30 -3.75 3.25 c-4.90 4.30 -5.85 4.65 -12.45 4.65 -6.85 0 -8.45 -0.30 -9.50 -1.85 -1.80 -2.80 1.50 -12.35 6.05 -17.45 2.05 -2.30 2.80 -3.60 4.50 -7.70 l0.70 -1.80 -2.85 1.40 c-4.35 2.05 -10.35 3.10 -15.75 2.75 -5.25 -0.35 -8.45 -1.35 -15.95 -4.85 l-5.40 -2.55 -3.85 0.55 c-2.10 0.25 -6.20 0.60 -9.10 0.75 -3.60 0.15 -6.05 0.55 -7.50 1.15 -1.20 0.55 -3.45 1.35 -4.95 1.85 -1.85 0.60 -3.55 1.65 -5.25 3.25 -1.35 1.25 -3.50 3.05 -4.70 3.90 -2.10 1.50 -2.55 1.60 -6.40 1.60 l-4.15 0 0 -2.15 c0 -2 0.15 -2.25 1.90 -3.10 l1.85 -0.90 -4.75 -0.65 c-4.65 -0.65 -8.85 -1.80 -11.95 -3.40 -1.50 -0.80 -1.60 -0.80 -3.65 0.55 -1.75 1.20 -2.60 1.40 -5.60 1.40 l-3.55 0 -0.15 -2 c-0.15 -1.90 -0.05 -2.05 2.15 -3.20 2.15 -1.15 2.25 -1.30 2.25 -3.35 0 -1.80 0.25 -2.30 1.45 -3.15 0.80 -0.60 2.05 -1.05 2.70 -1.05 0.70 0 1.45 -0.20 1.60 -0.50 0.15 -0.25 0.85 -0.50 1.55 -0.50 0.65 0 2.05 -0.55 3.10 -1.15 1 -0.65 3.10 -1.60 4.60 -2.10 3.50 -1.15 6.50 -2.65 10.30 -5.15 4.90 -3.25 14.45 -7.35 19.95 -8.60 7.55 -1.75 10.95 -3.50 17.35 -9.10 5.75 -5 12.95 -7.75 22.90 -8.65 12.25 -1.15 15.90 -2.65 21.60 -8.90 2.30 -2.50 5.45 -5.40 7.05 -6.40 4.70 -3.05 12.25 -6.70 17.35 -8.45 4.60 -1.60 4.90 -1.60 11 -1.35 3.45 0.15 7.50 0.65 9 1.10 1.50 0.40 3.40 0.75 4.25 0.75 2.25 0 4.90 0.85 6.05 1.95 0.60 0.50 1.75 1.30 2.60 1.75 2.90 1.50 5.75 7.25 7.05 14.10 0.85 4.50 0.70 6 -1 10.95 -0.85 2.50 -1.75 5.25 -1.95 6.10 -0.35 1.55 -0.30 1.65 1.20 1.90 1.95 0.40 4.60 2.10 9.40 6.05 2 1.65 6 4.90 8.80 7.15 6.05 4.85 4.60 5.15 12.10 -2.55 2.60 -2.65 6.85 -6.80 9.45 -9.20 5 -4.60 10.75 -10.95 12.75 -14.15 1.15 -1.85 1.20 -2 0.50 -4.05 -1.10 -3.15 -1.40 -7.45 -0.70 -10 0.80 -3.05 3.95 -7.85 6.75 -10.15 2 -1.70 2.50 -1.90 4.65 -1.75 l2.35 0.15 -0.10 3 c-0.05 1.65 -0.10 3.25 -0.15 3.50 -0.05 0.30 0.65 3.30 1.55 6.75 2.05 7.85 1.85 9.35 -1.65 15.10 -1.40 2.25 -2.90 4.85 -3.40 5.65 -4.60 7.95 -25.70 38.40 -28.70 41.45 l-1.95 1.95 -6.30 -0.35 c-3.45 -0.15 -7.50 -0.45 -9 -0.65 l-2.65 -0.30 0.40 1.70 c0.25 0.95 0.40 3.45 0.35 5.60 -0.05 3.10 -0.35 4.35 -1.35 6.15 l-1.25 2.20 1.05 3.15 c0.60 1.70 1.55 3.80 2.15 4.60 0.65 0.85 2.30 3.75 3.75 6.50 1.50 2.75 3.75 6.65 5.10 8.65 3.20 4.80 7.30 12 9.35 16.30 1.90 3.95 4.60 14.20 5.80 22.05 1.80 11.85 1.50 36.05 -0.55 50.50 -0.45 3.10 -0.85 9.75 -0.95 15.25 -0.10 7.55 -0.35 10.85 -1.15 14.50 -0.55 2.60 -1.15 7.10 -1.35 10 -0.15 2.90 -0.55 7 -0.80 9.15 -0.55 4.30 -3.45 17.35 -4.65 20.85 -1.30 3.80 -3.25 12.40 -4.55 19.90 -1.25 7.15 -1.25 7.15 -0.30 9 1 1.90 7.45 7.80 12.10 11.05 1.90 1.30 3.30 1.85 5.15 2.05 l2.55 0.25 -0.10 4.95 c-0.10 2.70 -0.25 5.05 -0.35 5.15 -0.95 0.95 -7.45 1.30 -15.55 0.80z m5.20 -8 c-0.60 -0.65 -4.95 -4.30 -13.65 -11.25 -0.95 -0.75 -1.05 -1.30 -1 -5.75 0.05 -5 2.30 -18.70 4.30 -25.90 0.50 -1.90 2.15 -8.35 3.60 -14.25 2.35 -9.40 2.75 -11.80 3.30 -19.25 0.30 -4.65 0.95 -9.85 1.35 -11.50 0.50 -1.95 0.90 -7 1.15 -14.25 0.20 -6.20 0.70 -14.85 1.20 -19.25 0.45 -4.40 1.05 -10.15 1.30 -12.75 0.90 -8.30 0.45 -16.60 -1.55 -30 -1.35 -9.15 -3 -15.30 -5.45 -20.40 l-0.80 -1.60 -1.30 1.35 c-2 2.15 -6.10 9.15 -8.05 13.85 -2.05 4.90 -3.85 12.60 -3.85 16.40 0 1.45 0.30 3.80 0.70 5.15 0.90 3.45 2.10 12.40 3.05 22.50 1.50 15.85 2.25 22 3.30 26.50 0.60 2.50 1.15 6.40 1.30 8.75 0.20 3.85 0.05 4.85 -1.55 10.25 -1 3.30 -2.05 6.55 -2.35 7.25 -0.30 0.70 -1.45 3.70 -2.50 6.70 l-1.95 5.50 0 13.50 c-0.05 7.45 -0.25 15 -0.50 16.80 -1.10 8.05 -1.45 10.35 -1.75 11.85 -0.35 1.50 -0.30 1.60 1.30 1.75 1.40 0.10 1.75 0.40 1.85 1.40 0.10 0.70 0.40 1.45 0.65 1.75 0.25 0.25 0.45 1.20 0.45 2.10 0 1.60 -0.05 1.65 -2.10 1.65 -1.15 0 -2.45 -0.35 -2.90 -0.75 -0.80 -0.70 -0.90 -0.50 -1.45 2.90 -1 6.25 -0.20 6.85 8.95 6.85 2.35 0 5.40 0.40 7.80 1.05 2.15 0.60 4.75 1.25 5.70 1.45 0.95 0.20 1.85 0.40 1.95 0.45 0.10 0 -0.15 -0.35 -0.50 -0.80z m-45.05 -1 c-0.50 -0.10 -1.30 -0.10 -1.75 0 -0.50 0.15 -0.10 0.25 0.85 0.25 0.95 0 1.35 -0.10 0.90 -0.25z m-8.90 -1.20 c-3 -0.60 -15.35 -2.30 -19.75 -2.75 -1.90 -0.15 -6.30 -0.85 -9.75 -1.55 -3.45 -0.70 -8.05 -1.55 -10.25 -1.95 -2.20 -0.40 -4.35 -0.85 -4.75 -1 -0.40 -0.15 -4.25 -0.90 -8.50 -1.70 -4.25 -0.80 -10 -1.95 -12.75 -2.50 -2.75 -0.60 -7 -1.40 -9.50 -1.80 -2.45 -0.40 -7.10 -1.30 -10.25 -1.95 -3.15 -0.70 -7.45 -1.55 -9.50 -1.95 -2.05 -0.35 -6.45 -1.25 -9.75 -2 -3.30 -0.70 -7.70 -1.65 -9.75 -2.10 -2.05 -0.45 -7.10 -1.55 -11.25 -2.55 -4.10 -0.95 -9.50 -2.15 -12 -2.70 -2.45 -0.60 -6.75 -1.55 -9.50 -2.20 -2.75 -0.65 -6.80 -1.60 -9 -2.05 -2.20 -0.45 -5.35 -1.25 -7 -1.70 -1.65 -0.50 -4.70 -1.25 -6.75 -1.65 -2.05 -0.45 -6.90 -1.45 -10.75 -2.25 -3.85 -0.85 -8.25 -1.75 -9.75 -2.05 -3.25 -0.60 -18.20 -3.70 -23.25 -4.75 -5.85 -1.25 -7 -1.45 -6.70 -1.10 0.30 0.30 14.85 3.60 21.35 4.85 1.50 0.30 6.90 1.50 12 2.75 5.15 1.20 12.40 2.85 16.10 3.65 3.75 0.85 13.95 3.20 22.75 5.30 8.80 2.10 19.70 4.55 24.25 5.45 4.55 0.95 10.30 2.15 12.75 2.70 2.50 0.60 8 1.75 12.25 2.60 4.25 0.85 10.35 2.10 13.50 2.80 6.65 1.40 24.35 4.90 28.75 5.65 1.65 0.30 4.90 0.85 7.25 1.30 2.35 0.40 8.55 1.55 13.80 2.50 5.25 0.95 13.25 2.20 17.75 2.80 4.50 0.60 10.25 1.35 12.70 1.70 5.40 0.75 8.70 0.90 5.25 0.20z m25.15 -6.05 c0.10 -2.55 0.90 -7.95 1.80 -12 0.85 -4.05 1.90 -10.15 2.30 -13.50 0.75 -6.30 1 -18.65 0.40 -22.05 l-0.30 -1.95 -2.10 3.95 c-1.15 2.15 -3.70 6.85 -5.70 10.40 -6.25 11.30 -9.05 17.40 -9.95 21.65 -0.80 3.85 -0.75 3.95 0.35 7.05 1.15 2.95 2.85 5.25 4.75 6.30 0.45 0.30 1.05 1.30 1.25 2.25 0.30 1.55 0.55 1.80 2.30 2.05 1.10 0.15 2.60 0.35 3.35 0.40 l1.30 0.05 0.25 -4.60z m-17.45 -3.50 c-1.10 -3 -1.50 -11.70 -0.70 -14.20 0.90 -2.80 6.25 -14.30 7.65 -16.55 0.65 -1.05 4.50 -8.40 8.55 -16.35 4.10 -8 7.75 -15.05 8.20 -15.70 1.80 -2.75 6.70 -13.95 6.70 -15.35 0 -0.80 -0.70 -4.65 -1.55 -8.50 -0.80 -3.85 -1.75 -9.90 -2.05 -13.50 -1.75 -20.60 -3.25 -32.80 -4.60 -37.20 -1.20 -3.90 -2.70 -5.60 -9.15 -10.40 -9.05 -6.75 -15.95 -10.05 -22.85 -10.85 l-2.90 -0.35 0 1.40 c0 2.75 1.50 13.30 2.45 17.30 2 8.50 8.40 23.35 16.25 37.80 1.75 3.20 4.55 8.85 6.25 12.60 2.80 6.25 3.05 7.05 3.05 10.35 0 5.25 -1.25 8.30 -7.25 17.60 -1.35 2.05 -3.55 5.90 -4.90 8.50 -1.35 2.60 -2.65 5 -2.85 5.25 -0.70 1.05 -2.05 5.30 -3.95 12.75 -2.40 9.50 -2.95 12.40 -3.50 18.50 -0.25 2.60 -0.80 5.75 -1.25 7 -0.45 1.25 -0.80 3.40 -0.80 4.75 0 1.40 -0.45 3.40 -0.95 4.55 l-0.90 2 2.55 -0.20 c1.40 -0.10 3.10 0.05 3.80 0.35 0.70 0.25 2.20 0.50 3.35 0.50 l2.10 0.05 -0.75 -2.10z m-329.45 -29 c6.20 -1.55 11.05 -5.50 22.10 -17.85 l3.15 -3.45 -8.40 -2.80 c-4.60 -1.55 -8.45 -2.80 -8.60 -2.80 -0.15 0 -0.25 2.30 -0.30 5.15 -0.05 5.55 -1.20 10.30 -3.40 13.75 -1.70 2.70 -5.50 6 -8.40 7.35 -3.70 1.70 -1.75 2.05 3.85 0.65z m352.70 -125.05 c2.30 -8.80 5.65 -16.10 10.30 -22.25 1.50 -2 2.75 -3.85 2.75 -4.05 0 -0.30 -1.05 -2.15 -4.45 -7.65 -5.90 -9.60 -10.60 -18.25 -12.05 -22.25 -0.60 -1.60 -0.75 -1.65 -3.30 -1.65 l-2.70 0 0 -2.25 c0 -2.05 0.10 -2.25 1.40 -2.55 2.90 -0.60 4.25 -1.45 5.50 -3.30 1.60 -2.50 1.70 -6.10 0.15 -11.55 -0.70 -2.55 -1.05 -5.30 -1.05 -8.10 l0 -4.25 2 0 c1.70 0 2.05 0.20 2.30 1.25 0.15 0.70 0.20 2 0.05 2.90 -0.10 0.85 -0.05 2.05 0.15 2.65 0.45 1.10 2.45 1.50 12.85 2.60 l3.60 0.40 2.20 -2.50 c1.15 -1.40 4.15 -5.45 6.55 -9.05 2.45 -3.55 4.85 -7.05 5.40 -7.75 1.75 -2.30 10.15 -14.50 12.05 -17.55 1.25 -1.95 1.75 -3.25 1.45 -3.55 -0.30 -0.30 -1 0.25 -1.90 1.55 -0.80 1.10 -6.90 7.35 -13.55 13.85 -8.80 8.55 -12.15 12.15 -12.15 12.95 0 2.25 -4.35 2.35 -7.75 0.20 -2.65 -1.70 -3 -1.95 -14.15 -11.05 -3.95 -3.25 -7.60 -5.90 -8.05 -5.90 -0.50 0 -1.20 0.55 -1.55 1.25 -0.35 0.70 -2.50 3 -4.70 5.15 l-4.05 3.85 -4.30 0 c-3.95 0 -4.50 -0.10 -5.70 -1.25 -1.20 -1.10 -3.60 -2 -7.85 -2.85 -1 -0.20 -1.80 0.10 -2.85 0.90 -0.80 0.65 -2.65 2 -4.05 2.95 -10.60 7.20 -16.85 12.70 -18.50 16.25 -0.45 1.10 -1.35 3.05 -1.90 4.40 l-1.05 2.35 7.35 -3.75 c4.05 -2.05 8.40 -4.50 9.65 -5.45 2.65 -1.95 5.20 -6 5.70 -9.05 0.20 -1.10 0.60 -2.75 0.90 -3.60 0.50 -1.50 0.70 -1.65 2.70 -1.65 2.40 0 3.15 0.85 3.15 3.45 0 1.45 0.15 1.55 1.75 1.55 1.10 0 1.90 0.30 2.05 0.75 0.20 0.40 0.85 0.75 1.50 0.75 0.65 0 1.60 0.20 2.10 0.45 0.45 0.30 1.50 0.60 2.25 0.80 3.05 0.65 5.20 5.40 5.45 12.25 l0.15 4.75 -4.50 0.10 c-2.45 0.05 -7.25 0.20 -10.60 0.35 l-6.15 0.25 -2.90 2.50 c-1.65 1.40 -3.65 3.40 -4.45 4.45 l-1.55 1.90 1.90 3 c1.10 1.60 2.65 3.95 3.50 5.15 5.20 7.25 12.50 18.65 13 20.35 0.45 1.55 0.50 4.35 0.05 12.10 -0.30 5.55 -0.55 11.20 -0.55 12.60 l0 2.50 3.15 0 c8.60 0 18.30 4 27.90 11.50 2.05 1.55 3.85 2.70 4 2.55 0.15 -0.15 0.80 -2.30 1.40 -4.70z m-70.50 -57.55 c0.85 -0.45 2.70 -2 4 -3.45 1.35 -1.45 4.65 -4.90 7.35 -7.70 5.80 -6.15 6.50 -7.05 5.80 -7.75 -0.35 -0.35 -2.50 0.45 -6.65 2.50 -3.40 1.65 -7.45 3.50 -8.95 4.15 -3.30 1.40 -6.55 4.30 -8.50 7.70 -2 3.50 -2.35 5.10 -1.15 5.45 1.65 0.45 6.45 -0.05 8.10 -0.90z m35.05 -21.60 c0.40 -0.40 -0.15 -0.50 -1.95 -0.30 -2.45 0.20 -2.55 0.20 -2.55 -1.05 0 -0.65 -0.35 -2.05 -0.75 -3.05 -0.65 -1.50 -1 -1.80 -2.25 -1.80 -0.85 0 -1.50 0.20 -1.50 0.40 0 0.25 -1.05 1.50 -2.30 2.80 -1.40 1.40 -2.15 2.55 -1.90 2.80 1 0.95 12.25 1.15 13.20 0.20z m-53.05 -7.90 c-0.60 -0.60 -18.40 -4.80 -20.15 -4.75 -1.95 0.05 -1.90 0.10 0.70 0.50 1.50 0.20 5.45 1.30 8.75 2.40 3.55 1.20 7 2 8.45 2 1.35 0.05 2.35 -0.05 2.25 -0.15z m65.35 -19.10 c4.50 -3.95 6 -6.40 6.45 -10.55 0.20 -1.90 0.80 -4.50 1.30 -5.90 1.15 -3.05 1.20 -4.65 0.15 -6.15 -1.65 -2.35 -5.35 -0.95 -11.35 4.35 -3.65 3.20 -5.25 4.05 -7.85 4.05 -1.90 0 -4.20 -1 -5.15 -2.25 -0.65 -0.85 0.25 2.45 1 3.65 0.40 0.65 1.25 1.35 1.95 1.60 1 0.40 1.20 0.80 1.20 2.50 0 1.65 -0.20 2 -0.95 2 -0.65 0 -1 0.45 -1.20 1.40 -0.15 0.75 -0.40 1.85 -0.60 2.50 -0.30 0.80 -0.15 1.10 0.45 1.10 0.55 0 0.80 -0.45 0.80 -1.50 0 -1.35 0.15 -1.50 1.65 -1.45 1.25 0 1.95 0.45 3.25 2.10 0.90 1.15 2.20 2.85 2.90 3.75 0.70 0.85 1.65 1.60 2.05 1.60 0.40 0 2.20 -1.25 3.95 -2.80z m74.20 -22.40 c0 -0.10 -0.50 -0.30 -1.10 -0.40 -1.05 -0.15 -1.15 -0.45 -1.30 -3.50 -0.15 -3.35 -0.15 -3.40 -1.55 -3.40 l-1.40 0 0.95 3.40 c0.50 1.85 0.85 4.10 0.80 5 -0.20 2.50 1.05 2.95 2.45 0.85 0.65 -0.95 1.15 -1.80 1.15 -1.95z m1.85 -4.90 c-0.10 -0.65 -0.20 -0.25 -0.20 0.85 -0.05 1.10 0.05 1.60 0.20 1.15 0.10 -0.50 0.10 -1.40 0 -2z"/>
  <path d="M394.20 242.80 c-0.15 -0.40 -0.20 -1.35 -0.10 -2.15 l0.15 -1.40 6.80 -0.25 c6.45 -0.30 6.95 -0.40 9 -1.70 1.20 -0.80 3.10 -1.55 4.30 -1.70 l2.15 -0.25 0 2.05 c0 2.55 -1.55 4.15 -5.10 5.30 -3.40 1.10 -16.80 1.15 -17.20 0.10z"/>
 </g>
 <g fill="#ffffff">
  <path d="M0 299.50 l0 -299.50 300 0 300 0 0 299.50 0 299.50 -300 0 -300 0 0 -299.50z m467.60 166.25 c0.65 -0.25 0.80 -0.70 0.60 -1.60 -0.20 -0.65 -0.05 -1.75 0.30 -2.35 0.30 -0.65 0.50 -1.70 0.40 -2.35 -0.15 -1.05 -0.50 -1.25 -2.70 -1.45 -2.95 -0.30 -5.30 -1.75 -12 -7.55 -4.45 -3.85 -6.20 -6.35 -6.20 -8.90 0 -3.80 3.85 -22.85 5.80 -28.55 1.20 -3.50 4.10 -16.55 4.65 -20.85 0.25 -2.15 0.65 -6.25 0.80 -9.15 0.20 -2.90 0.80 -7.40 1.35 -10 0.75 -3.60 1 -7.05 1.10 -14.50 0.10 -5.65 0.50 -12.05 0.95 -15.25 2.10 -14.15 2.35 -35.65 0.55 -47.50 -1.15 -7.85 -3.80 -18.05 -5.75 -22.05 -2.05 -4.30 -6.15 -11.50 -9.35 -16.30 -1.35 -2 -3.60 -5.90 -5.10 -8.65 -1.45 -2.75 -3.15 -5.65 -3.75 -6.50 -1 -1.35 -2.85 -6.35 -3.40 -9 -0.10 -0.55 0.40 -2 1.10 -3.20 1.70 -3.05 2.10 -6.15 1.25 -9.80 -1.20 -5.30 -1.30 -5.20 3.20 -4.45 2.10 0.30 6.25 0.75 9.15 0.95 l5.35 0.35 1.90 -1.95 c2.90 -2.90 28.70 -40.15 28.70 -41.40 0 -0.10 1.25 -2.15 2.75 -4.60 3.90 -6.20 4 -6.75 2.30 -13.45 -0.80 -3.05 -1.75 -6.05 -2.10 -6.60 -0.55 -0.85 -0.50 -1.35 0.25 -3.05 1 -2.15 0.80 -3.55 -0.45 -3.55 -1.35 0 -5.20 3.60 -7.25 6.75 -2.75 4.30 -3.20 6.45 -2.20 10.35 1.40 5.60 1.40 6.55 0 8.80 -2.10 3.35 -7.75 9.65 -12.85 14.30 -2.60 2.40 -6.85 6.55 -9.45 9.20 -7.45 7.60 -7.70 7.80 -9.05 7.05 -1.15 -0.60 -7.25 -5.40 -14.85 -11.65 -4.90 -4.05 -7.45 -5.65 -9.50 -6.05 l-1.75 -0.30 0.30 -2.40 c0.15 -1.30 1.10 -4.75 2.10 -7.70 1.75 -5.10 1.80 -5.35 1.20 -8.45 -1.30 -6.95 -4.15 -12.70 -7.05 -14.20 -0.85 -0.45 -2 -1.25 -2.60 -1.75 -1.15 -1.10 -3.80 -1.95 -6.05 -1.95 -0.85 0 -2.75 -0.35 -4.25 -0.75 -1.50 -0.45 -4.90 -0.90 -7.50 -1.05 -4.45 -0.30 -5.05 -0.25 -9.50 1.30 -5.10 1.75 -12.65 5.40 -17.35 8.45 -1.60 1 -4.75 3.90 -7.05 6.40 -5.70 6.25 -9.35 7.75 -21.60 8.90 -9.95 0.90 -17.15 3.65 -22.90 8.65 -6.40 5.60 -9.80 7.35 -17.35 9.10 -5.50 1.25 -15.05 5.35 -19.95 8.60 -3.80 2.50 -6.80 4 -10.30 5.15 -1.50 0.50 -3.60 1.45 -4.60 2.10 -1.05 0.60 -2.45 1.15 -3.10 1.15 -0.70 0 -1.40 0.25 -1.55 0.50 -0.15 0.30 -0.90 0.50 -1.65 0.50 -0.75 0 -2 0.55 -2.85 1.20 l-1.50 1.20 1.25 1.05 1.25 1.05 -1.25 1 c-0.70 0.50 -2.20 1.50 -3.40 2.10 -2.55 1.40 -2.45 2.15 0.35 2.10 1.50 -0.05 2.75 -0.50 4.35 -1.60 2.65 -1.90 3.10 -1.95 5.75 -0.55 4.75 2.40 9.05 3.45 15.30 3.80 7 0.35 7.05 0.40 1.70 3.45 -1.95 1.05 -3.55 2.25 -3.55 2.60 0 0.30 0.15 0.60 0.30 0.60 0.60 0 6.25 -3.60 8.75 -5.55 1.35 -1.10 2.75 -1.95 3.05 -1.85 0.75 0.25 -5.85 5.60 -8.10 6.55 l-1.75 0.75 1.55 0.05 c1.70 0.05 4.55 -1.80 8.45 -5.50 1.40 -1.25 3.40 -2.60 4.50 -2.95 1.10 -0.35 3.65 -1.30 5.65 -2.10 2.45 -1 4.15 -1.45 5.25 -1.25 1.90 0.30 11.10 -0.45 14.65 -1.15 2.50 -0.55 2.65 -0.50 8.50 2.25 10.60 5 15.40 5.95 22.30 4.55 4.30 -0.90 6.75 -1.90 11.85 -4.80 3.70 -2.10 4.50 -2.40 3.65 -1.35 -0.30 0.30 -1.45 2.75 -2.55 5.35 -3 6.90 -3.10 7 -5.40 9.70 -2.40 2.70 -5.40 8.45 -6.10 11.70 -0.35 1.75 -0.30 2.30 0.45 3.20 0.80 1 1.45 1.15 6.15 1.30 6.65 0.25 8.20 -0.40 13.75 -5.85 l4 -3.95 3.15 4.30 c6 8.05 9.55 13.25 12.75 18.80 l3.20 5.50 0 14.60 c0 24.05 1.85 36.55 7.25 49.45 1.20 2.90 15.65 32.05 17.20 34.75 0.75 1.25 2.05 4.05 2.95 6.30 l1.65 4.05 -1.25 3.65 c-1.20 3.35 -4.35 9.05 -7.10 12.80 -1.70 2.30 -7.50 13.60 -8.45 16.45 -1.60 4.70 -5.25 19.90 -5.25 21.75 0 2.70 -1.35 11.30 -1.95 12.45 -0.30 0.50 -0.65 2.65 -0.80 4.75 -0.15 2.70 -0.60 4.55 -1.50 6.30 -0.70 1.35 -1.25 3.35 -1.25 4.40 l0 1.95 -2.60 -0.40 c-1.45 -0.25 -5.75 -0.90 -9.50 -1.45 -3.75 -0.55 -8 -1.35 -9.50 -1.75 -1.45 -0.45 -7.70 -1.65 -13.90 -2.75 -6.20 -1.05 -13.25 -2.40 -15.65 -3 -2.45 -0.60 -11.75 -2.40 -20.75 -4.05 -9 -1.65 -18.70 -3.55 -21.60 -4.20 -2.90 -0.70 -7.70 -1.80 -10.75 -2.50 -3 -0.65 -8 -1.80 -11 -2.45 -3.05 -0.70 -8.75 -1.95 -12.75 -2.80 -4 -0.80 -8.15 -1.70 -9.25 -2 -9.45 -2.40 -35.55 -8.60 -39.75 -9.45 -2.90 -0.60 -8.15 -1.65 -11.75 -2.35 -8.25 -1.65 -20.65 -4.40 -26.65 -5.95 -2.55 -0.70 -6.70 -1.55 -9.25 -2 -2.50 -0.40 -10.90 -2.35 -18.60 -4.30 -7.70 -1.95 -15.25 -3.85 -16.75 -4.20 -1.50 -0.35 -6.15 -1.65 -10.30 -2.95 -4.15 -1.25 -7.95 -2.30 -8.40 -2.30 -0.45 0 -6.50 -1.70 -13.45 -3.80 -6.90 -2.10 -13.25 -3.95 -14.10 -4.20 -0.80 -0.20 -6.35 -1.85 -12.25 -3.65 -11.60 -3.50 -16.45 -4.85 -17.70 -4.85 -2.50 0 1.10 4.55 4.15 5.25 0.80 0.15 1.70 0.60 2 0.95 0.30 0.35 3.50 1.60 7.15 2.80 11.35 3.70 10.95 3.50 11.80 5.45 1.30 2.90 1.10 10 -0.35 14.50 -1 3.05 -1.75 4.25 -4.20 6.85 -1.65 1.75 -3.35 3.20 -3.80 3.20 -0.45 0 -1.05 0.20 -1.35 0.45 -0.25 0.25 -1.25 0.70 -2.25 1 -2.05 0.65 -3.15 1.75 -3.60 3.40 -0.35 1.50 2.10 3 6.15 3.75 8.70 1.65 18.45 -4.05 28.65 -16.75 5.10 -6.35 7.60 -8.50 9.30 -8.20 1.80 0.40 21.15 6.30 30.55 9.35 9.30 3 12.70 3.95 25.50 6.95 3.45 0.80 9.50 2.20 13.50 3.05 15.05 3.20 32.40 7.10 45 10 4.55 1.05 10.15 2.30 12.50 2.75 2.35 0.50 9.65 2.20 16.25 3.80 13.30 3.25 23.85 5.65 34.75 7.95 4 0.85 10.05 2.20 13.50 3 8.05 1.90 27 5.50 40.50 7.80 2.05 0.30 7.35 1.30 11.75 2.15 10.95 2.15 15.45 2.90 19.25 3.30 3.75 0.35 8.85 1 15.25 2 2.50 0.40 6.10 0.85 8 1 1.95 0.15 6.20 0.75 9.50 1.25 5.60 0.90 14.90 1.70 33.75 3 4.25 0.30 8.90 0.60 10.25 0.70 3.50 0.25 10.85 -0.05 11.85 -0.45z"/>
  <path d="M446.50 463.75 c-5.90 -0.65 -14.10 -1.40 -18.25 -1.70 -7.05 -0.55 -10 -0.85 -19.25 -2.05 -2.05 -0.30 -6.45 -0.85 -9.75 -1.25 -15.55 -1.95 -22.15 -2.95 -31 -4.50 -5.20 -0.95 -11.40 -2.10 -13.75 -2.50 -2.35 -0.45 -5.60 -1 -7.25 -1.30 -4.40 -0.75 -22.10 -4.25 -28.75 -5.65 -3.15 -0.70 -9.25 -1.95 -13.50 -2.80 -4.25 -0.85 -9.75 -2 -12.25 -2.60 -2.45 -0.55 -8.20 -1.75 -12.75 -2.70 -4.55 -0.90 -15.45 -3.35 -24.25 -5.45 -8.80 -2.10 -18.90 -4.45 -22.50 -5.20 -3.55 -0.80 -11.35 -2.55 -17.25 -3.95 -5.90 -1.35 -13.65 -3.10 -17.25 -3.85 -3.55 -0.75 -9.65 -2.15 -13.50 -3.10 -3.85 -1 -9.25 -2.30 -12 -2.90 -6.05 -1.35 -10.35 -2.45 -15 -3.80 -1.90 -0.55 -4.40 -1.25 -5.50 -1.55 -1.10 -0.30 -3.70 -1.05 -5.75 -1.70 -7.45 -2.25 -12.35 -3.70 -19.50 -5.70 -8.10 -2.25 -23.30 -7.20 -30.50 -9.85 -5.05 -1.90 -15 -5.45 -24.45 -8.70 -5.45 -1.90 -8.85 -3.40 -7.85 -3.45 0.25 0 1.15 0.25 2 0.50 0.85 0.30 4.25 1.30 7.55 2.30 3.30 0.95 7.40 2.20 9.10 2.75 10.60 3.25 16.40 4.95 18.40 5.30 0.85 0.15 1.75 0.45 2 0.65 0.30 0.20 2.55 1 5 1.70 2.50 0.75 5.40 1.70 6.50 2.05 3.35 1.20 22.75 6.50 36.50 10 26.95 6.90 35.75 9 45.25 10.80 1.50 0.30 6 1.20 10 2.05 4 0.85 8.40 1.75 9.75 2 1.40 0.30 5.65 1.15 9.50 2 3.85 0.80 8.70 1.80 10.75 2.25 2.05 0.40 5.10 1.15 6.75 1.65 1.65 0.45 4.80 1.25 7 1.70 2.20 0.45 6.25 1.40 9 2.05 2.75 0.65 7.05 1.60 9.50 2.20 2.50 0.55 7.90 1.75 12 2.70 4.15 1 9.20 2.10 11.25 2.55 2.05 0.45 6.45 1.40 9.75 2.10 3.30 0.75 7.70 1.65 9.75 2 2.05 0.40 6.35 1.25 9.50 1.95 3.15 0.65 7.80 1.55 10.25 1.95 2.50 0.40 6.75 1.20 9.50 1.80 2.75 0.55 8.50 1.70 12.75 2.50 4.25 0.80 8.10 1.55 8.50 1.70 0.40 0.15 2.55 0.60 4.75 1 2.20 0.40 6.80 1.25 10.25 1.95 3.45 0.70 7.95 1.40 10 1.60 6.90 0.65 31.05 4.25 38.60 5.75 5.80 1.15 18.85 2.90 33.85 4.55 3.70 0.40 5.40 0.75 4.75 1 -1.55 0.60 -6.80 0.40 -18.20 -0.80z"/>
  <path d="M463.85 462.20 c-0.20 -0.20 -1.95 -0.40 -3.95 -0.45 -2.10 -0.05 -5.15 -0.60 -7.15 -1.20 -2.45 -0.80 -5.60 -1.25 -10.50 -1.55 -3.85 -0.25 -7.15 -0.45 -7.30 -0.45 -0.60 -0.10 -1.45 -2.65 -1.45 -4.45 0 -2 1.50 -10.90 2.70 -16.15 1.75 -7.90 2 -10.90 2.10 -26.05 l0.10 -15.35 1.60 -4.65 c0.90 -2.55 2 -5.65 2.55 -6.90 0.50 -1.25 1.75 -4.95 2.75 -8.25 2 -6.75 2.05 -8.10 0.25 -16 -1.05 -4.45 -1.75 -10.20 -3.25 -26.25 -1.10 -11.25 -1.75 -16.30 -2.60 -20.35 -1.70 -7.65 -1.75 -10.30 -0.40 -16.70 0.65 -3.25 2.05 -7.85 3 -10.20 2 -4.75 6 -11.60 8.40 -14.30 0.85 -0.95 1.80 -2.20 2.10 -2.75 0.55 -0.85 0.80 -0.55 2.30 2.80 3.20 6.90 4.35 10.95 5.85 20.75 2.50 16.50 2.55 27.25 0.25 46.75 -0.45 3.70 -1 11.95 -1.20 18.25 -0.25 7.40 -0.65 12.55 -1.15 14.50 -0.40 1.65 -1.05 6.85 -1.35 11.50 -0.55 7.45 -0.95 9.85 -3.30 19.25 -1.45 5.90 -3.10 12.35 -3.60 14.25 -1.60 5.70 -4.20 20.75 -4.30 24.40 -0.05 2.90 0.10 3.55 1 4.25 0.60 0.45 3.85 3.10 7.20 5.85 7.95 6.50 7.90 6.45 9.45 6.55 3.15 0.15 3.55 0.25 3.55 0.90 0 1.55 -2.65 3 -3.65 2z m-24 -15.95 c-0.65 -0.45 -0.85 -1 -0.65 -1.65 0.20 -0.55 0.15 -1.15 -0.15 -1.30 -0.25 -0.15 -0.60 0.30 -0.75 1 -0.40 1.45 0.40 2.70 1.65 2.70 0.70 -0.05 0.65 -0.15 -0.10 -0.75z"/>
  <path d="M425.50 457.20 c-2.05 -0.35 -3.80 -0.65 -3.90 -0.65 -0.05 -0.05 -0.05 -0.75 0 -1.65 0.10 -1.10 -0.15 -1.70 -0.85 -2.10 -3.15 -1.75 -5.75 -6.95 -5.75 -11.35 0 -6.10 3.65 -14.90 12.65 -30.45 1.65 -2.90 4.55 -8.40 6.45 -12.25 1.90 -3.85 3.25 -6.20 3.05 -5.25 -0.20 0.95 -0.35 7.50 -0.25 14.50 0.20 14.55 -0.40 20.95 -3 33.10 -1.65 7.55 -2.05 13.35 -1.20 15.80 0.40 1 0.30 1.10 -1.50 1.05 -1.10 -0.05 -3.65 -0.35 -5.70 -0.75z"/>
  <path d="M416.85 455.70 c-0.15 -0.20 -1.85 -0.40 -3.70 -0.55 -1.85 -0.10 -4.05 -0.40 -4.90 -0.65 -0.80 -0.25 -2.70 -0.60 -4.15 -0.75 -4.40 -0.55 -5.10 -2.45 -2.85 -7.35 0.80 -1.70 1.25 -3.55 1.25 -5.15 0 -1.35 0.35 -3.50 0.80 -4.75 0.45 -1.25 1 -4.40 1.25 -7 0.55 -6.10 1.10 -9 3.50 -18.50 1.90 -7.45 3.25 -11.70 3.95 -12.75 0.20 -0.25 1.50 -2.65 2.85 -5.25 1.35 -2.60 3.55 -6.45 4.90 -8.50 5.40 -8.40 7.25 -12.50 7.25 -16.10 0 -2.40 -4.15 -12.05 -9.30 -21.45 -7.85 -14.45 -14.25 -29.30 -16.25 -37.80 -1.15 -4.85 -2.45 -14.75 -2.45 -18.85 l0 -2.95 4.25 0.35 c7.90 0.60 14.70 3.60 24.50 10.95 9.60 7.15 9.80 7.60 12.25 31.60 0.50 5.25 1.20 12.45 1.50 16 0.30 3.60 1.35 10.20 2.30 14.75 1.15 5.25 1.70 8.90 1.50 10.05 -0.30 1.75 -5.35 13.15 -6.90 15.55 -0.45 0.65 -4.10 7.70 -8.20 15.70 -4.05 7.95 -7.90 15.30 -8.55 16.35 -1.40 2.25 -6.75 13.75 -7.65 16.55 -0.85 2.65 -0.35 8.05 1.20 12.80 0.70 2.05 1.10 3.90 0.90 4.10 -0.35 0.35 -3.45 -0.05 -8.65 -1.15 -2.25 -0.50 -5.65 0.10 -3.95 0.70 1.85 0.65 7.80 1.35 12.50 1.50 3.65 0.10 4.50 0.45 4.50 1.90 0 0.75 -0.35 0.95 -1.65 0.95 -0.95 0 -1.85 -0.15 -2 -0.30z"/>
  <path d="M76.25 420.90 c-2.60 -0.95 -3 -1.50 -1.75 -2.50 0.60 -0.50 1.45 -0.90 1.85 -0.90 2.30 0 8.25 -4.60 10.45 -8.10 2.90 -4.60 4.35 -13.90 2.75 -17.75 -0.35 -0.90 -0.55 -1.85 -0.50 -2.10 0.15 -0.40 17.70 5 23.30 7.15 0.35 0.15 -0.80 1.70 -3 3.90 -2 2 -4.95 5.15 -6.60 7.05 -6.60 7.45 -12.65 11.65 -18.85 13.10 -3.65 0.85 -5.55 0.90 -7.65 0.15z"/>
  <path d="M432.90 300.30 c-5.20 -4.95 -15.65 -11.15 -21.90 -13.05 -1.50 -0.45 -5 -0.95 -7.70 -1.10 l-4.95 -0.30 0.35 -10 c0.15 -5.50 0.45 -11.20 0.60 -12.60 0.20 -1.60 0.05 -3.35 -0.30 -4.55 -0.35 -1.10 -3.25 -5.75 -6.40 -10.45 -3.15 -4.65 -6.45 -9.60 -7.40 -11 -0.90 -1.35 -2.55 -3.80 -3.65 -5.40 -1.15 -1.55 -2.05 -3.05 -2.05 -3.30 0 -0.75 8.90 -9.45 10.50 -10.30 1.20 -0.65 1.90 -0.70 3.50 -0.25 1.40 0.40 3.05 0.35 5.85 -0.05 4.30 -0.60 5.40 -0.65 8.55 -0.15 5.50 0.80 2.95 -3.25 -3.25 -5.25 -1.20 -0.40 -2.15 -0.85 -2.15 -1.05 0 -0.15 0.65 -0.90 1.40 -1.65 l1.40 -1.35 1.60 2.25 c1.05 1.45 1.95 2.25 2.65 2.25 0.90 0 1.05 -0.20 0.80 -1.45 -0.15 -0.75 -0.90 -2.65 -1.60 -4.20 -1.30 -2.75 -2.50 -3.70 -4.30 -3.45 -0.45 0.10 -1.10 -0.20 -1.40 -0.60 -0.40 -0.50 -1.10 -0.65 -2 -0.50 -1.15 0.25 -1.45 0.10 -1.70 -0.80 -0.25 -0.90 -0.50 -1 -2.05 -0.70 -1.80 0.30 -1.80 0.30 -1.80 -1.55 0 -2.10 -0.75 -3.75 -1.65 -3.75 -0.70 0 -1.55 2.15 -2.10 5.25 -0.50 3.05 -3.05 7.10 -5.70 9.05 -3.50 2.60 -22.05 11.80 -22.05 10.95 0 -0.15 4.10 -9.45 5.25 -12 1.40 -3.10 8.45 -9.15 18.25 -15.75 1.45 -0.95 3.45 -2.50 4.50 -3.35 1.60 -1.40 2.05 -1.55 3.30 -1.15 3.80 1.20 6.90 2 7.60 2 0.45 0 1.45 0.60 2.25 1.40 1.20 1.15 1.85 1.35 4.25 1.35 l2.85 0 3.90 -3.70 c2.15 -2.05 4.35 -4.50 4.90 -5.40 1.95 -3.15 3.85 -2.40 12.85 5 13.45 11.10 15.80 12.65 17.70 11.90 0.65 -0.30 0.85 -0.50 0.55 -0.50 -0.35 -0.05 -0.65 -0.25 -0.65 -0.50 0 -0.25 3.30 -3.65 7.40 -7.60 11.90 -11.60 18.75 -18.60 20.10 -20.60 0.70 -1 1.40 -1.85 1.65 -1.85 0.20 0 1.25 0.60 2.35 1.30 l2 1.35 -1 1.55 c-0.55 0.85 -1.75 2.75 -2.60 4.20 -1.65 2.60 -8.95 13.20 -13.05 18.85 -1.20 1.65 -3.80 5.35 -5.75 8.25 -1.95 2.90 -4.45 6.25 -5.50 7.45 l-1.90 2.20 -5.25 -0.60 c-12.15 -1.30 -13.50 -1.60 -14.05 -3 -0.25 -0.70 -0.40 -2.20 -0.35 -3.30 0.10 -2.70 0.05 -3.25 -0.55 -3.25 -0.90 0 -0.55 5.35 0.60 9.35 0.75 2.60 1.10 5.35 1.10 8.20 0.05 3.80 -0.10 4.50 -1.30 6.30 -1.25 1.90 -2.60 2.75 -5.50 3.35 -2.20 0.50 -1.75 1.80 0.55 1.80 1.10 0 2.15 -0.20 2.30 -0.50 0.60 -0.95 1.05 -0.50 1.70 1.90 0.35 1.30 1.40 3.70 2.30 5.35 0.90 1.65 2.20 4 2.85 5.25 1.20 2.25 5.25 9.20 7.15 12.20 3.60 5.80 5.30 8.95 5.10 9.45 -0.15 0.35 -1.65 2.40 -3.30 4.60 -3.35 4.40 -6.20 9.60 -8.20 15 -1.60 4.20 -3.85 12.55 -3.85 14.15 0 0.60 -0.15 1.10 -0.35 1.10 -0.25 -0.05 -1.70 -1.25 -3.25 -2.70z m-23 -59.10 c2.40 -0.80 5.10 -2.75 5.10 -3.70 0 -0.60 -1.30 -0.10 -3.70 1.45 -1.75 1.15 -2.50 1.25 -8.25 1.45 -6.80 0.20 -7.80 0.30 -7.30 1.10 0.50 0.85 11.30 0.60 14.15 -0.30z"/>
  <path d="M356.05 238.50 c-1.05 -0.45 -1.15 -0.75 -0.90 -2.40 0.50 -2.95 3.20 -7.75 5.75 -10.20 1.35 -1.30 3.60 -2.75 5.35 -3.45 1.60 -0.65 6.15 -2.80 10.05 -4.75 l7.10 -3.60 1.55 2.25 1.60 2.20 -5.25 5.35 c-2.90 2.95 -6 6.25 -6.90 7.35 -2.40 2.90 -5.45 5.70 -7.15 6.65 -1.80 0.95 -9.40 1.35 -11.20 0.60z"/>
  <path d="M386.30 215.85 c-0.70 -0.95 -1.30 -1.90 -1.30 -2.15 0 -0.25 1 -1.40 2.25 -2.60 3.80 -3.60 6.20 -8.55 6.30 -13.05 0 -1.75 0.05 -1.75 0.55 -0.55 0.30 0.70 0.40 3 0.20 5.40 -0.15 2.45 -0.05 4.10 0.20 4.10 0.30 0 0.50 -0.65 0.50 -1.40 0 -1.65 1.50 -3.25 2.85 -3 0.70 0.15 0.95 0.70 1.05 3.05 0.15 3.25 -0.50 3.75 -1.45 1.10 -0.70 -1.90 -1.75 -2.45 -1.15 -0.60 0.95 3.15 1.70 4.35 2.65 4.35 0.65 0 1.05 0.35 1.05 0.80 0 0.50 -0.30 0.70 -0.70 0.55 -0.40 -0.15 -0.85 0 -0.95 0.35 -0.20 0.50 0.25 0.60 1.80 0.45 1.55 -0.15 2.85 0.10 4.85 1.05 5.30 2.45 6 3.95 1.30 2.80 -2.10 -0.50 -3.05 -0.50 -4.50 0 -1.10 0.35 -4 0.55 -7.20 0.45 -2.95 -0.05 -5.70 0.05 -6.15 0.25 -0.60 0.25 -1.20 -0.10 -2.15 -1.35z"/>
  <path d="M339.25 213.35 c-1.90 -0.65 -6.70 -2.70 -10.65 -4.55 -7.60 -3.55 -10 -4.55 -12.20 -5 -1.70 -0.40 -1.85 -1.30 -0.25 -1.30 2.10 0 9.50 2.95 17.45 7 7.10 3.65 12.95 4.40 19.20 2.45 3.45 -1.05 7.85 -3.05 10.80 -4.85 0.90 -0.55 2.55 -1.15 3.65 -1.35 l2 -0.35 -1.50 1.25 c-1.65 1.40 -9.40 5.40 -12.80 6.65 -1.20 0.45 -4.45 0.90 -7.20 1 -4.30 0.20 -5.50 0.05 -8.50 -0.95z"/>
  <path d="M278.50 213.50 c-3.15 -0.30 -5.70 -0.90 -9.85 -2.50 -5.30 -2 -10.55 -4.75 -10.05 -5.30 0.15 -0.10 2.15 0.65 4.45 1.75 7.10 3.30 9.80 4.10 15.20 4.40 10.60 0.60 21.15 -2.65 32 -9.85 1.95 -1.25 5.65 -3.50 8.25 -4.95 2.60 -1.50 5.10 -2.95 5.50 -3.30 1.25 -1 11.05 -4.60 14 -5.15 3.60 -0.70 13.30 -1.50 23 -1.85 8 -0.30 14.90 -1.25 18.45 -2.50 2.60 -0.90 5.90 -3.15 10.10 -6.85 3.15 -2.80 4.45 -3.50 4.45 -2.40 0 0.75 -4.95 5.60 -7.60 7.40 -3.35 2.30 -9.55 4.85 -13.90 5.80 -3.95 0.80 -8.95 1.15 -22.25 1.55 -4.40 0.10 -9.35 0.50 -11 0.80 -7.40 1.35 -18.90 6.95 -30.80 15 -2.85 1.95 -8.75 4.70 -13.15 6.20 -2.15 0.70 -11.60 2.40 -12.30 2.15 -0.15 0 -2.15 -0.20 -4.50 -0.40z"/>
  <path d="M255 212.25 c0 -0.10 0.70 -0.60 1.55 -1 0.80 -0.45 1.95 -1.25 2.50 -1.80 0.90 -0.90 1.95 -0.90 1.95 0 0 0.20 -1.10 1 -2.45 1.70 -2.30 1.25 -3.55 1.65 -3.55 1.10z"/>
  <path d="M340.50 211.10 c-3.30 -1.15 -11.50 -5.05 -10.65 -5.05 0.35 -0.05 3.05 0.80 6 1.80 4.75 1.65 5.95 1.90 9.90 1.85 3.75 -0.05 5.25 -0.30 8.90 -1.65 2.60 -0.95 5.10 -1.55 6 -1.45 l1.60 0.20 -1.40 0.60 c-0.75 0.30 -2.30 1 -3.50 1.55 -4.80 2.15 -6.05 2.50 -9.95 2.80 -3.30 0.20 -4.75 0.05 -6.90 -0.65z"/>
  <path d="M400.90 211.20 c-0.65 -3.80 -1 -7.70 -0.75 -7.70 0.15 0 0.85 0.20 1.50 0.45 1.20 0.45 1.20 0.50 0.65 3.70 -0.50 3 -1.20 4.70 -1.40 3.55z"/>
  <path d="M406.95 209.25 l-1.65 -2.30 -0.95 1.15 -0.95 1.15 0.35 -2.25 c0.15 -1.20 0.35 -2.30 0.45 -2.35 0.10 -0.10 0.70 0.05 1.40 0.30 0.90 0.35 1.55 1.30 2.30 3.35 0.60 1.60 1 3 0.90 3.10 -0.10 0.10 -0.95 -0.90 -1.85 -2.15z"/>
  <path d="M270.30 209.25 c-5.70 -2 -9.50 -3.85 -9.25 -4.55 0.10 -0.25 0.30 -0.40 0.45 -0.35 1.95 0.90 10.10 3.80 12.15 4.35 3.15 0.85 13.05 0.25 18.10 -1 3.90 -1 9.55 -3.65 13.80 -6.45 1.90 -1.25 3.55 -2.25 3.65 -2.25 0.15 0 2.95 -1.60 6.15 -3.55 11.20 -6.75 15.35 -8.45 25.65 -10.40 1.50 -0.30 7.35 -0.75 13 -1.05 20 -1.05 24.20 -1.70 28.35 -4.30 1.75 -1.15 9.50 -7.50 9.90 -8.20 0.35 -0.60 1.25 -0.20 1.25 0.55 0 0.25 -0.60 0.95 -1.35 1.60 -0.70 0.60 -2.40 2.05 -3.70 3.20 -4.55 3.95 -8.45 6.30 -11.65 6.95 -4.35 0.85 -12.35 1.60 -21.05 1.95 -13.50 0.50 -19.30 1.40 -24.75 3.85 -1.80 0.80 -4.35 1.90 -5.70 2.45 -1.35 0.55 -4.35 2.10 -6.75 3.50 -5.05 2.90 -4.30 2.45 -11.50 7 -5.55 3.55 -10.45 5.60 -16.30 6.90 -9.95 2.10 -13.80 2.10 -20.45 -0.20z"/>
  <path d="M343.75 208.45 c-1.65 -0.15 -5.45 -1.15 -8.45 -2.15 -3 -1 -6.80 -2.05 -8.50 -2.30 -1.70 -0.25 -4.30 -0.90 -5.80 -1.45 -3.85 -1.35 -2.45 -1.80 5.75 -1.80 6.25 0 6.85 0.10 16 2.60 5.25 1.40 10.30 2.65 11.25 2.75 l1.75 0.20 -1.50 0.65 c-2.75 1.15 -7.45 1.85 -10.50 1.50z"/>
  <path d="M307.60 207.80 c1.65 -1.25 12.90 -2 13.95 -0.95 0.60 0.60 -6.75 1.65 -11.60 1.65 -2.75 -0.05 -3.10 -0.10 -2.35 -0.70z"/>
  <path d="M273.75 207.65 c-1.65 -0.35 -8.95 -2.70 -9.65 -3.10 -0.55 -0.30 -0.50 -0.50 0.10 -1 0.45 -0.40 0.80 -0.45 0.80 -0.20 0 0.30 1.05 0.80 2.40 1.15 1.30 0.35 3.05 0.90 3.95 1.30 2.30 1.05 10.15 0.90 16.05 -0.30 5.25 -1.05 10.60 -3.20 15.45 -6.25 4.85 -3.05 12.05 -7.20 19.15 -11 8.45 -4.55 14.05 -6.35 20.25 -6.50 2.50 -0.05 7 -0.50 10 -0.95 3.60 -0.55 8.10 -0.80 13 -0.75 4.75 0.05 8.35 -0.15 9.75 -0.55 3.75 -1 7.95 -3.35 10.90 -6.05 3.45 -3.15 7.20 -5.70 12.40 -8.40 2.25 -1.15 6.50 -3.90 9.50 -6.05 5.10 -3.80 7.45 -4.85 9.55 -4.35 0.75 0.15 0.65 0.30 -0.55 0.80 -0.80 0.30 -3.20 1.80 -5.40 3.30 -2.20 1.50 -4.05 2.75 -4.20 2.75 -0.10 0 -1.75 1.10 -3.70 2.50 -2.20 1.55 -4.25 2.60 -5.65 2.85 -1.45 0.25 -3 1.10 -4.65 2.50 -10.90 9.25 -12.05 10 -16.70 11.30 -2.30 0.65 -17.40 2.05 -20.75 1.95 -3.10 -0.10 -14.65 1.10 -18.65 1.95 -5.50 1.15 -11.45 3.35 -14.75 5.45 -1.30 0.80 -2.55 1.50 -2.75 1.50 -0.20 0 -1.25 0.60 -2.35 1.35 -1.10 0.75 -3.25 2 -4.75 2.80 -4.10 2.10 -5.50 2.95 -8 4.65 -6.20 4.25 -12.25 6.50 -19.35 7.20 -5.05 0.50 -9.65 0.55 -11.40 0.15z"/>
  <path d="M311.75 205.25 c0.85 -0.35 2.20 -0.50 3 -0.35 l1.50 0.30 -1.25 0.35 c-0.70 0.20 -2.05 0.35 -3 0.35 l-1.75 0 1.50 -0.65z"/>
  <path d="M272 204.50 c-3.15 -1.30 -1.70 -1.70 4.40 -1.25 8.85 0.65 9.45 0.60 15.10 -1.70 5.60 -2.25 7.20 -3.15 12.75 -7.30 5.20 -3.85 5.25 -3.75 0.65 0.85 -5.40 5.35 -9.35 7.40 -17.75 9.15 -7.05 1.50 -12 1.55 -15.15 0.25z"/>
  <path d="M353.75 204.70 c-2.20 -0.30 -5.05 -0.90 -6.30 -1.35 -1.25 -0.40 -5.55 -1.60 -9.55 -2.55 -7.05 -1.75 -11.95 -2.25 -15.15 -1.55 l-1.50 0.30 1.45 -0.85 c1.25 -0.70 2.25 -0.75 6.25 -0.50 5.65 0.45 13.50 1.85 19.80 3.60 6.70 1.90 13.90 2.15 19.60 0.75 2.40 -0.60 4.70 -1.20 5.10 -1.35 1.40 -0.45 -0.55 1.35 -2.15 2 -4.85 2 -10.75 2.50 -17.55 1.50z"/>
  <path d="M267.25 203 c0.50 -0.85 3.25 -2.05 4.15 -1.90 0.60 0.15 0.20 0.55 -1.25 1.30 -2.25 1.20 -3.40 1.40 -2.90 0.60z"/>
  <path d="M279.50 202.50 c-1.20 -0.40 -1.20 -0.40 0.30 -0.45 2.45 -0.10 9.70 -2.05 13.10 -3.60 2.90 -1.30 4.65 -2.40 16.25 -10.35 6.70 -4.60 19.55 -10.80 25.10 -12.10 2.50 -0.60 5.40 -1.30 6.50 -1.60 1.05 -0.25 8.45 -0.60 16.35 -0.70 18.55 -0.20 17.15 0.15 28.30 -7.55 2.50 -1.70 6.60 -4.15 9.15 -5.40 3.20 -1.65 5.65 -3.35 8.20 -5.75 3.90 -3.70 8.10 -6.15 10.05 -5.90 2 0.25 1.45 1.05 -1.25 1.95 -2.80 0.90 -2.85 0.95 -8.05 5.45 -4.15 3.65 -6.65 5.30 -10 6.75 -2.55 1.10 -4.45 2.35 -10.75 7.25 -6.50 5.10 -8.05 5.50 -21.45 5.50 -19.85 0 -27.30 1.30 -38.45 6.70 -3.10 1.50 -7.10 3.40 -8.95 4.20 -1.85 0.85 -5.55 3.10 -8.25 5 -5.15 3.65 -15.45 9.25 -18.60 10.05 -2.95 0.80 -6.20 1 -7.55 0.55z"/>
  <path d="M354.50 201.70 c-1.80 -0.35 -5.65 -1.20 -8.60 -1.90 -5.70 -1.45 -17.90 -3.35 -18.50 -3 -0.25 0.15 -0.40 0.05 -0.40 -0.25 0 -1.65 5 -1.15 18.25 1.80 11.35 2.50 17.20 2.75 24.25 0.90 2.90 -0.80 6.70 -1.95 8.45 -2.60 2.50 -0.95 3.05 -1.05 2.55 -0.40 -1.35 1.65 -5.05 3.35 -9.85 4.50 -5.95 1.40 -11.80 1.75 -16.15 0.95z"/>
  <path d="M275.15 201.40 c1.05 -0.35 1.60 -0.35 2 0.05 0.40 0.40 0 0.55 -1.40 0.50 -2 -0.05 -2 -0.05 -0.60 -0.55z"/>
  <path d="M280.55 200.05 c2.15 -1.65 8.35 -5.50 11.40 -7 2.95 -1.50 12.45 -4.35 12.90 -3.85 0.35 0.30 -8.35 6.05 -11.95 7.90 -2.35 1.20 -11.35 3.85 -13.10 3.90 -0.25 0 0.10 -0.40 0.75 -0.95z"/>
  <path d="M276.25 199.05 c1.95 -0.75 4.75 -2.20 6.25 -3.25 5.35 -3.60 14.80 -7.80 20.70 -9.30 7.70 -1.90 12.50 -4.30 17.35 -8.75 5.70 -5.20 12.05 -7.55 24.20 -8.95 11.95 -1.40 15.50 -2.95 21.25 -9.30 7.15 -7.90 21.50 -14.70 32.20 -15.15 5.70 -0.25 6.40 0.40 1.20 1.05 -5.05 0.65 -12.85 3.10 -17.65 5.50 -5.30 2.65 -9.05 5.35 -14 10.15 -6.65 6.40 -11.15 8.30 -23 9.70 -11.70 1.35 -17 2.95 -21.40 6.35 -1.40 1.10 -2.85 2.30 -3.10 2.65 -0.30 0.35 -1.75 1.25 -3.20 2 -1.50 0.75 -3.90 2.15 -5.35 3.10 -2 1.35 -4.30 2.15 -9.45 3.45 -8.05 2 -11.75 3.70 -21.55 10.10 -1.75 1.10 -5 2.10 -6.95 2.05 -0.55 0 0.60 -0.60 2.50 -1.40z"/>
  <path d="M355.25 199 c-3.15 -0.35 -9.10 -1.55 -13.75 -2.80 -1.50 -0.40 -4.30 -0.95 -6.20 -1.20 -4 -0.50 -4.55 -0.80 -2.20 -1.25 1.10 -0.20 4.30 0.25 9.15 1.30 5.75 1.20 9.20 1.65 14.80 1.80 8.65 0.30 13.65 -0.55 24.15 -4.15 3.55 -1.20 6.55 -2.10 6.70 -2 0.40 0.45 -4.60 3.30 -6.65 3.85 -1.10 0.30 -3.55 1.10 -5.50 1.70 -8.30 2.80 -13.85 3.55 -20.50 2.75z"/>
  <path d="M351.65 195.50 c-3.55 -0.50 -13.30 -2.50 -13.60 -2.80 -1.05 -1 4.40 -1 9.20 0.05 6.20 1.35 15.95 1.15 23.50 -0.40 7 -1.50 16.05 -4.60 20.60 -7.10 1.75 -0.95 3.30 -1.75 3.45 -1.75 0.50 0 -1.25 2.80 -2.40 3.80 -1.20 1.10 -11.90 4.70 -20.65 7 -5.55 1.45 -14.55 1.95 -20.10 1.20z"/>
  <path d="M308.60 193.20 c3.40 -2.95 6.35 -4.85 12.90 -8.35 5.60 -3 8.75 -4.15 15.50 -5.90 3.65 -0.90 6.45 -1.10 20.25 -1.45 9.45 -0.25 16.80 -0.65 18 -1 2.50 -0.75 6.05 -3.05 10.60 -6.85 2.05 -1.75 5.85 -4.15 8.85 -5.65 3.65 -1.85 6.50 -3.80 9.40 -6.30 5.90 -5.20 11.25 -7.65 12.05 -5.50 0.20 0.55 -0.10 0.70 -1.05 0.70 -2 -0.05 -3.85 1.05 -8.75 5.25 -2.40 2.05 -6.25 4.70 -8.50 5.90 -5.45 2.80 -8.80 5 -13.55 9.05 -3.20 2.75 -4.70 3.60 -7.75 4.60 -3.45 1.15 -4.60 1.25 -12.30 1.25 -5.40 -0.05 -10.40 0.25 -13.60 0.75 -2.85 0.45 -6.70 0.80 -8.55 0.80 -7.75 0 -16 3.30 -30.75 12.30 -2.45 1.50 -4.65 2.70 -4.95 2.70 -0.25 0 0.70 -1.05 2.20 -2.30z"/>
  <path d="M349.40 192.05 c-4.30 -0.65 -3.15 -1.05 3.15 -1.05 8.40 0 17.40 -0.85 22.20 -2.05 4.60 -1.20 14.35 -5.85 18 -8.65 2.40 -1.85 2.50 -1.90 2.65 -0.85 0.40 2.60 -2.95 4.80 -12.70 8.35 -8.70 3.15 -14.45 4.25 -23.20 4.45 -4.25 0.10 -8.80 0 -10.10 -0.20z"/>
  <path d="M407.65 192 c-0.55 -0.25 -1.45 -1 -2 -1.75 -2.15 -3.15 -4.65 -5.80 -4.65 -5 0 0.45 0.45 1.50 1.05 2.35 0.60 0.80 0.95 1.60 0.80 1.70 -0.15 0.15 -1.35 -0.20 -2.60 -0.75 -1.30 -0.60 -2.65 -1.05 -2.95 -1.05 -1.70 -0.05 -1.85 -0.80 -0.85 -3.55 0.60 -1.50 1.05 -3.10 1.05 -3.55 0 -0.55 0.40 -0.90 1 -0.90 1.40 0 1.25 -0.95 -0.20 -1.50 -1.80 -0.65 -2.80 -2.55 -3.15 -5.60 -0.30 -3.15 0.50 -4.40 2.30 -3.40 0.60 0.30 1.05 0.70 1.05 0.90 0 0.20 0.80 0.80 1.75 1.30 2.25 1.25 3.55 0.70 8.35 -3.50 4.55 -3.95 9.50 -6.55 11.10 -5.80 0.55 0.30 1.45 0.65 1.95 0.80 0.95 0.30 2.35 3.15 2.35 4.80 0 0.55 -0.55 2.55 -1.20 4.45 -0.65 1.90 -1.35 4.95 -1.55 6.75 -0.45 4.05 -2 6.55 -6.45 10.50 -3.30 2.85 -5.20 3.65 -7.15 2.80z"/>
  <path d="M393.25 178 c0.50 -0.55 1 -0.90 1.15 -0.75 0.35 0.30 -0.90 1.75 -1.55 1.75 -0.25 0 -0.10 -0.45 0.40 -1z"/>
  <path d="M326.40 176.50 c0.60 -0.50 2.40 -1.30 4 -1.80 3.65 -1.05 12.75 -2.65 15.35 -2.70 2.35 0 9.45 -1.65 13.10 -3 3.75 -1.40 5.75 -2.80 11.40 -7.95 2.75 -2.55 5.95 -5.30 7.15 -6.10 4.50 -3.20 14.05 -6.90 21.60 -8.35 4.55 -0.90 9 -1.25 9 -0.70 0 0.25 -1.05 0.60 -2.35 0.75 -5.40 0.65 -14.10 3.05 -21.10 5.80 -3.85 1.55 -9.40 5.55 -15.15 10.90 -2.75 2.55 -5.80 5.10 -6.80 5.60 -4.55 2.30 -9.80 3.50 -20.40 4.50 -5.70 0.55 -11.90 1.90 -14.30 3.10 -2.35 1.20 -2.95 1.20 -1.50 -0.05z"/>
  <path d="M359.50 172.05 c0 -0.65 1.95 -0.95 7.75 -1.20 5.70 -0.30 7.50 -1.05 13.90 -5.75 2.80 -2.05 6.30 -4.25 7.70 -4.90 2.60 -1.15 5.35 -2.95 10.65 -6.90 5.95 -4.50 8.45 -5.85 10.65 -5.75 0.75 0 0.30 0.40 -1.40 1.15 -1.40 0.65 -4 2.45 -5.75 4.05 -3.85 3.40 -7.60 5.90 -11.85 7.80 -1.70 0.75 -5.10 3 -7.50 4.95 -2.45 1.95 -5.85 4.25 -7.65 5.15 -3.05 1.50 -3.55 1.60 -9.85 1.75 -4.45 0.15 -6.65 0 -6.65 -0.35z"/>
  <path d="M483.20 170.05 c-1.45 -0.85 -1.55 -1.15 -1.25 -2.65 0.25 -1.10 0.05 -2.85 -0.60 -5.15 -0.70 -2.65 -0.85 -4.30 -0.60 -6.75 0.35 -3.95 1 -4.80 1.40 -1.95 0.25 1.85 0.95 2.90 1.90 2.95 0.15 0 0.45 -1.35 0.60 -3.05 0.25 -3.05 2.90 -9.45 3.90 -9.45 0.70 0 0.55 0.70 -0.60 3.60 -0.80 2.05 -1.10 4.05 -1.25 9 -0.10 3.50 0 6.45 0.25 6.60 0.40 0.25 1.05 -5.85 1.05 -10.30 0 -1.35 0.20 -2.40 0.45 -2.40 0.70 0 3.20 10.80 2.85 12.30 -0.50 2 -4.85 8.20 -5.75 8.20 -0.45 0 -1.50 -0.45 -2.35 -0.95z"/>
  <path d="M400.80 170.10 c1.60 -1.45 15.95 -10.65 16.95 -10.90 1.60 -0.40 2.75 0.05 2.75 1.05 0 0.85 -0.80 1 -1.25 0.30 -0.35 -0.65 -3.50 0.45 -6.05 2.10 -1.10 0.65 -3.85 2.70 -6.10 4.55 -2.75 2.15 -4.65 3.30 -5.50 3.30 -0.75 0 -1.10 -0.20 -0.80 -0.40z"/>
  <path d="M365.75 168.35 c1.10 -0.90 3.80 -3.30 6 -5.35 6.55 -6.10 11.40 -9.10 18.75 -11.40 7.70 -2.45 11.85 -3.30 10 -2.10 -0.40 0.25 -3.80 1.50 -7.55 2.75 -7.85 2.65 -12.65 5.30 -18.15 10.15 -5.55 4.80 -9.30 7.60 -10.25 7.60 -0.50 -0.05 -0.10 -0.60 1.20 -1.65z"/>
  <path d="M368.75 168.85 c0.55 -0.45 1.40 -0.85 1.90 -0.85 1.60 0 5.60 -2.30 9.70 -5.45 6 -4.65 18.75 -12.15 19.45 -11.45 0.35 0.35 -6.20 4.85 -11.15 7.65 -2.80 1.60 -6.70 4.10 -8.70 5.60 -4.55 3.45 -6.85 4.60 -9.80 4.95 -2.25 0.30 -2.35 0.25 -1.40 -0.45z"/>
  <path d="M399.50 168.55 c0 -0.25 2.20 -1.85 4.90 -3.55 2.65 -1.65 6.60 -4.30 8.80 -5.80 3.70 -2.55 5.40 -3.20 6 -2.25 0.15 0.20 -0.65 0.65 -1.70 1 -1.75 0.50 -8.15 4.60 -14.85 9.50 -2.15 1.55 -3.15 1.90 -3.15 1.10z"/>
  <path d="M374.80 163.90 c1.55 -1.45 3.65 -3.25 4.65 -3.95 2.90 -2.15 8.45 -5.05 9.30 -4.85 0.55 0.10 0.15 0.50 -1.10 1.15 -1.05 0.55 -3.75 2.35 -6.05 4 -9.65 7 -11.65 8.05 -6.80 3.65z"/>
  <path d="M424.75 164.50 c-0.20 -0.70 -0.65 -1.60 -1 -2 -0.90 -1 -1.85 -3.50 -1.35 -3.50 0.60 0 3.20 5.40 2.95 6.15 -0.10 0.30 -0.35 0.05 -0.60 -0.65z"/>
  <path d="M422.70 158.40 c-1.10 -0.50 -3 -3.30 -2.55 -3.75 0.55 -0.50 2.30 0.40 3.10 1.65 1.10 1.70 0.85 2.70 -0.55 2.10z"/>
  <path d="M420.25 153.65 c-0.85 -0.15 -1.90 -0.75 -2.40 -1.45 -0.90 -1.15 -0.85 -1.20 0.15 -1.20 1.40 0 3.80 1.30 4.15 2.25 0.20 0.40 0.15 0.70 -0.05 0.65 -0.20 0 -1 -0.15 -1.85 -0.25z"/>
  <path d="M417.60 150.15 c-1.10 -0.20 -2 -1.40 -1.45 -1.95 0.20 -0.25 3.85 1.70 3.85 2.10 0 0.20 -0.65 0.20 -2.40 -0.15z"/>
  <path d="M412.70 146.20 c-0.90 -0.75 -0.90 -0.75 0.55 -0.45 1.85 0.40 2.85 1.25 1.45 1.25 -0.55 0 -1.45 -0.35 -2 -0.80z"/>
 </g>
</svg>