<?xml version="1.0" encoding="UTF-8" standalone="no"?>
<!-- Created with Inkscape (http://www.inkscape.org/) -->

<svg
   version="1.1"
   id="svg1596"
   width="1298"
   height="777"
   viewBox="0 0 1298 777"
   sodipodi:docname="container_ship_stripped.svg"
   inkscape:version="1.1.1 (c3084ef, 2021-09-22)"
   xmlns:inkscape="http://www.inkscape.org/namespaces/inkscape"
   xmlns:sodipodi="http://sodipodi.sourceforge.net/DTD/sodipodi-0.dtd"
   xmlns="http://www.w3.org/2000/svg"
   xmlns:svg="http://www.w3.org/2000/svg">
  <defs
     id="defs1600" />
  <sodipodi:namedview
     id="namedview1598"
     pagecolor="#ffffff"
     bordercolor="#666666"
     borderopacity="1.0"
     inkscape:pageshadow="2"
     inkscape:pageopacity="0.0"
     inkscape:pagecheckerboard="0"
     showgrid="false"
     inkscape:zoom="2.4775977"
     inkscape:cx="392.71913"
     inkscape:cy="318.85726"
     inkscape:window-width="3360"
     inkscape:window-height="1776"
     inkscape:window-x="0"
     inkscape:window-y="25"
     inkscape:window-maximized="0"
     inkscape:current-layer="g1602" />
  <g
     inkscape:groupmode="layer"
     inkscape:label="Image"
     id="g1602">
    <path
       style="fill:none;stroke:#323232"
       d="m 220,212 c -4.262,-1.992 -8.094,-2.608 -10.545,-6.519 -2.21,-3.527 -1.454,-8.226 -1.455,-12.481 -0.002,-9.314 -0.04,-18.687 0.002,-28 0.02,-4.521 -0.095,-8.874 3.416,-12.147 6.475,-6.039 17.502,-9.657 25.582,-13.299 9.878,-4.453 19.421,-9.515 29,-14.304 8.11,-4.055 15.826,-7.807 24,-12.024 5.098,-2.63 9.817,-5.364 15,-7.973 4.677,-2.355 9.321,-4.67 14,-7.0025 5.138,-2.5614 9.389,-4.764 15,-5.0366 7.533,-0.3661 14.786,2.6632 22,4.6117 6.794,1.835 13.26,3.3484 20,5.0514 5.686,1.437 11.256,2.842 17,4.31 4.523,1.155 10.881,1.8 13.545,6.163 4.411,7.225 1.357,21.632 1.455,29.65 6.855,-0.95 12.338,-3.731 20,-6.772 11.722,-4.651 23.202,-9.678 35,-14.162 50.814,-19.312 101.114,-41.3939 151,-62.7805 5.6,-2.401 11.842,-6.1141 18,-6.7664 6.169,-0.6535 13.107,1.8142 19,3.4313 4.43,1.2159 8.883,1.8072 12.895,3.6525 4.85,2.23 4.248,4.9166 1.105,8.3971 m -50,20 50.644,68 11.978,15.726 7.25,10.334 1.122,19.94 -2.003,9.74 L 674,218.525 656,226 M 615,89 c -1.098,5.5954 0.821,10.456 2.667,16 3.033,9.109 6.148,17.976 9.26,27 1.279,3.709 2.343,7.316 3.719,11 1.973,5.281 4.376,13.373 8.116,17.267 2.322,2.418 5.067,3.524 8.24,4.692 8.989,3.307 22.492,8.514 29.998,7.041 m -79,27 c -4.247,-3.974 -14.391,-4.548 -20,-5.475 -2.401,-0.397 -4.569,-0.808 -7,-1.176 -4.276,-0.647 -8.874,-1.003 -10.992,-5.591 -4.424,-9.586 -2.546,-24.124 -3.118,-34.758 -0.235,-4.372 -1.624,-9.643 0.569,-13.658 2.233,-4.088 6.149,-7.017 9.542,-10.309 9.789,-9.499 21.157,-19.666 30.999,-29.0103 5.435,-5.16 8.958,-7.4522 14,-9.0227 m -11,5 c -0.818,-2.4532 -1.791,-1.0696 1,-2 m -269,1 v 5.1044 c 0.006,11.34517 0.008,23.63484 0,33.8956 -0.003,3.595 0.603,8.494 -1.455,11.33 -3.34,4.601 -11.219,1.83 -16.545,1.231 -12.593,-1.414 -29.182,-4.658 -40,-1.561 1.55,6.915 1,15.152 1,24 0,16.216 -1.061,32.857 0.554,49 1.481,14.801 -0.554,30.111 -0.554,45 0,18.502 1.849,37.61 0.89,56 -0.379,7.266 -1.209,13.158 -0.641,20 0.4,4.818 0.884,9.794 0.685,15 -0.922,24.106 -2.421,48.871 -0.763,73 0.464,6.757 0.967,14.34 0.792,21 -0.09,3.449 -0.587,6.421 -0.773,10 -0.204,3.903 0.375,7.154 0.639,11 0.431,6.269 0.171,12.692 0.171,19 0,4.926 1.097,10.461 -1.455,14.692 -1.48,2.452 -4.416,4.115 -7.314,3.461 -6.565,-1.483 -4.233,-11.384 -4.233,-16.153 0,-3.808 -0.106,-7.279 -0.106,-11 0,-4.1 0.118,-7.761 0.103,-12 -0.012,-3.064 -0.103,-5.942 -0.103,-9 0,-6.522 0.108,-13.238 0.108,-20 V 283 c -0.005,-11.287 -0.712,-22.78 0.342,-34 0.447,-4.749 0.924,-9.466 0.454,-13.987 -0.593,-5.704 -3.865,-9.403 -5.796,-13.013 3.298,-2.855 4.716,-5.142 4.952,-11.002 0.228,-5.654 -0.06,-10.572 -0.06,-15.996 0,-3.335 0.094,-6.8 0.108,-10.002 m 295,-49 c 9.401,5.731 18.662,7.585 30,11.331 9.15,3.023 18.672,5.409 28,8.351 8.327,2.625 13.725,4.322 19,5.318 m -99,-19 c 8.704,1.03 11.853,-2.818 19,-4 m -148,5 c -4.996,3.459 -11.368,6.253 -18,8.4 -2.666,0.863 -5.253,1.412 -8,2.421 -4.218,1.549 -7.642,3.338 -12,4.985 -14.359,5.424 -28.725,10.163 -43,15.536 -8.772,3.302 -18.126,6.944 -27,10.658 m 235,-40 3,-1 m -205,2 c 8.921,4.165 38.098,4.22 47,8 m 57,7 c 1.364,6.088 1,12.15 1,20 0,10.711 -0.816,21.326 -0.98,32 -0.719,46.645 2.168,93.339 0.943,140 -0.377,14.345 -0.963,28.615 -0.963,43 0,4.002 -1.573,12.691 1.455,15.801 2.417,2.483 7.742,0.258 10.545,-0.417 4.753,-1.145 9.447,-2.203 14,-3.251 5.092,-1.172 9.674,-2.389 15,-3.574 8.716,-1.938 18.451,-5.072 27,-6.135 18.52,-2.301 38.958,1.601 58,1.575 4.044,-0.006 7.18,-0.198 11,0.064 3.492,0.24 6.528,0.797 10,0.898 6.13,0.177 16.651,1.757 21.582,-1.416 4.562,-2.936 3.414,-8.912 3.418,-13.545 0.005,-7.766 -0.15,-15.324 -0.104,-23 0.037,-6.038 0.154,-11.883 0.095,-18 -0.04,-4.094 1.264,-14.671 -3.656,-16.779 -3.331,-1.427 -7.205,0.825 -10.335,1.966 -4.626,1.687 -8.563,3.02 -12.994,4.824 -3.313,1.349 -7.047,2.645 -8.338,6.274 -2.109,5.929 0.148,11.101 0.295,16.715 0.167,6.368 0.145,10.291 0.145,16 0,2.533 -0.068,4.673 -0.09,7 -0.074,7.596 -0.018,13.362 -0.018,18 m -128.457,90.4 c -1.863,2.744 -5.542,3.276 -8.543,3.466 -3.722,0.235 -6.806,-0.24 -10,-0.866 1.237,-7.372 0.96,-16.843 1.005,-27 0.013,-2.781 0.082,-5.201 0.099,-8 0.019,-3.152 -0.073,-5.956 -0.094,-9 -0.03,-4.426 0,-9.511 -0.011,-14 -0.017,-6.255 -0.714,-10.901 -0.999,-17 -6.124,0.636 -15.984,3.02 -23,4 l -10e-4,-20 1.964,-60 L 406,239 v -32 l -0.067,-14 -4.41,-10.051 L 392,178 c 5.174,-5.123 11.65,-7.141 22,-10 m -11,14 c 3.134,-1.048 7.584,-2.417 10.991,1.035 2.413,2.443 1.989,5.929 2.007,9.965 0.038,8.599 0.466,17.428 -0.34,26 -2.138,22.739 -0.658,46.164 -0.658,69 0,25.218 -1.333,50.87 0.751,76 0.914,11.022 -0.749,21.983 -0.751,33 -10e-4,7.758 0,14.243 0,20 M 899,184 c 0,7.13 -0.294,12.244 0.171,19 0.399,5.802 0.752,7.372 0.829,12 4.406,-0.516 6.475,-1.027 11,-2 m 208,33 -9,3 c 1.26,5.836 0.14,9.67 0.02,17 -0.21,12.637 0.16,25.351 -0.03,37.991 -0.07,4.712 -1.67,9.923 -1.87,14.033 -0.18,3.821 0.88,21.678 0.88,29.976 0,2.86 -0.34,7.171 0.56,9.808 1.85,5.376 7.16,5.021 13.44,5.801 3.87,0.481 7.12,0.144 11,0.509 3.95,0.371 7.17,1.244 11,1.657 5.96,0.642 13.81,1.257 20,1.227 5.9,-0.029 7.95,-0.737 13,-0.631 2.8,0.059 5.97,1.057 7.99,-0.645 3.37,-2.837 1.7,-7.995 1.35,-11.726 -0.65,-7.027 -0.34,-13.659 -0.34,-21 0,-25.303 1,-50.649 1,-76 0,-10.659 -2.64,-22.317 1.01,-29.543 2.48,-4.904 14.75,-6.461 20.99,-8.179 3.84,-1.057 8.02,-2.294 12,-3.139 2.81,-0.598 5.01,-0.71 7.89,-1.555 2.65,-0.777 4.57,-1.859 7.28,-2.405 2.84,-0.573 4.87,-0.464 7.76,-1.289 3.23,-0.919 5.36,-2.323 8.24,-3.543 4.9,-2.077 9.77,-3.256 14.83,-5.347 -5.58,-7.883 -16.09,-4.673 -28,-1.614 -17.3,4.443 -35.18,12.096 -52,12.614 1.04,-12.653 -4.69,-14.348 -16,-17.366 -3.47,-0.927 -8.87,-3.53 -11.54,-0.55 -3.59,4.014 2.06,12.926 -3.13,16.393 -4.41,2.942 -11.23,-0.687 -16.31,-1.07 -5.741,-0.37849 -8.7605,3.85721 -9.52,13.593 l -0.5,10 v 10 4 3 c 0,27.013 -1,54.038 -1,81 v 31 m 29,-169 c -6.59,0.782 -15.35,3.777 -23,6.334 -6.47,2.162 -12.57,4.488 -19,6.664 -3.57,1.207 -8.35,2.185 -10.54,5.537 -1.94,2.961 -1.45,7.068 -1.46,10.465 v 6 l -1,8 26,-5 M 599,198 c 7.347,0.532 13.856,2.016 21,3.291 3.699,0.66 7.195,1.174 11,1.601 9.405,1.055 17.924,2.431 27,3.906 9.808,1.594 17.023,2.83 25,5.202 m 228,-9 1,9 m 10,-4 c 0.023,5.219 0.003,8.355 0.003,14 -0.001,3.121 -0.68,7.518 1.452,9.953 1.619,1.849 4.315,1.507 6.545,1.006 4.041,-0.906 7.902,-3.069 7.616,-7.934 C 937.192,217.815 929.369,215.476 924,212 m -37,-2 v 8 c 4.725,-0.516 7.059,-1.028 12,-2 m 13,-4 c 3.893,-0.515 5.186,-0.855 9,-2 m -808,72 c 0,-15.444 0.24,-31.325 -0.829,-47 -0.411,-6.022 -1.245,-15.638 3.487,-19.935 6.027,-5.474 13.444,-2.754 20.342,-1.878 13.693,1.737 28.039,4.69 42,4.813 m -48.985,213.884 c 3.937,0.127 6.938,-0.545 10.985,-0.298 6.449,0.393 13.266,0.609 20,0.348 4.257,-0.165 7.574,-0.781 12,-0.897 8.345,-0.219 13.378,-0.037 21,-0.037 4.67,0 13.746,1.28 15.881,-2.838 1.986,-3.832 0.132,-9.685 0.12,-14.162 L 209,378 c 0,-42.756 0.708,-85.254 0,-128 m 87,-37 -1,25 v 48 l 0.981,48 -1.981,51 1.002,50 0.106,10 -0.108,12 0.093,12 -0.093,14 0.745,15.582 7.27,3.264 8.985,-0.84 9,-0.179 M 373,463 c -5.067,-1.135 -10.488,-1.042 -21,-0.997 -4.325,0.019 -9.757,-1.036 -12.545,2.145 -1.659,1.893 -1.426,5.455 -1.449,7.855 M 1160,213 c 6.05,2.099 7.56,3.245 15,3.776 6.09,0.435 7.9,-0.714 13,-3.776 m -15,4 c -2.77,1.846 -5.46,3.548 -10,4.414 -2.77,0.528 -5.68,0.439 -9,1.429 -2.82,0.84 -4.46,1.702 -6.93,2.843 -6.37,2.944 -6.04,8.922 -5.07,13.314 10.59,-3.978 27.29,-9.453 37,-10 0,5.83 1.06,18.477 0.99,26 -0.05,5.376 -0.96,9.369 -0.89,15 0.06,4.75 0.86,8.395 0.86,13 0,4.844 -0.79,8.934 -0.92,14 -0.6,22.544 -0.04,45.424 -0.04,68 M 922,233 c -9.377,5.346 -22.925,6.541 -35,8.48 -8.304,1.333 -11.169,2.98 -19,2.52 0.5,-5.936 -1.635,-14.625 2.455,-20.171 3.943,-5.346 11.236,-4.183 15.545,-4.829 m -624,2 v 6 m -20,-1 17,-4 m 920,7 c 3.2,-1.685 4.78,-2.365 9,-3 m -250,4 c 7.488,0.03 10.564,-2.202 18,-1.564 3.941,0.338 7.017,1.3 10.999,2.395 7.047,1.939 12.109,4.201 9.001,12.169 -8.627,-3.636 -13.489,-3.482 -20,-6 -0.121,2.15 -0.092,4.602 -0.078,8.011 0.011,2.617 -1.087,7.309 1.855,8.805 5.093,2.591 12.037,-1.338 17.223,-2.237 8.724,-1.511 15.713,-0.819 24,0.984 3.59,0.782 9.17,1.175 11.54,4.327 2.94,3.891 1.69,12.387 1.39,17.1 -0.17,2.629 -0.55,5.758 -3.35,6.997 -2.36,1.048 -5.06,0.341 -7.58,-0.081 -5.823,-0.972 -10.571,-2.324 -15,-4.906 -5.621,5.334 -13.739,11.098 -19.963,16.507 -4.218,3.667 -7.799,6.341 -10.729,11.603 -3.09,5.55 -2.307,10.901 -2.308,17.89 -0.003,18.094 1,35.908 1,54 0,5.88 -0.024,12.173 0.002,18 0.013,2.795 -0.322,6.001 1.007,8.582 1.562,3.034 4.88,3.271 7.997,3.384 5.912,0.215 15.431,1.925 20.576,-0.763 3.084,-1.612 3.275,-5.192 3.384,-8.206 0.2,-5.53 0.034,-11.424 0.034,-16.997 v -52 -24 c -9.045,-0.017 -19.408,-0.591 -27,-4 m -4,-71 v 8 m 341,151 c -4.86,0 -10.21,0.089 -15,-0.037 -3.06,-0.08 -5.84,-0.452 -9,-0.714 -2.79,-0.232 -5.22,-0.24 -8,-0.248 -4.41,-0.011 -9.53,0.019 -14,-0.005 -4.19,-0.022 -8.04,-0.419 -12,-0.747 -3.46,-0.287 -6.37,-0.247 -10,-0.249 -6.26,-0.003 -13.81,0 -20,0 -2.71,0 -5.23,0.003 -8,0 -5.27,-0.007 -10.41,-0.592 -16,-0.89 -6.75,-0.36 -14.33,-0.11 -21,-0.11 -2.91,0 -5.17,-0.004 -8,10e-4 -6.93,0.011 -7.65,-0.249 -13,1.999 2.06,4.895 5.08,19.415 -0.66,23.428 -5.4,3.782 -18.78,0.675 -25.34,0.018 -15.27,-1.527 -30.72,-0.567 -46,-1.617 -9.76,-0.67 -17.46,-0.829 -24,-0.829 0,-5.181 0.92,-15.334 1,-22.999 0.04,-3.87 -0.63,-7.798 2.65,-10.124 6.56,-4.644 7.34,-5.581 7.35,-14.877 0,-3.558 -0.04,-6.539 0.25,-10 0.38,-4.569 0.74,-9.123 0.75,-14 0.02,-19.04 1.46,-37.992 1.96,-57 0.17,-6.24 -0.17,-12.177 0.38,-18 0.41,-4.294 0.65,-7.436 0.66,-12 0.01,-4.193 -1.49,-11.292 0.91,-15.324 1.67,-2.83 4.86,-2.315 8.09,-1.935 5.04,0.593 9.97,1.411 15,2.259 h 2 l 16,3 M 137,430 V 419.998 L 137.11,402 137.98,390 137.249,376 137,319 v -13 l 0.066,-16 0.885,-10 0.078,-10 -0.027,-12 0.076,-7 0.174,-11.863 4.885,-4.637 L 160,236.081 174,234 m -13,4 c -5.218,3.799 -12.694,7.903 -22,10 m 992,-9 c -2.7,3.725 -6.79,5.185 -12,7 m -887,-6 c -1.808,8.068 -0.25,15.873 -0.037,24 0.358,13.649 0.037,27.346 0.037,41 v 99 c 0,16.452 1.206,34.799 0.98,51 -0.052,3.683 -0.438,6.468 -0.731,10 -0.297,3.576 -0.247,6.509 -0.249,10 -0.002,4.049 -0.001,7.816 0,12 0.002,8.52 1.259,16.294 0,24 6.773,-0.201 8.913,-1.136 16,-2.482 7.38,-1.401 9.647,-0.733 16,-3.518 m 877,-265 -1,10 m -58,-6 c -3.04,1.639 -11.25,2.204 -12.46,8.227 -0.44,2.165 -0.06,4.188 -0.13,6.774 -0.11,3.9 -0.4,6.819 -0.41,10.999 -0.04,14.287 0,30.752 -1.34,45 -0.44,4.695 -0.57,9.258 -0.7,14 -0.29,10.864 -2.23,22.142 -1.59,33 0.2,3.365 -0.32,7.583 0.88,10.696 1.81,4.673 9.36,6.335 14.61,5.618 M 976,243 v 7 m 106,-6 c 4.19,-0.121 7.24,-0.594 13,-1 l 3,-2 7,-3 M 223.929,438.034 223.907,461 l -0.095,27 -0.812,25 8,-1 m 872,-262 4,-1 c -10.93,3.325 -24.4,7.784 -36,9 m 36,-9 h 3 m -123,2 v 24 m 153,-23 c 0,26.368 -1,52.664 -1,79 v 33 m -84,-100 c -5.35,1.171 -12.74,5.14 -17.64,3.613 -2.94,-0.917 -3.27,-4.514 -1.35,-6.818 1.95,-2.346 5.13,-3.013 7.99,-3.795 l 3,-2 9,-1 m -47,30 c -7.09,6.379 -15.862,13.964 -22,20 M 112,287 c 1.935,8.636 0.924,23.028 0.171,34 -1.769,25.746 -0.171,52.18 -0.171,78 0,8.211 -2.771,22.306 1.007,29.569 1.894,3.641 5.19,2.453 7.993,1.431 M 609,327 c 10.729,0.501 24.158,2.699 37,4.536 21.869,3.128 43.999,5.375 66,7.905 10.951,1.259 23.289,2.399 33.965,4.629 9.428,1.97 2.895,9.33 10.286,12.93 5.669,2.762 17.061,2.31 23.748,2.835 2.924,0.23 6.732,-0.086 8.992,2.174 2.26,2.26 1.974,6.029 2.003,8.992 0.068,6.95 0.006,16.338 0.006,22.999 v 8 9 18 12 15 c -1.09422,28.53278 10.20624,29.68042 -42,25 h -11 c -4.64,0 -9.115,-0.117 -14,0.342 -19.656,1.848 -40.244,2.102 -60,2.621 -5.295,0.139 -9.383,-0.099 -14,0.147 m 0,0 c -2.928,0.156 -5.29,0.533 -8,0.719 -3.657,0.252 -8.201,0.171 -12,0.171 -6.299,0 -10.975,-0.081 -17,0.019 -4.563,0.076 -7.702,0.623 -12,0.875 -2.77,0.162 -5.236,0.187 -8,0.448 -2.769,0.262 -5.134,0.543 -8,0.622 -2.804,0.076 -5.112,0.008 -8,0.207 -3.185,0.219 -5.92,0.644 -9,0.763 -7.154,0.277 -11.818,-0.095 -17,1.066 M 429,456 c 5.743,-0.269 17.777,-1.851 27,-3.22 2.795,-0.414 5.19,-0.969 8,-1.391 4.873,-0.73 10.591,-1.572 16,-2.381 5.104,-0.765 11.047,-1.68 16,-2.562 3.115,-0.554 5.72,-1.029 9,-1.271 4.846,-0.359 9.571,-0.175 15,-0.175 28.028,0 55.93,-1 84,-1 h 45 c 1.348,-10.138 0,-21.359 0,-34 0,-3.078 0.044,-5.924 -0.037,-9 -0.073,-2.783 -0.366,-5.292 -0.621,-8 -0.482,-5.129 -0.34,-10.793 -0.342,-16 -0.005,-9.707 -0.988,-18.009 -4,-24.5 -10.634,3.502 -24.871,8.136 -35,10.5 m 93,-9 c 10.33,0.729 20.657,1.457 31,2 7.786,0.409 13.088,1.48 19,-1 m -177,19 c 8.83,-1.974 23.258,-7.353 33,-10 m 548,4 -0.83,15 -0.17,8 -1.45,9.582 L 1146,404 m 43,-36 14,1.121 9,0.631 27,1.343 18,0.743 16,1.248 9,0.266 15,0.648 m -96,-4 v 15 7 8 l 0.01,7.999 1,7.546 8.99,2.531 19.99,-1.785 7.55,-3.05 1.43,-6.252 L 1240,400 v -7 -8 -13 m -220.97,35.794 c -4.15,-0.386 -6.39,-2.085 -6.89,-6.846 -0.33,-3.119 -0.22,-5.885 -0.11,-8.946 0.1,-2.636 0.26,-5.284 1.98,-7.411 3.45,-4.271 11,-4.934 15.99,-6.313 7.69,-2.125 11.84,-4.06 18,-2.278 m 226,-2 c 0,4.964 0.57,12.257 -0.14,18.966 -0.26,2.557 -0.87,4.734 -3.28,6.091 -5.89,3.328 -14.7,1.943 -21.58,1.943 -3.42,0 -6.58,-10e-4 -10,0 -2.8,10e-4 -5.22,-0.041 -8,0.066 -5.7,0.221 -12.19,0.931 -18,0.934 -4.5,0.002 -8.81,0.038 -13,0.095 -2.8,0.038 -5.22,-0.013 -8,0.183 -12.37,0.872 -28.61,0.984 -38,0.722 m -48,-22 c 10.54,4.925 24.47,3.69 37,6 m -638,12 v 37 8 16 c 0,5.226 -0.087,10.816 0.015,15.994 0.047,2.394 -0.15,5.101 1.44,6.993 2.722,3.238 12.263,1.171 16.545,0.773 5.305,-0.492 9.902,-1.598 15,-0.772 5.764,0.934 8.444,4.078 13,6.012 m 58,-89 c 7.301,1.432 21.496,1 31,1 3.414,0 6.411,-0.015 10,0.004 26.193,0.137 55.801,0.996 83,0.996 h 33 c 5.035,0 11.123,-0.005 16,0 2.653,0.004 4.474,-0.025 7,0.11 3.841,0.205 6.596,0.694 10,0.824 5.55,0.212 10.037,-0.157 14,-0.934 m 460,-2 c 7.19,0.2 14.1,0 24,0 m -23,1 c -0.19,3.017 -1.44,7.421 1.08,9.926 4.13,4.125 16.18,0.837 21.92,0.074 m -142,-7 c 0,5.318 0.4,9.865 -1,17 10.08,2.258 36.5,-0.465 46,-3 m -276,-12 0.972,14 -0.971,19 -10e-4,11 -2.009,18.37 -8.992,3.51 -23.999,2.36 -13,1.418 -8,0.606 -12,1.793 -16,1.833 -9,0.129 M 987,406 c 7.825,1.535 17.64,1.181 24,1 m 19,1 c 5.27,0 11.28,-1.705 14.99,2.009 2.85,2.852 2.04,8.008 2,11.991 -0.05,5.458 -0.92,9.555 -0.79,15 0.08,3.444 0.47,5.772 0.55,8.994 0.07,2.675 -0.78,6.384 1.98,7.96 4.59,2.612 16.84,-0.883 22.27,-1.718 17.28,-2.657 34.72,-5.513 52,-8.314 6.96,-1.128 14.53,-0.226 19.1,-5.477 2.29,-2.625 2.54,-5.369 2.79,-8.446 0.43,-5.143 0.12,-14.303 0.11,-17.999 m -834,88 v -8.013 c 0,-4.348 0.004,-7.041 0,-11.987 -0.005,-5.215 -0.109,-8.31 -0.55,-13 -0.354,-3.766 -0.441,-7.115 -0.449,-11 -0.011,-5.316 -1.299,-9.306 0.9,-13.447 1.56,-2.936 5.268,-3.537 8.103,-4.315 5.259,-1.445 15.606,-2.715 17.987,-7.588 1.719,-3.517 1.047,-7.424 0.978,-11.648 -0.039,-2.406 -0.858,-6.6 1.211,-8.547 2.249,-2.117 5.492,-1.439 8.821,-1.453 3.832,-0.015 7.187,-0.018 10.999,0.34 14.362,1.35 32.235,2.635 44,2.658 m 61,-3 c 0,6.696 1,24.849 1,34 v 9 11 c 0,6.519 -1.904,18.879 2.446,24.084 2.525,3.021 8.108,1.589 11.554,1.259 9.56,-0.917 18.815,-0.816 26,-4.343 M 310,439 c 0,-2.536 -0.008,-4.527 10e-4,-9.005 0.008,-4.24 -0.631,-8.798 2.666,-11.722 3.163,-2.807 8.433,-3.833 12.333,-5.139 5.677,-1.9 8.512,-2.491 12,-3.134 m 936,1 c -7.87,3.674 -24.93,5.375 -33,2 m -812,3 8,-2 m 718,7 -8,2 m -809,11 c 6.67,1.073 9.198,0.999 17,1 7.227,10e-4 14.77,-0.123 22,0.241 3.694,0.186 8.97,1.221 12.425,-0.009 3.508,-1.249 2.444,-4.918 4.158,-7.765 2.367,-3.93 6.528,-4.33 10.417,-5.467 m 894,5 c -6.11,1.642 -12.62,2.577 -19,3.828 -7.06,1.385 -13.91,2.887 -21,4.496 -5.79,1.314 -11,2.344 -17,3.677 -4.39,0.976 -8.6,2.049 -13,2.98 -5.62,1.189 -13.73,0.986 -18.4,4.407 -5.34,3.9 -5.7,14.687 -7.41,20.612 -1.65,5.679 -3.64,10.694 -5.83,16 -3.69,8.946 -8.84,17.378 -21.36,39 l -19.02,26.523 -10.98,6.874 -31,14.485 -30,11.779 -59,19.328 -16,4.863 -141,40.061 -135,37.212 -52,13.49 L 563,726 452,754.37 432,758.888 382,768.094 336,776 M 112,430 c -3.222,1.354 -6.22,1.877 -10.995,2.01 -2.819,0.078 -6.4087,-0.098 -7.9961,2.657 -1.2734,2.21 -0.979,4.878 -1.003,7.335 C 91.956,447.113 92,453.778 92,459 v 14 c 0,8.42 0.4824,15.091 0.7846,23 0.1235,3.231 -0.3232,5.795 -0.532,9 -0.5677,8.713 0.7473,15.521 0.7474,25 v 9 8 c 0,5.391 -0.0224,11.542 0.0021,16.999 0.0158,3.52 -0.4798,8.84 3.4156,10.325 7.5793,2.89 20.5653,-1.476 28.5823,-2.723 21.923,-3.411 44.026,-5.346 66,-8.323 6.639,-0.9 13.379,-1.732 19.998,-2.702 2.566,-0.376 6.113,-0.339 7.617,-2.576 1.822,-2.711 -1.425,-6.782 -2.668,-9.001 -3.404,-6.076 -4.085,-13.635 -9.066,-17.88 -2.988,-2.546 -9.106,-0.967 -12.881,-0.569 -12.932,1.365 -26.051,1.858 -39,3.109 -16.936,1.636 -34.074,3.01 -51,4.581 -4.1465,0.385 -8.0707,0.679 -12,1.107 -3.4784,0.379 -6.3724,0.899 -10,1.311 C 55.5805,543.654 27.1743,543.814 1,549 M 1144,439 c 6.95,1.219 14.09,-0.918 24,-2.584 7.04,-1.184 13.97,-2.503 21,-3.908 4.37,-0.873 13.26,-4.1 16.99,-1.044 3.22,2.635 1.62,8.91 1.01,12.536 M 1,435 c 7.11679,-0.006 9.185,-0.436 17,-0.894 4.534,-0.265 10.3129,-0.858 15,-1.04 5.2112,-0.202 9.0152,-0.066 14,-0.066 13.2142,0 35.7933,-2.55 45,1 m -92,1 h 1 m 391,2 c 0,6.685 3.679,16.285 -1.225,22.244 -1.869,2.271 -5.013,2.742 -7.778,3.15 -3.544,0.523 -6.758,0.577 -9.997,0.606 m 674,-24 h 24 c 16.36,0 32.67,-0.999 49,-1 h 22 m -492,7 c 6.957,-1.559 16.549,-1 27,-1 20.386,0 40.657,-1.022 61,-2.11 10.851,-0.58 23.339,-0.892 34,-0.89 6.162,10e-4 11.496,0.26 18,0.342 5.265,0.067 9.164,0.641 15,0.657 35.627,0.092 71.466,0.006 107,-1.889 4.195,-0.224 7.991,-0.11 12,-0.11 h 10 33 54 25 m -750,5 c 5.584,-1.053 8.37,-2.127 13,-3 m 737,12 c -9.28,4.563 -31,5.659 -42,8 m -755,45 c 0.225,-7.598 -0.024,-11.06 0.005,-18 0.015,-3.455 0.12,-6.554 0.099,-10 -0.078,-12.891 0.366,-19.736 13.896,-22 m 164,35 c -5.41,2.526 -10.824,2.676 -19,3.11 -3.758,0.199 -9.02,1.793 -11.991,-1.128 -2.72,-2.674 -2.199,-8.378 -2.563,-11.982 -0.97,-9.631 -0.446,-14.236 -0.446,-20 8.602,-0.644 24.59,-4.506 35,-5 M 1,474 c 26.3108,-1.228 52.7089,-2.488 79,-3.89 4.2,-0.224 7.9872,-0.042 12,-0.147 24.34892,-1.93623 51.2015,-2.66182 73,-4.134 12.699,-0.872 25.365,-1.009 38,-2.275 9.096,-0.912 13.568,-0.554 20,-0.554 m 157.455,31.314 6.531,1.953 L 394,494 m 53,-3 c 7.101,0.878 12.406,-0.341 18,-2 M 1,511 c 15.4563,-1.09 33.1885,-3.029 49,-3.891 10.261,-0.559 21.89,-1.326 32,-2.109 3.1416,-0.243 5.7924,-0.602 9,-0.831 3.8408,-0.274 6.9478,-0.313 11,-0.723 17.738,-1.797 36.2,-2.43 54,-4.104 10.63,-0.999 21.396,-0.74 32,-1.905 13.599,-1.493 22.197,-1.605 34,-2.437 m 73,6 c -6.665,3.273 -12.354,4.323 -19,2 m 820,12 42,-11 M 0,511 h 1 m 222,2 c -7.351,4.307 -16.412,5.426 -16,16 m 225,-12 c 2.235,-2.594 3.512,-2.547 7,-1 -3.347,1.542 -6.353,2.365 -10.002,2.683 -6.698,0.585 -14.14,4.218 -19.998,1.317 5.046,-2.423 7.548,-4.025 13,-3 m 0,-1 c 5.489,-1.904 6.703,-0.789 9,0 m -76.815,9.347 c 3.695,-1.354 2.577,3.85 0.688,4.35 -3.36,0.889 -2.062,-3.847 -0.688,-4.35 m 664.8194,33.945 62,-18.154 56,-16.846 M 898,612 1012,581.573 1123,550.137 1165,536 M 0,549 h 1 m 220,8 c 6.832,7.167 12.966,14.225 21,20.809 7.985,6.544 17.568,13.597 26,19.619 4.374,3.125 8.537,6.151 13,9.12 8.831,5.874 18.058,11.689 27,17.373 7.241,4.603 11.861,7.304 18,12.079 -9.28,4.573 -17.184,4.921 -28,7.488 -21.182,5.028 -42.681,9.241 -64,14.066 -49.192,11.133 -98.656,21.005 -148,31.465 C 57.636,695.032 29.5935,702.078 1,707 M 93,574 c -8.0205,3.746 -14.8306,3.291 -24,4.616 -21.924,3.168 -45.6288,8.739 -68,9.384 m 243,-9 -16.816,19 -24.63,28 -16.886,18.987 L 179,653 c -2.8,-1.487 -4.846,-3.799 -12,0 4.817,4.359 7.971,3.035 12,1 M 0,588 h 1 m 265,9 c -6.816,5.065 -14.552,9.896 -22,15.154 -11.058,7.806 -21.799,15.379 -33,22.846 -6.728,4.485 -15.31,10.194 -21.987,14.234 -4.477,2.708 -6.064,3.069 -8.013,3.766 m 145,-17 c 15.42,6.535 33.282,22.741 43.731,37 8.785,11.989 10.269,24.001 10.269,38 12.837,-0.004 26.946,-1.382 40,-2.659 3.772,-0.368 7.18,-0.466 11,-0.914 34.583,-4.055 69.872,-10.498 104,-17.618 27.93,-5.826 56.091,-11.489 84,-17.305 4.529,-0.943 8.573,-2.199 13,-3.156 5.314,-1.149 10.558,-2.186 16,-3.33 28.87,-6.064 58.162,-10.331 87,-16.684 35.34,-7.785 70.727,-14.902 106,-23.008 18.367,-4.221 36.637,-9.945 55,-13.326 m -607.829,16.531 c 5.144,-1.401 5.742,8.602 -0.09,9.291 -5.267,0.623 -4.093,-8.153 0.09,-9.291 M 180,656 c -0.294,1.589 0.067,3.807 -2.666,5.999 -5.765,4.622 -9.298,-2.046 -9.334,-4.999 M 36,686 c 1.3827,-2.548 2.7665,-7.794 5.5022,-9.299 3.3879,-1.862 5.258,3.309 5.0088,6.104 C 45.9877,688.674 40.0632,687.562 36,686 M 0,707 h 1 m 378,5 -8,21 m -2,4 c -11.044,15.25 -22.702,25.404 -38,36 m -4,2 3,2 M 112,260 c -5.726,2.354 -9.712,4.606 -16,7.75 -7.8302,3.915 -16.8462,6.361 -23.6922,11.553 C 67.3016,283.1 68.0298,291.047 69,296 l 5.265491,4.2909 c 0,0 6.054252,0 8.072336,-2.01808 C 84.355911,296.25473 113,282 113,282 m 68,-63 c 6.627,1.117 11.098,1.347 16,2 l 23,-9 M 138.44056,272.03772 171,256 187,249.408 214.934,238.965 232,232 l 10,-6 m 21,-31 c -5.173,2.18 -9.551,4.203 -16,7 -11.28779,5.45904 -27,10 -27,10 m 55,-68 -10.203,7.219 -0.804,9.781 0.007,20 v 4 m 33,27 -1.972,-9.006 L 295,187 l 5,-2 m -4,28 c 0,0 74.92384,-27.73989 77,-29 6.966,0.621 11.452,-0.704 16,-4 l 3.31553,-2.40861 M 416,167 430,160.955 445,156 529,122 m 0,0 32,-13.421 L 613.49754,85.566762 665,68 M 559,189 c -6.278,4.165 -11.399,6.467 -19,9.104 C 528.769,202 520.367,205.763 512,210 l -1.066,-12 -0.868,-11 0.668,-26.844 8.271,-7.146 L 532,145.209 542,137.24 593,98 612,90 m -99,120 c 5.989,2.69 12.583,2.472 22,3.724 11.602,1.542 23.302,3.729 35,4.276 l 86,8 m -6,219 c 0,9.22 -0.462,24.091 -0.105,36 M 791.88573,481.58936 831,480.019 M 868,244 c -8.616,4.04 -23.672,5.982 -35,8.446 -4.727,1.028 -10.408,1.743 -14.771,3.562 -4.51,1.88 -6.161,8.691 -0.868,9.989 L 956,237 m -3,168 c -9.167,1.371 -18.334,0.108 -29,0.108 -6.572,-10e-4 -13.216,-0.779 -20,-1.042 -19.247,-0.745 -38.822,1.407 -58,-0.512 -6.989,-0.699 -13.989,-0.492 -20.999,-0.56 -2.992,-0.029 -6.731,0.258 -8.992,-2.003 C 812.362,397.344 814,387.873 814,383 c 0,-15.654 1.159,-33.748 -1.245,-48.996 -1.549,-9.816 -13.707,-14.7 -18.549,-23.004 -3,-5.145 -4.008,-16.02 -1.197,-21.601 2.089,-4.148 8.022,-4.382 11.991,-5.305 7.052,-1.641 12.735,-2.742 18,-6.094 l 132.94787,-24.70735"
       id="path1958"
       sodipodi:nodetypes="cccccccccccscccccccsccccccccccccsscccccccccscscccccccccscscscccccsccsscssccsccscccccccccccccccccccccccccccccccccccccsccsccccccccccccscccccccccccccccccccccccccccccccccccsssccccccccccccccccccccccscccccccscccscccccccccscccscscccccccccccccccccccccscccccccccccccccccccccscccccccccccccscscccccccccccccccccccccccccccccccsccccsscccccccccccccccccccccscssccccccccccccccccccccccccscccccccccscccccccccsccccccccccccccscccccccccccccccccccccccccccccccscsccscccccccccccccccccccccccccccccccccccccccccccccccccccccccccccccccccccccccccccccccssccsscccccccccccccccccccccccccccsscssccsccccccccccccccccccccccccsccscccccccccccccccccccccccccccccccccccccccccsscccccccccscsccccccccccccccccccssssscsscscccccccccccccccccccccccccccccccccccccccccccccccccccccccccccccccccccccccccccccccccccccccccccccccccccccccccccccccccscccccccccccsccccccccccccsccccccccccccscccccccccscccccccccccccccccccccccccc" />
    <path
       style="fill:none;stroke:#000000;stroke-width:1px;stroke-linecap:butt;stroke-linejoin:miter;stroke-opacity:1"
       d="m 702,354 c -58,-1.5 -58,-1.5 -58,-1.5"
       id="path316" />
    <path
       style="fill:none;stroke:#000000;stroke-width:1px;stroke-linecap:butt;stroke-linejoin:miter;stroke-opacity:1"
       d="M 817.361,265.997 823,278"
       id="path996" />
    <path
       style="fill:none;stroke:#000000;stroke-width:1px;stroke-linecap:butt;stroke-linejoin:miter;stroke-opacity:1"
       d="M 1019.0044,559.292 826.51888,606.18995"
       id="path129" />
    <path
       style="fill:none;stroke:#000000;stroke-width:1px;stroke-linecap:butt;stroke-linejoin:miter;stroke-opacity:1"
       d="M 1096,515 941.24975,551.39312"
       id="path131" />
    <path
       style="fill:none;stroke:#000000;stroke-width:1px;stroke-linecap:butt;stroke-linejoin:miter;stroke-opacity:1"
       d="m 1004,462 -82.009,6.37"
       id="path133" />
    <path
       style="fill:none;stroke:#000000;stroke-width:1px;stroke-linecap:butt;stroke-linejoin:miter;stroke-opacity:1"
       d="m 321,500.827 59.455,-6.513"
       id="path273" />
    <path
       style="fill:none;stroke:#000000;stroke-width:1px;stroke-linecap:butt;stroke-linejoin:miter;stroke-opacity:1"
       d="m 338.006,472.003 c 2.64657,26.46373 2.64657,26.46373 2.64657,26.46373"
       id="path275" />
  </g>
</svg>
