<?xml version="1.0" encoding="UTF-8" standalone="no"?>
<!-- Created with Inkscape (http://www.inkscape.org/) -->

<svg
   width="264.58334mm"
   height="201.08333mm"
   viewBox="0 0 264.58334 201.08333"
   version="1.1"
   id="svg1784"
   sodipodi:docname="rotunda.svg"
   inkscape:version="1.1.1 (c3084ef, 2021-09-22)"
   xmlns:inkscape="http://www.inkscape.org/namespaces/inkscape"
   xmlns:sodipodi="http://sodipodi.sourceforge.net/DTD/sodipodi-0.dtd"
   xmlns="http://www.w3.org/2000/svg"
   xmlns:svg="http://www.w3.org/2000/svg">
  <sodipodi:namedview
     id="namedview1786"
     pagecolor="#ffffff"
     bordercolor="#666666"
     borderopacity="1.0"
     inkscape:pageshadow="2"
     inkscape:pageopacity="0.0"
     inkscape:pagecheckerboard="0"
     inkscape:document-units="mm"
     showgrid="false"
     fit-margin-top="0"
     fit-margin-left="0"
     fit-margin-right="0"
     fit-margin-bottom="0"
     inkscape:zoom="0.97179962"
     inkscape:cx="455.85529"
     inkscape:cy="355.01146"
     inkscape:window-width="1800"
     inkscape:window-height="1033"
     inkscape:window-x="0"
     inkscape:window-y="44"
     inkscape:window-maximized="0"
     inkscape:current-layer="layer1" />
  <defs
     id="defs1781" />
  <g
     inkscape:label="Layer 1"
     inkscape:groupmode="layer"
     id="layer1"
     transform="translate(21.263634,13.107084)">
    <path
       style="fill:none;stroke:#404040;stroke-width:0.352778"
       d="m 113.1447,3.8262491 7.17127,2.0463933 5.17596,1.4813844 L 112.79192,6.712324 96.564147,7.7068045 101.85758,6.1383546 106.794,4.5566049 112.79192,3.4734713 m -2.46944,0.7055555 -1.05833,1.4111111 9.87778,0.7055556 m -7.40834,-1.7638889 v 0.3527778 m 2.46945,0 h 0.35277 m -11.64166,1.4111111 5.99722,-0.3527778 m 16.58056,1.4111111 8.48395,5.6377412 11.62438,4.199996 8.46667,4.342165 9.87777,4.164542 M 96.564147,8.4123601 95.858591,8.7651379 96.564147,7.7068045 m 6.350003,1.7638889 2.11666,0.3527778 c -2.02953,0.2301168 -3.94617,0.010019 -6.35811,0.5173138 -2.549525,0.536257 -4.776612,1.672801 -7.40022,1.952131 l 4.233333,-4.2333337 m 29.986117,0 3.52777,1.4111111 M 93.389147,9.1179156 94.44748,8.4123601 m 12.34722,0.7055555 c 3.21134,3.53e-5 6.05296,-0.050624 8.81945,0.3527778 -3.48121,0.5076119 -6.92679,0.3013781 -10.58334,0.3527778 m 10.58334,-0.3527778 8.11389,1.0505726 7.05555,1.418872 m -34.219443,-1.058334 5.644443,-0.352777 m -6.349999,1.058333 h 0.705556 m -49.036113,46.919444 1.411112,-1.411111 4.586111,-1.935339 10.936111,-4.622095 10.583334,-4.731455 -20.084345,-0.07514 -7.129286,-2.743552 -9.828037,1.407583 c 2.707922,-2.378781 5.469467,-4.683478 8.095898,-7.241822 4.197702,-4.088342 8.314972,-8.120239 13.423547,-11.074047 2.370314,-1.370895 4.960409,-2.020359 7.408334,-3.191934 4.034014,-1.929906 7.804503,-4.251607 11.994444,-5.903912 4.050242,-1.597272 8.385528,-2.77495 12.347223,-4.338285 m -22.930556,9.525 c 6.177844,0.549275 12.868628,-1.4478 19.05,-2.008611 12.455526,-1.129982 25.245836,-1.774966 37.747226,-1.07008 5.89033,0.332105 11.77043,0.599263 17.63889,1.240155 3.58845,0.3919 7.07637,0.960508 10.23055,1.132981 M 103.6197,20.406804 h 7.40834 m 11.64166,0 h 7.05556 m -33.161113,0.352778 h 4.233333 m 31.75,0 h 3.88056 M 92.330813,21.11236 h 2.822223 m 43.038894,0 h 2.46944 m -52.916668,0.352778 h 2.469445 m 52.211113,0 h 2.11667 m -60.325006,0.352777 h 2.116667 m 59.266669,0 h 1.76389 m -66.322226,0.352778 h 1.763889 m 65.969447,0 h 1.05833 m -71.613888,0.352778 h 1.763889 m 71.261109,0 h 1.05834 m -76.552783,0.352778 h 1.411111 m 22.930552,0 h 7.05556 m 14.46389,0 h 7.40833 m 24.34167,0 h 1.05833 m -80.786109,0.352778 h 1.411111 m 19.402778,0 h 3.880556 m 32.808334,0 h 3.88056 m 20.10833,0 h 0.70555 m -84.313886,0.352777 h 1.058333 m 16.227778,0 h 3.175001 m 44.802774,0 h 3.175 m 17.28612,0 h 0.35277 m -88.194443,0.352778 h 1.058334 m 14.463889,0 h 2.469444 m 53.975006,0 h 2.11666 m 15.16945,0 h 0.35277 M 67.636368,24.28736 h 1.058334 m 12.7,0 h 2.469444 m 61.030554,0 h 1.76389 m 13.05278,0 h 0.35278 m -93.838893,0.352778 h 0.705556 m 11.641667,0 h 1.763889 m 67.733331,0 h 1.41111 m 11.64167,0 h 0.35278 m -97.013892,0.352777 h 0.705556 m 10.583333,0 h 1.411111 m 27.163892,0 h 5.99722 m 14.46389,0 h 5.99722 m 20.10834,0 h 1.41111 m 9.87778,0 h 0.35277 m -99.483333,0.352778 h 0.705556 m 9.877778,0 h 1.411111 m 22.577778,0 h 4.23333 m 31.39723,0 h 4.23333 m 15.52222,0 h 1.41111 m 10.23056,0 8.57426,6.865761 8.79475,7.955844 4.50321,3.186289 7.40657,3.145014 2.47121,2.483203 M 61.991924,25.698471 h 0.352777 m 8.819445,0 h 1.411111 m 20.108334,0 h 3.175 m 43.391669,0 h 2.82222 m 13.40556,0 h 0.70555 m -95.602777,0.352778 h 0.352777 m 8.113889,0 h 1.058334 m 18.344445,0 h 2.116666 m 53.269446,0 h 1.76389 m 11.99444,0 h 0.70556 m -91.01667,0.352777 h 1.058334 m 16.580556,0 h 2.116667 m 59.972223,0 h 1.76389 m 10.23055,0 h 1.05834 m -94.544448,0.352778 h 0.705555 m 15.522223,0 h 1.763889 m 66.675001,0 h 1.41111 m 9.17222,0 h 0.70556 m -97.719447,0.352778 h 0.705555 m 14.463889,0 h 1.058334 m 72.672219,0 h 1.41112 m 8.46666,0 h 0.35278 M 62.344701,27.46236 h 0.705556 m 13.405556,0 h 1.411111 m 76.905556,0 h 1.41111 m 7.76111,0 h 0.35278 M 60.93359,27.815138 h 0.705556 m 12.347222,0 h 1.411112 m 81.84445,0 h 1.05833 m 6.70278,0 h 0.35278 M 59.522479,28.167915 h 0.705556 m 11.641667,0 h 1.058333 m 32.808335,0 h 10.93611 m 3.175,0 h 11.64167 m 27.86944,0 h 0.70556 m 6.35,0 h 0.35278 M 58.464146,28.520693 h 0.352778 m 10.936111,0 h 1.058333 m 26.458334,0 h 4.233338 m 33.86666,0 h 3.88056 m 21.51944,0 h 1.05834 m 5.64444,0 h 0.35278 M 57.053035,28.873471 h 0.705555 m 9.877778,0 h 1.058334 m 21.872222,0 h 3.527778 m 47.624998,0 h 3.175 m 17.63889,0 h 0.70556 m -107.950004,0.705555 1.058333,-0.352777 m 9.525,0 h 1.058334 m 19.05,0 h 2.469445 m 58.561112,0 h 2.46944 m 14.46389,0 h 0.70556 M 64.10859,29.579026 h 1.058334 m 16.933333,0 h 2.116667 m 66.675006,0 h 1.76388 m 12.70001,0 h 0.70555 M 62.697479,29.931804 h 0.705556 m 15.169445,0 h 1.763889 m 73.730561,0 h 2.11666 m 10.58334,0 h 0.35277 M 60.93359,30.284582 h 0.705556 m 13.405556,0 h 2.116666 m 79.727782,0 h 1.76389 m 9.17222,0 1.76389,0.352778 m -109.713893,0 h 0.352778 m 12.347222,0 h 1.411111 m 85.372222,0 h 1.41111 M 58.464146,30.990137 h 0.352778 m 10.936111,0 h 1.411111 m 24.341667,0 h 5.997227 m 21.16666,0 h 6.70278 m 32.45556,0 h 1.05833 m -107.244447,0.705556 1.763889,-0.352778 m 9.877778,0 h 1.411112 m 19.402778,0 h 4.233333 m -17.286111,14.463889 11.641667,-4.647847 11.994444,-4.980164 10.583337,-4.029781 5.99722,1.313039 8.81944,3.401836 25.75278,9.944806 13.75834,6.053666 M 132.54748,31.342915 h 4.23333 m 27.16389,0 h 1.05834 m 5.99722,0 h 0.35278 M 65.166924,31.695693 h 1.058333 m 16.933334,0 h 3.527778 m 51.505561,0 h 3.52777 m 23.98889,0 h 0.70556 M 54.58359,32.048471 h 0.352778 m 8.113889,0 h 1.058333 m 14.816667,0 h 2.822223 m 61.73611,0 h 2.46945 m 21.51944,0 h 0.70556 M 53.525257,32.401249 h 0.352778 m 7.055555,0 h 1.058334 m 13.405556,0 h 2.116666 m 32.455554,0 h 0.35278 m 37.04167,0 h 2.46944 m 19.05,0 h 0.70556 M 52.466923,32.754026 h 0.352778 m 6.35,0 h 1.058334 m 11.994444,0 h 2.116667 m 33.866664,0.352778 1.05834,-0.352778 m 1.76389,0 h 0.35277 m 39.51112,0 h 1.76388 m 17.63889,0 h 0.35278 M 57.75859,33.106804 h 0.705556 m 10.936111,0 h 1.763889 m 40.922224,0 h 0.35278 m 41.98055,0 h 1.41111 m 15.52223,0 h 0.35278 M 55.994701,33.459582 h 0.705556 m 10.230556,0 h 1.058333 m 89.252784,0 h 1.05833 m 14.11111,0 h 0.35278 M 53.525257,34.165137 55.289146,33.81236 m 9.172222,0 h 1.411111 m 39.863891,0.352777 1.05833,-0.352777 m 7.05556,0 h 0.35278 m 45.15555,0 h 1.41111 m 12.7,0 1.41112,0.705555 M 62.697479,34.165137 h 0.705556 m 98.777785,0 h 1.05833 m -112.183338,0.705556 1.411111,-0.352778 m 7.761112,0 h 1.058333 m 42.686112,0.352778 1.05833,-0.352778 m 10.58334,0 h 0.35278 m 48.33055,0 h 1.05834 M 58.464146,34.870693 h 1.058333 m 65.616671,0 h 12.34722 m 28.575,0 h 1.05833 M 49.997479,35.223471 h 0.352778 m 6.35,0 h 1.058333 m 33.51389,0 h 5.291667 m 12.347223,1.411111 c 3.5246,-2.164645 9.26147,1.523647 12.7,2.849033 11.2776,4.347281 22.87199,8.357306 33.86667,13.378744 0.67416,2.934053 2.62925,3.927828 5.29166,4.938889 l -4.23333,-2.469444 M 117.37804,35.223471 h 0.35277 m 23.28334,0 h 4.93889 m 22.57778,0 h 0.35277 m -120.65,0.705555 1.058333,-0.352777 m 5.997223,0 h 0.705555 m 28.222223,0 h 3.175 m 14.111116,0.352777 1.05833,-0.352777 m 15.875,0 h 0.35278 m 29.98611,0 h 3.175 m 17.99167,0 h 0.70555 M 53.878035,35.929026 h 0.705555 m 24.341667,0 h 3.175 m -6.35,14.816667 c 2.565048,-2.957689 7.066139,-4.106334 10.583334,-5.590117 7.440789,-3.138664 14.889689,-6.746522 22.577779,-9.22655 m 44.80278,0 h 3.175 m 14.81667,0 h 0.70555 M 52.466923,36.281804 h 0.352778 m 21.166667,0 h 2.469445 m 43.744447,0 h 0.35278 m 38.45277,0 h 1.05834 m 13.05278,0 h 0.70555 M 51.055812,36.634582 h 0.352778 m 18.697223,0 h 2.116666 m 27.516668,0 h 0.352773 m 21.16667,0 1.05834,0.352778 m 52.21111,-0.352778 h 0.70555 M 49.997479,36.98736 h 0.352778 m 16.227778,0 h 1.763889 m 60.677776,0.705555 c 8.70585,0 17.4043,-0.165805 26.10556,-0.377825 4.23439,-0.103011 8.78064,-0.844903 12.98434,-0.177094 2.50825,0.398639 3.68582,2.50825 5.90479,3.488619 3.11926,1.377597 7.44749,1.654175 10.7442,2.005189 m -8.81944,-5.644444 h 0.35278 m -128.411118,0.705555 1.411111,-0.352778 m 13.758334,0 h 1.763889 m 32.455556,0.352778 1.058334,-0.352778 m -31.750001,16.933333 6.350353,-1.318683 8.466314,-3.560233 26.456918,-10.968214 5.64586,-1.086203 m 9.525,0 h 0.35278 m 53.62222,0 h 0.35278 m -6.35,0.352778 h 1.05833 M 46.822479,38.045693 h 0.352778 m 2.469444,4.233333 3.108678,-3.400425 9.238545,-0.48013 29.986112,-0.352778 m 32.808334,0 h 0.35278 m 47.97778,0 h 1.05833 m -78.669447,0.352778 h 0.352778 m 15.169449,0.705555 h -1.05834 l 2.46945,0.352778 -1.41111,1.058333 h 7.05555 l -5.29167,-1.058333 m 3.88056,-1.058333 v 0.352777 m 58.56111,-0.352777 h 0.70556 m -65.26389,2.116666 c -1.59491,0.05115 -1.8281,-0.84455 -0.70556,-1.763889 m 67.02778,0 h 0.70556 m -84.666671,0.705556 1.058333,-0.352778 m 33.513888,0 h 0.35278 m 50.44722,0 h 0.35278 M 49.291923,39.456804 h 0.705556 m 58.561111,0.705556 -1.05833,0.352777 1.05833,-1.058333 m 1.41111,0 -1.05833,1.058333 m 1.76389,-1.058333 0.70555,0.705556 m 1.76389,-0.705556 0.70556,0.705556 m 20.46111,0 c 4.98052,-0.570795 10.72621,-0.337256 15.875,-0.354895 3.53342,-0.01199 7.04921,-0.341842 10.58333,-0.349603 3.44135,-0.0074 6.89646,0.132292 10.23056,-0.353836 m 8.81944,0.352778 h 0.35278 M 47.528034,39.809582 h 1.058334 m 42.686112,0.352778 1.058333,-0.352778 m 14.816667,1.058333 -1.05833,0.352778 1.41111,-1.411111 m 4.58611,0 c 0.69885,0.698853 0.35948,0.35948 1.05833,1.058333 m 16.22778,-1.058333 h 0.35278 M 46.116923,40.16236 h 0.705556 m 74.436111,0 v 0.352777 m 9.17222,-0.352777 h 0.35278 m -86.077778,0.352777 h 0.705556 m 5.997222,0.705556 c 3.125964,-0.0042 6.316486,-0.274461 9.525,-0.335139 4.818592,-0.09102 9.644592,-0.01764 14.46389,-0.01764 3.696052,0 7.37235,-0.146755 10.583333,0.352778 m 13.758334,-0.705556 v 0.352778 m 4.938893,0.352778 -1.41112,1.411111 2.82223,-2.116667 m 7.40833,0 0.70556,1.411111 2.82222,0.352778 h -1.41111 m -0.35278,-1.763889 v 0.705556 m 2.82222,-0.705556 4.58611,0.352778 m 50.09445,-0.352778 -11.28889,0.352778 m -117.827781,0 h 0.352778 m 45.508334,0 h 0.352778 m 19.402781,0 -2.11667,0.352778 m 9.17222,-0.352778 v 0.705556 m 15.875,-0.705556 1.05834,0.352778 m -27.16389,0 -1.41111,0.705555 m 9.87777,-0.705555 0.35278,0.352778 m 29.63334,-0.352778 h 12.7 m 14.81666,0 -0.70555,1.763889 11.28889,1.676047 13.75833,4.321175 m -93.48611,-5.997222 h -1.05834 l 1.41111,-1.411111 m 4.23334,0 -4.58611,1.411111 M 113.1447,41.57347 h 0.70556 m 5.64444,0.705555 -1.41111,-0.705555 4.58611,0.705555 m 11.28889,-0.705555 h 0.35278 m -47.272223,0.352777 h 0.352777 m 47.625006,0 1.05833,0.352778 m -81.138892,0 h 1.763889 m 0.705555,0 h 22.930557 m 14.816667,0 v 1.058334 m 5.291664,-0.352778 -1.058331,1.411111 2.469441,-2.116667 m 13.05278,0 h 0.70556 m 1.76389,0 0.35277,0.352778 m 4.93889,-0.352778 4.58611,1.763889 -4.58611,-0.705555 v 2.116666 -1.411111 m -37.394442,-1.41111 h 0.352777 m 33.513895,0 2.82222,2.116667 m 14.81666,-2.116667 h 0.35278 m -35.27778,0.352778 -1.41111,0.705555 m 16.58056,-0.705555 h 0.35278 m 53.975,0 c -1.48308,3.639255 -1.05692,7.720188 -1.05834,11.641666 l -5.99722,-1.411111 M 98.680813,44.395693 97.62248,44.748471 99.033591,43.33736 m 4.233329,0 -4.586107,1.411111 M 117.73081,43.33736 h 0.70556 m 20.10833,0 h 0.35278 m -56.091667,0.352777 h 0.352778 m 35.630559,0 0.70555,-0.352777 m 20.10834,0.352777 h 0.35277 m -49.036108,0.352778 v 0.352778 m 1.058334,2.116666 -1.058334,1.058334 2.469445,-1.763889 v 2.116667 l 4.233333,-3.880556 m 21.87222,0 h 0.70556 m 1.05833,0 h 0.70556 m 5.29166,0 1.76389,0.705556 -1.76389,2.469444 -0.35277,-2.469444 m 18.69722,-0.352778 11.64167,-0.352778 h 13.05277 m -89.958331,0.705556 1.058333,-0.352778 m 39.158338,0 h 0.35277 m 3.175,0 -0.35277,1.058333 1.76389,-0.352778 m 15.875,-0.705555 h 0.35277 M 38.003034,44.748471 c -4.090458,1.724025 -8.966553,2.833158 -11.641667,6.702777 l 11.641667,-3.878791 12.7,-2.471209 m 38.452779,-0.352777 v 0.705555 m 7.055556,-0.352778 -1.411111,0.705556 1.411111,-1.058333 m 1.411111,0 v 1.411111 l 1.411111,-1.058334 m 29.986109,-0.352777 2.82223,1.058333 -1.76389,2.116667 0.35277,0.352777 h 0.35278 l 0.70556,-0.352777 m 39.86389,-3.175 h 2.46944 m -95.955556,1.058333 1.763889,-0.705556 m 13.758334,0.705556 1.411111,-0.705556 m 14.466712,0.469548 c 8.56791,-2.082448 11.84522,11.458574 3.16477,13.784791 -7.43373,1.992489 -11.74186,-7.826375 -5.89068,-12.423422 0.80433,-0.631825 1.72931,-1.119011 2.72591,-1.361369 m 14.81384,-0.469548 h 0.70556 m 2.82222,0 0.70556,0.705556 m 0.35278,-0.705556 2.46944,1.763889 m 11.99444,-1.763889 h 0.35278 m 32.45556,0 h 1.41111 m -81.138891,0.352778 h 0.705556 m 26.458335,0 h 0.35278 m 54.68055,0 h 1.41111 M 52.114146,45.806804 v 9.172222 m 42.686112,-9.172222 -1.411111,0.705555 m 33.161113,0 -1.05833,-0.352777 1.05833,-0.352778 m 5.29167,0 4.93888,0.705555 m 8.11389,-0.705555 h 0.35278 m 27.51667,0 h 2.11667 m 5.99722,0 h 0.70555 m -105.480555,0.705555 1.058333,-0.352777 m 47.977782,0 h 0.35278 m 1.41111,0 h 0.70555 m 2.11667,0 -1.41111,1.058333 1.41111,-0.352778 m 1.76389,-0.705555 c 1.46438,0.932391 3.0099,1.671461 3.175,3.527777 l 0.35278,0.352778 h 0.35277 0.35278 l 0.35278,-0.352778 m 9.87778,-3.527777 h 0.35277 m 30.33889,0 h 1.41112 m 4.23333,0 h 1.05833 M 49.644701,46.512359 h 0.705556 m 58.582983,0.597253 c 6.72395,-2.417233 10.3505,8.253942 3.47663,10.692694 -6.79062,2.40912 -10.39354,-8.205963 -3.47663,-10.692694 m 70.18091,-0.597253 h 0.70555 m 4.23334,0 h 0.70555 M 47.175257,46.865137 h 0.705555 m 26.458334,0.352778 1.058334,-0.352778 m 15.522222,0.705556 -1.763889,2.116666 1.763889,-2.822222 m 38.805558,0 0.70555,0.705556 m 17.28612,-0.705556 h 0.35277 m 32.45556,0 h 1.05833 m 3.88056,0 h 0.70555 M 45.05859,47.217915 h 1.058333 m 3.175,0 h 0.705556 m 41.980557,0 h 0.705555 m 35.277779,0 h 0.35278 m 4.23333,0 -0.70555,0.705556 m 16.93333,-0.705556 1.05833,0.352778 m 32.45556,-0.352778 h 0.70555 m 4.23334,0 h 0.35278 M 43.647479,47.570693 h 0.705555 m 3.175,0 h 0.705556 m 41.275001,0 0.705556,0.705555 m 2.822222,-0.705555 -2.469445,1.058333 m 19.049996,-1.058333 1.41112,0.705555 h -1.05834 m 22.225,-0.705555 1.76389,1.763889 -0.70555,-0.705556 m 2.46944,-0.352778 h 2.46945 l 0.35277,2.822222 -0.70555,-0.705555 m 46.21389,-2.822222 h 0.70555 m 3.52778,0 h 0.35278 M 41.530812,47.923471 h 0.705556 m 3.527777,0 h 0.352778 m 25.752779,0.352777 1.058333,-0.352777 m 8.819445,0 v 0.352777 m 6.702778,0.705556 -1.411111,0.352778 1.411111,-1.411111 m 41.275002,0 h 0.35278 m 3.88055,0 v 0.705555 m 2.11667,-0.705555 1.05833,1.058333 m 13.40556,-1.058333 1.05833,0.352777 m 19.05,-0.352777 c 5.12939,0.09666 10.21433,0.960966 15.16945,2.272947 4.5092,1.1938 8.39223,2.864202 11.64166,6.193719 1.11196,-3.133372 -0.22648,-4.8006 -2.82222,-6.702778 m -9.17222,-1.763888 h 0.70555 m 3.175,0 h 0.70556 M 40.119701,48.276248 h 0.705555 m 3.175001,0 h 0.705555 m 41.980557,1.411111 -1.058334,-0.705555 1.411112,-0.705556 m 25.752773,0 -0.70555,1.058334 m 19.05,-1.058334 h 1.41111 m 5.64445,0 2.82222,1.058334 0.35278,2.822222 -0.70556,-0.705556 m 46.21389,-3.175 h 0.35278 m 3.52778,0 h 0.35277 M 39.061368,48.629026 h 0.352777 m 3.175,0 h 0.705556 m 64.911109,0 1.41111,1.763889 m 42.68612,-1.763889 h 0.35277 m 35.27778,0 h 0.35278 m 3.52778,0 h 0.35278 M 37.650256,48.981804 h 0.352778 m 3.175,0 h 0.705556 m 28.222223,0 h 0.352778 m 15.522222,0.705555 -1.058333,0.352778 0.705555,-1.058333 m 46.919445,0 h 0.35278 m 1.76389,0 0.35278,0.352778 m 2.82222,-0.352778 2.11666,1.058333 m 52.91667,-1.058333 h 0.35278 M 36.239145,49.334582 h 0.705556 m 2.822222,0 h 0.705556 m 44.450001,0.705555 -1.763889,2.116667 c 0.147461,-1.427339 0.586669,-2.011892 1.763889,-2.822222 m 3.880555,0 -2.116666,0.352777 m 54.327781,-0.352777 5.99722,2.822222 m 43.39167,-2.822222 h 0.35278 M 35.180812,49.687359 h 0.352778 m 3.175,0 h 0.352778 m -12.700001,1.763889 c -1.933928,2.820811 -1.959328,4.947709 0,7.761111 2.361495,-3.692525 6.448073,-5.239102 10.583334,-6.475236 4.739569,-1.417108 10.079567,-2.264127 14.816667,-3.049764 m 15.875,0.352778 1.058334,-0.352778 m 65.616668,0 h 0.35278 m 1.76389,0 0.35277,0.352778 m 1.76389,-0.352778 v 0.705556 m 16.58056,-0.705556 h 0.35278 m 35.98333,0 1.05833,0.352778 m 4.93889,-0.352778 1.41111,3.880556 M 34.122479,50.040137 h 0.352777 m 2.822223,0 h 0.352777 m 35.277779,1.411111 2.469445,-1.763889 m 8.113889,0.352778 0.705555,0.705556 m 2.822223,-0.705556 -2.469445,1.058333 m 29.280558,-0.705555 h 0.70555 m 21.16667,-0.352778 1.41111,0.705556 m 3.52778,-0.705556 1.76389,0.352778 m 0.35278,-0.352778 4.58611,1.763889 M 33.064145,50.392915 h 0.352778 m 2.822222,0 h 0.352778 m 45.861112,1.058333 -1.411111,0.352778 1.411111,-1.411111 m 23.636115,0 1.05833,0.352778 m 49.74167,-0.352778 h 0.35278 m 35.98333,0 1.05833,0.352778 m -159.455556,0 h 0.705556 m 30.338889,0 h 0.352778 m -4.938889,8.819444 -1.058333,0.705556 2.469444,-1.763889 v 2.116666 l 3.175,-2.469444 c 4.948414,-0.277989 10.106026,-3.073047 14.46389,-5.291667 l 0.705555,-2.116666 m 58.208336,0 0.35278,0.352777 m 1.76389,-0.352777 v 0.705555 M 31.300256,51.09847 h 0.352778 m 2.116667,0 h 0.352778 m 23.636111,7.055556 c -2.084917,2.499783 -5.986286,4.323644 -9.172222,3.175 L 72.575257,51.09847 m 37.394443,0 1.41111,2.116667 m 31.39723,-2.116667 v 2.116667 -1.411111 m 52.21111,-0.705556 1.05833,0.705556 m -166.863891,0.352778 1.411112,-0.705556 m 1.411111,0.352778 1.058333,-0.352778 m 30.33889,0.352778 1.058333,-0.352778 m 13.052778,1.058334 -1.058333,1.058333 3.175,-2.116667 m 30.691667,0 -0.35278,1.411111 m 28.92778,-1.411111 h 0.35278 m 20.46111,0 h 0.35278 m -77.258337,0.352778 -2.469444,1.058333 m 59.266671,-1.058333 h 0.70555 m 1.76389,0 0.35278,0.352778 m 4.93889,-0.352778 4.58611,1.763889 0.35278,2.822222 -0.70556,-0.705555 m -121.355557,-3.175 1.058333,-0.352778 m 48.330557,0 -1.411111,1.058333 m 2.116667,-1.058333 h 0.352777 m 25.047224,0.705555 0.70555,-0.352777 m 37.74723,-0.352778 0.70555,1.411111 -0.70555,-0.705556 m 2.82222,-0.705555 -2.11667,1.411111 m 16.58056,-1.411111 h 0.35278 m 1.41111,0 1.41111,0.352778 m 32.10278,-0.352778 0.70555,0.705555 M 61.639146,52.509582 h 0.352778 m 10.230555,0 0.352778,0.352777 m 39.158333,-0.352777 1.05833,0.705555 m 1.41112,-0.705555 h 1.05833 m 26.45833,0 h 0.35278 m 5.29167,0 1.05833,2.469444 0.35278,0.352778 h 0.35278 l 0.70555,-0.352778 m 12.7,-2.469444 h 0.35278 m -86.430557,1.058333 h -1.763889 l 1.763889,-0.705556 m 68.791667,0 0.70556,0.705556 m 4.23333,-0.705556 -0.70556,0.705556 m 4.23334,-0.705556 v 1.058334 l -1.76389,-0.352778 m 3.52778,-0.705556 11.64166,4.417484 9.17223,3.696405 -3.175,0.323497 -1.41111,-0.166864 -1.76389,0.147109 -2.11667,0.04904 h 0.35278 0.35278 M 59.875257,53.215137 h 0.352778 m 17.286111,0 h 0.705556 m 65.263888,0 h 0.35278 m 2.82222,0 2.11667,1.411111 m -0.70556,-1.411111 v 0.705556 m 1.76389,-0.705556 1.05834,1.058333 M 26.714145,53.567915 25.303034,54.979026 m 49.036112,0.352778 0.352778,-1.763889 m -47.272223,0.352778 -2.822223,2.822222 m 49.036113,-2.116667 -1.058334,0.705556 1.058334,-1.411111 m 92.427779,0 h 0.35278 M 57.405812,54.27347 h 0.352778 m 14.463889,1.411112 -1.058333,-0.705556 1.411111,-0.705556 m 41.627783,1.058334 -0.70556,-1.058334 1.05833,0.352778 m 31.75,-0.352778 0.70556,-0.352777 m 4.58611,0.352777 h 3.52778 m -1.05833,0 h 0.35277 m -80.080554,0.352778 0.705556,-0.352778 m 31.044448,0.352778 h 0.70555 m 40.21667,0 h 0.70556 m -77.611117,1.058334 -0.705556,1.058333 1.763889,-1.763889 m 76.905554,0 h 0.35278 m 1.76389,0 0.35278,0.352778 m 1.76389,-0.352778 v 0.705556 m 2.11666,-0.705556 1.41111,0.705556 m 13.05278,-0.705556 h 0.35278 m 1.41111,0 5.99722,2.185106 1.41112,1.342672 m -106.538896,-3.175 -1.058333,1.058333 m 79.022219,-1.058333 1.41112,0.705555 m 2.82222,-0.705555 0.70555,2.116666 2.46945,-0.705555 m -131.938894,-1.058333 0.352778,0.352777 m 37.041667,0.352778 4.586112,-1.058333 m 45.155557,0.352778 1.05833,0.705555 m 49.38889,-0.705555 v 0.705555 m -110.066667,0 1.058334,-0.352778 m 15.522222,0.352778 -2.822222,0.705556 2.822222,-1.058334 m 38.805561,0.352778 1.05833,-0.352778 m 1.76389,0 0.35278,1.058334 m 41.98055,-1.058334 0.35278,0.352778 m 2.11667,-0.352778 v 0.705556 m 16.93333,-0.352778 h 0.35278 m -20.10834,0.352778 h 0.35278 m 1.76389,0 0.35278,0.352778 m 18.34444,-0.352778 h 0.35278 m 23.28334,0 0.47131,16.572794 4.24709,7.792508 -4.01285,8.090253 c -5.93654,-2.299053 -13.87581,-4.213225 -20.10833,-3.527778 v 0.352778 c 6.51263,1.258358 15.03151,0.966258 20.46111,5.644444 L 197.81137,89.19847 M 62.344701,57.095693 58.111368,58.859581 m 7.055556,-0.705555 1.058333,-1.058333 m 44.097223,0 v 0.352777 m 43.03889,-0.352777 h 0.70556 m 2.46944,0 0.70556,1.411111 1.05833,-0.705556 c 0.61665,0.838906 0.70908,1.132417 1.76389,0.705556 v -0.705556 m -1.76389,-0.705555 v 0.705555 m 2.82222,-0.705555 4.58611,1.763888 0.35278,2.116667 -0.70555,-1.411111 M 59.522479,57.44847 59.169701,57.801248 m 3.527778,0.705556 2.469445,-1.058334 m 1.411111,0 -0.705556,0.705556 M 175.23359,57.44847 h 0.35278 M 48.939146,57.801248 h 0.352777 m 105.833337,0 h 0.70555 m 1.76389,0 0.35278,0.352778 m 2.82222,-0.352778 3.88056,1.763889 m -123.825004,1.763889 1.411112,-1.465086 4.586111,-1.709914 m 18.344445,0 -1.411111,1.058333 m 92.427777,-1.058333 h 0.70556 m 21.87222,0 1.76389,0.705555 -0.70556,0.352778 M 63.755813,58.506804 64.10859,58.859581 m 95.25,-0.352777 0.70556,0.352777 m 1.41111,-0.352777 -1.76389,1.058333 m -1.76389,-0.705556 h 0.70556 m 4.23333,0 -0.70555,1.411112 0.35277,0.352777 0.70556,-0.352777 m 2.46944,-1.411112 5.29167,1.763889 m 9.525,-1.763889 2.46944,1.058334 -1.76388,3.175 c -3.64596,0.952852 -4.52861,4.805539 -4.23334,8.113888 2.52483,-0.809624 5.09905,-0.382058 7.76111,0.05962 4.87469,0.808567 9.7589,2.255308 13.40556,5.584825 M 62.697479,59.212359 h 1.058334 m -37.041668,0.352778 c 0,4.869039 -0.371828,10.5537 0.352778,15.522222 3.983214,-2.124075 9.7155,-5.225697 14.380281,-4.886325 2.898069,0.210961 3.419122,3.628672 5.940072,4.462286 1.58115,0.52317 3.448403,0.153106 5.08,0.105128 2.8194,-0.0829 5.645856,-0.03387 8.466314,-0.03387 13.172017,0 26.343682,-0.60325 39.51111,-0.700264 13.71459,-0.101247 27.58687,0.245181 41.275,-0.593372 8.07403,-0.494594 16.25248,-0.189442 24.34167,-0.436033 3.48897,-0.106186 7.70361,0.663575 10.58333,-1.445331 M 44.705812,59.565137 h 0.352778 m 15.169445,0.705556 c -1.356784,1.369483 -2.310342,1.852083 -3.880556,2.116666 l 3.880556,-2.822222 m 101.952785,0 0.35277,0.352778 m -1.76389,0 1.05834,-0.352778 m 4.58611,0.352778 1.05833,0.705555 M 42.941923,60.270693 h 0.352778 m 15.522223,0 0.705555,0.705555 M 161.82804,60.270693 h 0.35278 m 1.05833,0 1.05833,0.352777 m -102.305556,0 -2.116667,0.705556 M 162.88637,60.62347 h 1.41111 M 48.586368,61.329026 c -3.584223,1.049514 -6.795559,2.516717 -10.230556,0.352778 l 1.763889,-0.705556 m 16.227778,1.411111 h -1.058333 l 1.411111,-1.411111 m 109.008333,0 -1.76389,0.352778 m 12.7,-0.352778 5.29167,0.352778 m -124.883335,0.352778 1.411111,-0.352778 m 0.352778,1.411111 c 16.816917,0 33.636303,-0.454378 50.447226,-0.693561 8.22713,-0.117122 16.47013,0.204258 24.69444,-0.04621 6.23958,-0.1905 12.45024,-0.318558 18.69722,-0.318558 3.81953,0 7.56427,0.110066 10.93612,-0.352778 m 2.82222,0 0.70555,0.352778 m -116.063888,1.058333 4.233334,-1.058333 m -9.525001,1.058333 h 3.527778 m 4.233334,0 h 1.411111 M 176.6447,68.031804 c -4.13596,0 -8.47901,-0.09419 -12.7,0.03422 -7.0619,0.215547 -14.097,0.318206 -21.16666,0.318558 -22.45501,7.06e-4 -44.925196,1.05657 -67.38056,1.058334 -7.884231,7.05e-4 -15.762112,0.323497 -23.636112,0.348897 -2.609497,0.0081 -6.768042,0.220133 -7.591778,-3.060347 -0.746125,-2.971447 5.314597,-2.226028 6.886222,-2.227086 8.119534,-0.0056 16.223192,-0.276578 24.341668,-0.340431 22.459597,-0.177094 44.92166,-0.399697 67.38056,-0.734836 8.46913,-0.126294 16.92769,-0.332317 25.4,-0.33655 3.52213,-0.0014 7.07425,-0.343606 10.58333,3.53e-4 m 2.46945,0 -2.11667,4.586111 c 3.12526,0.615597 6.35,0.964494 9.525,1.716264 3.17747,0.752475 5.92243,1.910291 8.11389,4.280958 m -38.45278,-10.230555 -1.41111,1.411111 M 39.766923,63.79847 43.294701,65.209581 M 121.96415,63.79847 v 0.705556 m 6.70278,-0.705556 c -0.25894,0.982486 -0.5394,1.351845 -1.41112,0.705556 m 34.21945,-0.705556 1.76389,0.705556 m 3.175,-0.705556 v 0.352778 m 2.11667,-0.352778 -0.70556,1.058334 m -34.21945,-0.705556 -1.41111,1.058333 m 9.525,-1.058333 v 0.705556 m 1.76389,-0.705556 -0.70555,1.058333 m 8.81944,-1.058333 1.76389,0.705556 m 20.10833,-0.705556 -0.35277,0.705556 m -63.85278,-0.352778 -1.76389,1.058333 m 4.93889,-1.058333 1.41111,1.058333 M 45.05859,64.856804 v 1.411111 m 29.986112,-1.411111 v 1.058333 m 7.761111,-1.058333 c 0.661811,0.86995 1.102078,0.86995 1.763889,0 m 3.175,0 v 0.705555 m 4.938889,-0.705555 h 1.763889 m 9.87778,0 -1.76389,0.705555 m 34.57222,-0.705555 v 0.352777 m 34.57223,-0.352777 h 0.35277 m -131.586111,0.352777 2.469444,3.880556 m 22.225001,-3.880556 v 0.705556 m 4.938889,-0.705556 -1.058334,0.705556 m 20.461112,-0.705556 -0.705556,0.705556 m 28.575005,-0.705556 h 0.70555 m 0.70556,0 h 0.35278 m 3.88055,0 h 0.70556 m -65.263894,0.352778 1.411111,0.705556 m 17.991667,-0.705556 0.705556,0.352778 m 19.05,-0.352778 h 1.763889 m -20.108334,0.352778 h 0.352778 m -31.044445,0.352778 h 1.411111 m 3.527778,0 h 1.411111 m 123.825002,1.763889 c 0.2279,1.937102 2.61902,1.37795 4.23333,1.621013 4.72123,0.710848 8.8639,2.378428 13.40556,3.670653 m -17.99167,-4.233333 -0.70555,0.705555 m -131.938895,0 v 3.175 M 176.6447,72.617915 c 0.2533,3.952169 -5.0366,3.174647 -7.76111,3.175 -9.06603,0.0014 -18.10667,0.164041 -27.16389,0.335138 -8.22924,0.155575 -16.46449,-0.08749 -24.69444,0.02963 -17.16123,0.244122 -34.339744,0.693561 -51.505558,0.693561 -5.729465,0 -11.549945,0.198261 -17.268473,0.02575 -2.081389,-0.06244 -3.956403,-0.890764 -6.039909,-0.864659 -5.367866,0.06703 -11.517136,2.430639 -16.555508,3.661128 1.110191,-3.074105 3.689702,-4.374092 6.702778,-5.475817 3.62973,-1.32715 7.566378,-2.145594 11.288889,-2.638072 m 1.058333,0.705556 c -6.4897,2.30258 -12.800895,2.750255 -18.697223,6.702777 m 151.694451,-5.644444 9.87778,1.039989 9.87777,2.487789 M 44.705812,75.440137 45.411368,75.087359 m -18.697223,0.352778 v 0.705555 m 173.213895,8.466667 c -3.46851,-4.147608 -9.6139,-4.915958 -14.81667,-5.627158 -1.71838,-0.234598 -6.02403,0.05962 -7.00793,-1.731081 -0.42122,-0.76588 0.65264,-1.122892 1.20015,-1.213555 1.65418,-0.27305 3.46569,0.128058 5.10223,0.383116 5.96123,0.928511 12.37015,1.828095 17.28611,5.366456 M 45.05859,77.204026 c -2.277181,1.296458 -4.79672,1.599847 -7.408334,2.118077 -3.609975,0.716139 -7.22383,1.417814 -10.580864,2.9845 -2.687814,1.254125 -5.536847,3.476625 -2.471914,5.833534 1.924403,-3.672417 5.985581,-4.798131 9.877778,-5.718881 3.9878,-0.943328 8.016523,-1.160286 10.936112,-4.158897 m 119.591672,13.758333 0.35278,0.705556 -2.46945,-7.761111 c -1.77906,1.691569 -6.22759,3.472744 -8.56862,1.77553 -1.69545,-1.22943 0.2219,-6.662208 1.58785,-7.666214 1.6764,-1.2319 4.65526,-0.862894 6.61635,-0.821619 2.65042,0.05574 3.88761,1.035403 4.70923,3.55988 0.64029,1.966737 1.18534,3.952875 1.65241,5.974645 1.93816,-0.246592 5.17314,-0.952147 6.81638,0.459669 1.20191,1.032581 0.94897,3.070578 0.9719,4.481689 0.0557,3.411008 0.32455,6.81108 0.32561,10.228083 0.004,16.00059 0.35278,31.97613 0.35278,47.97778 -3.20252,-0.34819 -6.28579,-0.49213 -8.81944,1.76389 l 9.525,-0.35278 -0.70556,-1.41111 M 165.00304,82.142914 h -0.70556 c 0.75177,-1.178277 1.4986,-2.442633 2.70016,-3.245202 2.64372,-1.7653 6.64528,-0.988131 9.64706,-0.988131 m -49.38889,10.230556 c -2.14347,0 -5.45535,0.578555 -7.27357,-0.788459 -1.62489,-1.220964 -3.81141,-6.882694 -1.44991,-8.228894 1.67428,-0.954617 4.40443,-0.509058 6.25404,-0.506236 4.73569,0.0071 9.70245,-0.441678 14.41309,0.03704 2.69557,0.274109 3.56059,2.503664 4.08164,4.882092 0.24059,1.09855 0.45473,2.50825 -0.61278,3.250847 -1.20191,0.836789 -3.09104,0.637822 -4.4771,0.645584 -3.4096,0.01834 -6.84812,0.142875 -10.22985,-0.350309 l -0.70556,9.525 0.31856,15.169448 0.387,39.86389 c -3.11468,-0.30163 -5.71747,-0.12277 -8.46667,0 v -14.46389 c -3.5e-4,-2.04929 0.38629,-4.87151 -0.55174,-6.69855 -1.44568,-2.81693 -6.93244,-1.86408 -9.65765,-1.73496 -1.24954,0.0593 -2.73614,0.17851 -3.39407,1.41499 -1.05869,1.98896 -0.50765,5.19395 -0.50765,7.37129 0,5.76334 1.20192,12.49892 -0.35278,17.99167 -2.64407,-2.92206 -6.936666,-2.16182 -10.58333,-1.76389 l 9.87778,1.41111 m 37.74722,-76.552774 h 12.7 M 55.641923,156.22625 h 2.116667 l -3.527778,-0.70556 2.822223,-0.35278 c 1.928989,-5.27402 1.058333,-11.67165 1.058333,-17.28611 0,-8.81909 0.04163,-17.63924 -0.0032,-26.45833 -0.02011,-3.94723 -0.705203,-7.99924 -0.245533,-11.935178 0.233186,-1.992489 1.564922,-3.294592 2.227791,-5.116336 0.5969,-1.641828 0.550334,-3.943703 1.8669,-5.230989 2.216856,-2.168172 7.223126,-1.176514 8.854017,1.115836 h 7.408334 l 0.705555,-2.469444 c 3.590926,0.523522 7.306734,0.426155 10.928351,0.336903 1.22308,-0.03034 3.158419,0.04621 3.834341,-1.219906 1.113014,-2.085269 -1.948744,-5.61093 0.278695,-7.288389 1.493661,-1.125008 4.377267,-0.648758 6.125271,-0.646994 5.41232,0.0046 11.66213,-0.902406 16.93334,0.351719 m 62.44167,-0.705555 -1.76389,6.35 M 70.458591,84.259581 c -1.246012,-1.283053 -2.680053,-3.827639 -0.122062,-4.645378 2.466623,-0.789164 5.676548,-0.296686 8.235951,-0.2794 4.547305,0.03105 9.692569,-0.830439 14.111111,0.338667 m -47.272223,-0.352778 10.936111,0.376767 11.994445,-0.02399 m 61.383336,-0.352778 -0.70556,2.116667 M 25.655812,79.67347 c -2.042584,1.567744 -3.804709,2.823281 -3.527778,5.644444 m 58.561112,-5.644444 -1.763889,8.113889 m 26.458333,-8.113889 -0.89605,6.901039 3.72674,1.199797 10.22209,0.01305 m -65.616669,2.116666 3.175,-9.524999 c 2.536473,3.958166 1.019881,6.998758 0.530931,11.288888 -0.331611,2.912181 -0.175683,5.891389 -0.1778,8.819449 -0.01164,17.64806 0.352425,35.27107 0.352425,52.91666 l -2.116667,1.05834 -9.172222,-0.35278 0.705555,-1.76389 7.761112,0.35278 c 0.982838,-6.73947 0.145344,-13.69166 0.01764,-20.46111 -0.179916,-9.52183 0.189442,-19.05423 -0.04269,-28.575 -0.05715,-2.35479 -0.299155,-4.698652 -0.315736,-7.055207 -0.01058,-1.510947 0.21202,-3.270603 -0.355247,-4.708525 -0.723547,-1.834092 -3.110795,-2.176286 -4.798836,-1.59385 -1.841853,0.635353 -2.180873,2.463094 -2.249664,4.193117 -0.144992,3.632199 -0.01658,7.293335 -0.01658,10.928355 v 46.91944 M 167.82526,81.084581 h 1.05833 m 2.82223,0 1.76388,-0.352778 m 2.11667,0 0.35278,0.705556 m -132.644449,-0.352778 2.822222,9.525 m 128.763897,-9.525 -0.35278,0.352778 m 2.46944,-0.352778 h 0.70556 m -59.26667,0.705556 h 1.05833 m 2.82223,-0.352778 h 0.70555 m 0.70556,0 h 0.35277 m 1.76389,0 h 0.35278 m 17.28611,0 0.70556,0.352778 m 0.70555,0 1.05834,0.352777 m 1.05833,-0.705555 v 1.411111 m 1.76389,-1.411111 v 0.705555 m 0.70555,0.352778 1.05834,-1.058333 v 1.763889 m -77.611115,-1.058334 1.763889,-0.352777 m 19.755556,0 0.352778,0.352777 m 2.822222,0 0.705556,-0.352777 m 1.763884,1.763889 1.76389,-1.411112 m 19.40278,-0.352777 v 0.352777 m 5.99722,0 1.05834,-0.352777 m 1.05833,0 -1.41111,5.291666 m 23.98889,-5.291666 -0.35278,0.705555 m 1.05833,-0.705555 h 0.35278 m 17.99167,0 v 0.352777 m -99.836114,0.705556 0.705556,-0.705556 m 4.233333,0 -0.352778,0.352778 m 1.411111,-0.352778 v 0.352778 m 0.705556,0.352778 1.058333,-0.705556 m 23.636113,0.705556 1.05833,-0.705556 m 69.85,0 v 0.352778 m 2.11667,-0.352778 v 0.352778 M 48.23359,83.554026 c 0.887589,-0.663223 1.308806,-0.806098 2.116667,0 m 70.202783,-1.058334 v 0.352778 m 3.52777,-0.352778 v 0.352778 m 0.70556,-0.352778 v 0.352778 m 1.41111,-0.352778 -0.35278,0.705556 m -81.138888,-0.352778 1.058333,0.352778 m 0.705556,0 h 1.058333 m 5.997223,0 0.705555,-0.352778 m 41.627779,0 v 0.352778 m 1.058334,-0.352778 v 0.352778 m 4.586115,-0.352778 v 0.352778 m 46.91944,-0.352778 v 0.352778 m 15.52222,-0.352778 -1.05833,1.763889 m 1.76389,-1.763889 2.11667,8.113889 2.46944,-1.763889 -0.70555,-1.058333 M 74.691924,83.201248 v 0.352778 m 2.116667,-0.352778 v 0.352778 m 92.074999,-0.352778 1.76389,1.058333 m 1.76389,-1.058333 -0.35278,0.352778 m 1.05834,-0.352778 0.35277,1.058333 m 0.70556,0 1.41111,-0.705555 m 0.70556,0.352777 1.05833,-0.705555 m -25.4,0.352778 -0.70556,1.058333 M 46.822479,83.906803 v 0.352778 m 11.641667,-0.352778 3.175,4.233334 m 57.855554,-4.233334 2.11667,0.352778 m 1.05833,-0.352778 -0.35277,0.352778 m 1.41111,-0.352778 0.35277,0.352778 m 0.70556,0 1.05833,-0.352778 m 1.05834,0.352778 0.70555,-0.352778 m 16.58056,0 h 0.35278 m 0.70555,0.705556 1.05833,-0.352778 m 1.05834,-0.352778 -0.35278,0.352778 m 2.46944,-0.352778 v 0.352778 m -77.611108,0 v 1.058333 m 1.411111,-0.705555 h 1.411111 m 0.705556,0.705555 1.411111,-0.705555 m 1.058333,-0.352778 h 0.352778 m 16.580556,0 1.763889,1.058333 m -0.352778,-0.705555 1.058333,0.705555 m 0.705556,-0.705555 1.411111,0.705555 m 0.705551,-0.705555 h 1.41112 m 0.70555,0.352778 1.05833,-0.705556 m 59.97223,0 0.35278,1.058333 m -94.544451,-0.705555 1.058334,2.822222 m 80.433337,-2.822222 v 0.352778 M 46.822479,86.02347 c 0.345017,-0.761295 0.4191,-0.882297 1.058333,-0.352778 m 1.058334,-0.705555 1.058333,0.352777 m 1.763889,-0.352777 0.352778,0.352777 m 1.058333,0 0.705556,-0.352777 m 23.636111,0 v 0.352777 M 125.8447,84.965137 v 0.352777 m -51.152776,0 v 0.352778 m 26.458336,-0.352778 v 0.352778 m 70.20278,-0.352778 -0.35278,1.058334 m 1.05833,0 c 0.66816,-0.611364 0.85302,-0.738011 1.41111,0 m -3.175,-0.705556 h 0.70556 m 3.52778,0 -0.35278,0.705556 m 1.05833,-0.705556 v 0.705556 m 1.05834,-0.705556 -0.35278,0.352778 m -123.825004,0 v 0.352778 m 7.055555,-0.352778 -1.411111,9.172222 v -1.058333 m 64.20556,-8.113889 -0.35278,1.058333 m 1.41111,-1.058333 1.05833,0.352778 m 0.70556,0.352777 1.41111,0.352778 m 21.51945,-1.058333 c 0.45684,2.27965 3.25825,1.865489 4.93888,1.411111 m -3.175,-1.058333 h 2.11667 m 26.10556,-0.352778 -0.70556,1.411111 M 72.575257,87.787359 c 0.159809,-1.230842 1.480609,-1.377245 2.116667,-0.352778 m 23.636112,-1.058333 1.058333,0.705555 m 21.519441,-0.705555 h 0.70556 m 4.93889,0 h 0.35278 m 19.40277,0 v 0.705555 m -70.90833,0.352778 1.058333,-0.705556 m 1.058333,0 -0.352778,0.705556 m 18.697223,-0.352778 1.411111,-0.352778 m 3.174998,0 -0.35278,0.705556 m 1.05834,-0.705556 v 0.705556 m 1.05833,-0.705556 -0.35278,0.352778 m 20.81389,-0.352778 v 0.352778 m 28.22223,-0.352778 v 0.705556 m -101.247229,-0.352778 0.352778,0.352778 m 23.283334,-0.352778 v 0.705556 m -25.400001,0.705555 1.058334,-0.705555 m 2.116666,0 h 1.763889 m 91.722229,-0.352778 2.46944,0.352778 m 14.81667,-0.352778 c -0.20497,1.724378 0.11677,4.275667 0.91193,5.958417 0.68545,1.450975 1.86161,0.857602 2.26307,-0.313973 M 52.819701,89.19847 c -8.446558,0.0127 -19.867386,-0.553861 -26.458334,5.644444 0.720372,-2.820105 3.037064,-3.711222 5.64515,-4.483805 4.274962,-1.26612 8.667398,-1.847497 13.052073,-2.57175 m 49.38889,0 c 2.849386,0.883355 5.91573,1.006122 8.81944,0 m 65.96945,1.058333 c 2.69663,-0.573264 4.86692,-0.56903 7.40833,0.352778 m -151.694444,-0.705556 1.763889,3.175 m 44.097223,-2.822222 h 7.408334 m 65.969448,-0.352778 c 2.18405,0.486834 6.10552,-0.406752 7.46619,1.791759 0.90381,1.460147 0.6604,3.618794 0.76447,5.26415 0.25999,4.116211 0.236,8.223607 0.236,12.346867 0,14.46953 0.35278,28.91861 0.35278,43.39167 l -7.76111,0.35278 c -2.23132,-3.27555 -6.45654,-2.6155 -9.87778,-2.11667 v 0.70555 l 9.17223,0.35278 m 8.11388,-62.088886 -0.35277,0.705556 m -33.16111,-0.352778 c 1.18286,4.468636 0.75847,9.540522 0.69356,14.111108 -0.0377,2.6543 -0.34784,5.0539 -0.3295,7.76111 0.0127,1.87608 0.22543,3.47557 0.28575,5.29167 0.0586,1.75401 -0.0127,3.53272 -0.0208,5.29167 -0.0138,3.00355 0.0399,5.37704 0.0765,8.11389 m 0,-39.863892 6.70278,-0.352778 m -31.750002,0 0.705555,10.583333 v 15.522217 22.93056 13.75833 c 1.992489,-3.5e-4 5.793667,0.70803 7.301797,-1.00083 1.20791,-1.36878 0.80998,-4.02625 0.81174,-5.7023 0.004,-4.00685 -0.32456,-7.99182 -0.34643,-11.99374 -0.009,-1.63053 -0.26493,-3.80541 0.64206,-5.25497 0.88759,-1.41852 2.81587,-1.40335 4.29542,-1.4351 3.76273,-0.0808 7.61012,-0.0131 11.2843,-0.0131 M 95.505813,89.904025 c 1.980142,-0.351013 5.143147,-1.043516 6.596237,0.84067 1.57833,2.046464 0.8121,6.260747 0.8121,8.68433 0,4.130675 0.15346,8.222545 0.30656,12.347225 0.1076,2.89101 -0.0106,5.65679 0.39899,8.46666 2.54036,-1.22907 5.52203,-3.3094 8.46667,-3.42617 2.57598,-0.10231 5.10681,1.50071 7.40833,2.36784 m -16.22778,-29.98611 -0.35277,0.705555 m -49.036115,0 v 0.352778 m 91.016665,-0.352778 -0.01,11.993735 -1.00083,5.0091 -4.63374,0.98883 m 29.98611,-17.991665 c -0.0579,6.6929 0,14.318545 0,21.166665 v 39.51111 m 7.76111,-60.677775 c 4.67149,0.08643 9.78994,0.792692 14.46354,1.908175 2.03341,0.48507 4.36104,1.002595 5.57248,2.882548 2.0267,3.144661 1.02623,8.228192 1.22696,11.789832 0.508,9.01241 0.883,18.13736 0.95708,27.16389 0.0233,2.8321 0.19862,5.63845 0.31292,8.46596 0.0582,1.43969 -0.14817,3.23427 0.55209,4.54942 0.76835,1.44251 2.6723,1.40723 4.08658,1.37513 3.0219,-0.0691 7.33214,-0.72531 9.87002,-0.2794 M 70.811368,90.256803 v 62.088887 h 7.761112 c 1.547636,-2.27189 3.383139,-2.413 5.994047,-2.47262 1.609725,-0.037 3.821289,0.0794 4.552245,-1.70145 0.807861,-1.9692 0.389819,-4.67853 0.389819,-6.76204 0,-3.40854 0.0088,-6.82272 -0.0039,-10.23056 -0.0127,-3.31646 -0.05256,-5.9563 1.76777,-8.81944 -3.290358,-1.7205 -10.14342,-6.2484 -12.347223,-1.05833 1.923345,-0.87489 3.606095,-1.27529 5.625042,-0.48296 2.186164,0.85761 3.350684,1.87396 5.663848,2.24685 v 0 m 54.680552,26.10555 c -0.15381,-7.84966 0.0268,-15.79598 -0.0649,-23.63611 -0.0353,-3.01484 0.75706,-7.15363 -0.33337,-10.00196 -1.43334,-3.74473 -8.47408,0.41805 -9.49361,-3.53941 -0.3556,-1.38042 -0.10195,-3.03566 -0.18203,-4.45594 -0.21202,-3.75426 -0.16757,-7.52263 -0.15522,-11.282539 0.005,-1.55822 -0.31186,-4.028722 0.99942,-5.185833 1.93322,-1.706386 6.5218,-0.812095 8.87695,-0.812095 m 22.93055,0 h 1.41111 m -90.663887,0.352778 0.352778,28.574999 M 105.0308,112.4818 c 4.50745,0 10.44646,-0.22895 14.11112,0.35278 -2.6095,0.73872 -5.0726,0.62054 -8.46597,0.7814 -1.45873,0.0688 -3.46921,0.4886 -4.76814,-0.38311 -1.46826,-0.98496 -1.21144,-3.46252 -1.22449,-4.98581 -0.0307,-3.64243 -0.0113,-7.29121 -0.005,-10.934349 0.003,-1.596672 -0.27411,-3.764844 0.64735,-5.171722 0.5722,-0.874183 1.59949,-1.180747 2.57775,-1.338086 2.41617,-0.388761 8.70655,-1.19133 10.23725,1.254831 0.90947,1.453091 0.64418,3.620911 0.64735,5.254977 0.007,3.571519 -0.17533,6.762399 0.70626,9.877429 M 78.57248,90.962359 c 2.487436,0 7.586486,-0.949325 9.582503,0.812094 1.241777,1.096081 0.990247,3.352447 0.998361,4.833761 0.02152,3.996266 0.03104,7.995356 -0.0028,11.991626 -0.0127,1.48025 0.216605,3.73556 -1.014589,4.83376 -1.905,1.69897 -6.772628,0.85407 -9.210676,1.16487 m 87.841671,-23.283334 -0.35243,14.816664 -0.0123,22.225 -0.34078,13.40556 v 10.23055 h 2.46945 M 54.230812,91.667914 55.641923,92.726248 M 165.70859,91.667914 h 0.70556 m 31.75,0 -0.35278,2.469445 M 55.289146,92.020692 h 0.705555 M 144.8947,107.89569 c -0.69426,2.68111 -5.27261,4.29013 -7.11341,1.60902 -0.76905,-1.12042 -0.63147,-2.79082 -0.64311,-4.08093 -0.024,-2.6984 -0.0497,-5.40597 0.008,-8.10366 0.0268,-1.236839 -0.0279,-2.882547 0.98743,-3.781778 1.45979,-1.293283 4.29295,-0.892175 6.05508,-0.812094 m 21.51944,-0.352778 h 0.70556 M 53.878035,155.16791 c -3.512609,3.6e-4 -6.723945,-0.12911 -9.877778,1.41111 l -0.705556,-2.46944 c -1.350081,-0.11289 -3.361267,-1.19063 -1.816453,-2.76119 0.730956,-0.7426 1.72085,-0.88371 2.522009,-1.11937 l -2.469445,-2.46944 c -0.656167,0.45932 -1.271764,0.98707 -2.293056,1.26894 -1.788583,0.49354 -5.153025,0.17568 -7.231239,0.38523 -1.539169,0.15523 -4.276372,0.66323 -5.349875,-0.81068 -0.7239,-0.99307 -0.625828,-2.5079 -0.638175,-3.67136 -0.02893,-2.71074 0.252236,-5.40138 0.317853,-8.10824 0.237419,-9.74478 -0.434269,-19.55095 0.213431,-29.28056 0.195438,-2.93581 -0.72637,-7.724418 1.377597,-10.083443 1.27635,-1.431219 3.361267,-2.056342 5.13715,-2.596092 4.056239,-1.232958 8.476897,-1.837972 12.699647,-2.137127 m 62.031385,1.166988 c 0.93239,-0.819855 2.43064,-0.759883 3.59058,-0.772583 1.32679,-0.01446 3.20357,-0.180269 4.27637,0.772583 0.84631,0.751417 0.90064,2.040467 0.95567,3.087512 0.12912,2.460272 0.009,4.922662 0.13124,7.386812 0.0843,1.7085 0.74789,4.58153 -0.72673,5.89104 -0.92674,0.82268 -2.42993,0.77964 -3.5888,0.79445 -1.33985,0.0169 -3.20323,0.15523 -4.28908,-0.79445 -0.85478,-0.74789 -0.96484,-2.03518 -1.08161,-3.08963 -0.2847,-2.57281 -0.25259,-5.15585 -0.24377,-7.739592 0.006,-1.630539 -0.4057,-4.321175 0.97613,-5.536142 M 141.7197,93.079025 V 95.54847 M 78.57248,93.431803 c 2.061633,0.0021 5.791553,-0.631119 7.465836,0.826558 1.019881,0.887589 0.961319,2.535414 0.987778,3.767667 0.06068,2.818692 0.03034,5.638092 -0.03563,8.453962 -0.03034,1.30105 0.01446,2.9457 -0.964142,3.94618 -1.545519,1.58009 -5.066241,1.25765 -7.101064,1.35008 M 111.73359,93.431803 v 7.761107 m 27.51667,-7.761107 v 10.230557 m 43.74444,10.23055 0.35278,-1.41111 c 1.14794,0.34961 3.19864,1.36384 4.46864,0.0116 0.89676,-0.95496 0.75706,-2.69063 0.77787,-3.89678 0.0568,-3.26002 0.9772,-8.35801 -0.46214,-11.362971 -0.53198,-1.110191 -1.58891,-1.527175 -2.65465,-1.842558 -0.54151,-0.160161 -1.64535,-0.270228 -1.98649,-0.861483 -0.43356,-0.752123 1.34796,-0.856898 1.70956,-0.860073 1.34479,-0.01235 3.06846,0.288573 3.84951,1.555398 0.79622,1.291519 0.63712,3.105149 0.64523,4.557536 0.0159,2.943581 -0.0159,5.878331 0.16404,8.818031 0.0882,1.43545 0.3489,3.25297 -0.46002,4.54166 -1.26012,2.00837 -4.57517,1.24919 -6.40433,1.45627 2.29906,0.78105 4.5466,1.41499 7.05556,0 M 57.053035,93.784581 l 0.352777,0.352778 m 27.16389,-0.352778 c 0.06103,1.199444 0.102658,1.952625 1.411111,2.469444 m 28.222227,-2.469444 v 1.411111 M 79.630813,94.137359 v 1.058333 m 2.469444,-1.058333 v 0.705555 m -55.73889,0 v 2.116667 m 136.525003,-2.116667 0.35278,0.352778 M 40.825256,111.77625 c -0.05009,-4.13667 -0.05503,-10.08204 0,-14.816669 -1.612547,0.154164 -3.857977,0.110772 -4.782961,2.045405 -0.84843,1.774474 -0.414866,4.180414 -0.300919,6.068484 0.214841,3.56164 -0.0078,7.11729 0.497769,10.58333 2.375959,-0.57432 3.461456,-1.02411 4.938889,-1.76389 -0.109008,1.1296 -0.241653,2.27507 -1.648883,2.94111 -1.27247,0.60184 -3.667125,0.9585 -4.522259,-0.55633 -0.910166,-1.6129 -0.530225,-4.13314 -0.531283,-5.91255 l 0.0011,-8.46596 c 0.0049,-1.46403 -0.171802,-3.24803 0.506237,-4.598816 0.754238,-1.503539 2.790119,-1.910644 4.325761,-1.788583 1.727553,0.13723 2.346678,1.323622 2.499078,2.915708 0.317147,3.304121 0.849841,8.610951 -0.294923,11.661071 -0.437797,1.16558 -1.177219,1.36525 -2.098675,1.68769 M 57.75859,95.195692 v 1.058333 m 107.24445,-1.058333 c 0,4.702175 -0.33444,9.985378 -0.35066,14.816668 -0.0303,8.93692 0.0233,17.87419 -0.004,26.81111 -0.0106,3.41524 -0.33514,6.81496 -0.34255,10.22914 -0.004,1.66653 -0.1457,3.67207 0.8188,5.12093 0.97366,1.46296 2.83739,1.92898 4.47851,2.13254 2.92453,0.36265 5.975,0.21625 8.80533,-0.1965 -3.33586,-0.91158 -6.81531,-0.59902 -10.23055,-0.70556 M 41.178034,95.54847 c 0,0.915105 0,0.467078 0,1.058333 M 137.83915,95.54847 h 0.70555 m 2.11667,0 h 0.35278 m 21.87222,0 -0.35278,57.85555 2.11667,-0.70555 M 107.85304,95.901248 h 8.46666 m 66.32223,0 c 0.25788,3.237088 -0.23495,5.302252 0.35277,8.113892 l 0.35278,-3.175 M 79.630813,98.370692 81.394702,96.254025 m 0.705555,0 h 2.116667 m 57.502776,0 v 1.411111 m 45.15556,-1.411111 V 106.83736 M 59.875257,96.959581 c -0.431447,15.166269 0.352778,30.359699 0.352778,45.508329 0,3.5232 -0.05151,7.06156 -7.06e-4,10.58298 0.02293,1.57763 0.438503,3.39902 -1.410405,3.52813 l 1.411111,-0.35277 M 84.569702,96.959581 v 4.586109 m -25.400001,-4.233331 0.352778,0.352777 m 49.741671,0 v 0.352778 m -70.908338,0 v 0.705556 m 1.411111,0 v 0.705555 M 141.7197,98.72347 h 0.35278 m 42.33334,0 h 0.35277 m 0.70556,0 h 0.35278 m -78.66945,0.352777 h 3.52778 m 3.52778,0 h 0.35277 m -76.199998,0.352778 v 8.819445 m 41.275001,-8.819445 h 0.352778 m 2.116666,0 h 0.352778 m 26.811115,0.352778 v 1.058337 m -69.497227,-0.35278 0.705556,-0.35278 m -2.822223,0.35278 h 0.352778 m -1.411111,0.35278 h 0.352778 m 147.813889,0.70555 v 0.35278 m -147.813889,0 v 9.525 m 2.822222,-9.525 v 0.35278 m 69.497227,-0.35278 v 0.35278 m 32.45555,-0.35278 h 0.35278 m -61.383334,0.35278 h 0.705556 m 0.705555,0.35278 3.880556,-0.35278 m 25.752777,0 h 0.35278 m 2.11667,0 h 0.35277 m -29.986108,0.35278 v 1.76388 m -45.861112,-1.05833 1.763889,-0.35278 m 68.791671,0 v 2.46945 m 75.49444,-2.46945 v 1.41111 m 1.05834,-0.70555 0.35277,0.70555 M 39.766923,104.01514 v 1.41111 m 143.227777,-1.41111 0.35278,8.46666 m -42.68611,-7.76111 3.52778,0.35278 m 40.56944,0 v 7.76111 m 1.05834,-7.76111 v 8.11389 M 83.158591,105.42625 h 3.527778 m 25.047221,0 h 0.35278 m -32.455557,0.35278 h 0.352778 m 2.116666,0 h 0.352778 m 59.619445,0 v 1.05833 m -102.305557,1.05833 0.705556,-1.76389 m 68.791671,0 v 2.46945 m -71.966671,-2.11667 h 0.705555 m 76.552776,0 v 1.05833 m 71.96667,0 0.35278,0.35278 m -49.03611,0 h 0.70555 m 49.38889,0 h 0.35278 m -46.21389,0.35278 v 1.41111 m -103.716668,1.76389 2.116667,-2.82222 m 39.158334,0 h 7.055556 m 25.047221,0 h 0.35278 m 74.78889,0 v 1.05833 m -77.61111,-0.35278 v 1.05834 m 5.29166,-1.05834 v 0.70556 m -74.788887,0.35278 v 0.35277 m 147.108337,0 v 1.76389 m 1.05833,-1.76389 h 0.35278 m -43.39167,0.35278 v 2.46945 M 41.178034,112.12903 v 1.76388 m 94.191666,-1.76388 h 9.17223 m -65.616673,0.70555 h 9.877778 m -50.447223,0.35278 v 0.35278 m -1.411111,0 v 0.35277 m -2.116667,2.82223 c 2.46627,-0.37783 4.162778,-0.5715 6.35,-0.70556 m 103.011116,6.35 c -3.69006,1.04422 -7.24959,0.69497 -10.93611,-0.35278 3.17394,-2.25707 6.95395,-4.55048 10.93611,-3.52778 m -24.69445,3.52778 c -4.58576,0.004 -10.61755,0.66358 -15.16944,0 2.32445,-1.24954 4.98157,-3.09598 7.76111,-3.15383 2.51777,-0.0522 4.91419,1.39312 7.05556,2.44828 m 25.04722,2.46944 h -9.525 c 2.85538,-2.45357 6.00145,-4.68877 9.87778,-3.175 m 57.15,28.92778 c 1.79034,0.83185 2.29023,1.84679 1.41111,3.88055 1.67252,0.15135 4.27813,0.66781 5.61481,-0.68438 1.00083,-1.01248 1.25166,-2.97463 1.79352,-4.2545 0.92887,2.32304 0.86854,4.27143 0.70556,6.70277 -4.95194,0 -9.87637,0.27305 -14.81667,0.34467 -2.4063,0.0349 -4.42877,0.13511 -5.29167,-1.75578 3.15772,-0.14887 7.05697,-0.0346 10.58334,-0.70555 -0.46814,-2.93829 -2.04611,-3.75321 -4.95265,-3.66642 -2.18828,0.0653 -4.21534,0.42474 -5.9436,-1.22661 -3.99274,-3.81494 -0.6985,-11.30547 -2.11631,-16.09125 -0.4505,-1.52083 -1.65206,-1.81363 -2.98133,-2.29482 -0.3242,-0.11748 -1.14617,-0.37994 -0.96061,-0.88159 0.48507,-1.31199 4.28766,-0.5895 5.31283,-0.53376 v -2.11666 l -6.70278,-0.70556 0.35278,-2.11667 h -1.41111 c 1.35996,-1.50212 3.13619,-3.5253 5.63315,-2.93052 1.89301,0.45085 3.15137,2.16358 4.24463,3.63608 l -7.76111,-1.05833 3.52777,-3.175 m -84.66667,0.70555 0.70556,1.41111 m 83.60834,-1.41111 3.175,2.82222 m -3.175,-2.11666 -2.82223,2.46944 m -150.636111,3.88056 c -0.67557,-2.57069 0.781402,-5.61975 3.885494,-5.27544 1.909233,0.21202 3.246967,1.4665 4.581172,2.45321 -2.663119,1.74449 -5.173839,1.90218 -8.466666,2.46945 2.041877,0.72707 5.492397,-0.19932 7.113411,1.16593 1.389239,1.17052 1.001183,3.93277 0.997655,5.53649 -0.006,2.78836 -0.205316,4.24004 -0.702733,5.99758 l -0.382058,-3.89255 -0.988836,-5.24087 -5.331884,-0.74436 v -1.76389 m 43.744446,-6.70278 c 0.201083,2.73791 0.0035,6.15562 0.1651,9.17223 0.338314,6.30061 0.312208,12.73104 0.187677,19.05 m -41.627778,-27.51667 1.763889,1.41111 -0.705556,-0.70555 m 99.130558,-0.70556 h 5.99722 m -40.21667,0.35278 v 3.88055 m 40.56945,-3.88055 0.70556,0.70555 m -111.477785,3.175 4.233334,-3.52777 m 96.661111,0 0.70556,0.70555 m 49.38889,-0.70555 h 0.35278 m -105.127785,0.35277 8.466667,0.35278 m 0.705556,-0.35278 c 0.215547,0.4879 0.395111,0.43286 0,0.70556 m 15.169442,-0.35278 15.875,-0.35278 m 62.44167,0.35278 1.05833,1.05833 m -144.28611,-0.70555 1.411111,0.35278 -0.705556,-0.35278 m 95.602785,0 c 1.32961,3.60045 6.4329,2.13466 9.525,2.11667 m -104.422229,-1.76389 1.411111,1.41111 m -1.058333,-1.05834 -6.35,1.05834 m 149.930561,-1.05834 h 7.76111 m -1.41111,0.35278 v 0.70556 m -150.283339,-0.35278 0.352778,0.35278 0.705555,-0.35278 m 1.763889,0 -0.705555,1.41111 -0.705556,-0.70555 m 141.111118,-0.70556 0.35277,0.35278 m 0,0 0.0131,8.46137 1.19203,4.13491 3.7338,1.16205 M 135.3697,126.59291 v 11.64167 10.58333 M 41.530812,126.94569 v 0.35278 m 0.705556,0 -0.352778,0.35278 m 37.041667,-0.35278 c 3.370087,0 6.86047,0 10.230556,0 m 55.386117,17.63889 -6.05508,-0.8121 -0.97896,-3.43429 0.0353,-7.735 0.95109,-3.43218 6.04767,-0.81421 m 45.86111,0 c 0,5.94607 0.35278,12.55289 0.35278,18.34444 m -48.33056,-17.99166 c -0.0497,4.03895 -0.0198,8.8773 0.002,13.05136 0.0123,2.30541 -0.13794,4.46053 2.1142,5.64586 M 79.278035,129.41514 c 1.952978,0.0409 5.458178,-0.59443 6.973711,1.01705 0.927453,0.98567 0.972609,2.65748 1.055159,3.92642 0.197203,3.03636 0.119944,6.12175 0.07726,9.16305 -0.0187,1.31974 0.101247,3.16583 -0.992717,4.13138 -1.558572,1.37513 -4.843639,0.79516 -6.760633,0.8121 m 59.972225,-19.05 v 1.41111 m -59.972225,-1.05834 v 3.175 m 2.822222,-3.175 v 17.63889 m 2.469445,-17.63889 c 0.03069,1.37584 0.04763,2.28248 1.411111,2.82223 m 97.719447,-2.46945 c 0,3.20075 0,6.03003 0,8.81945 M 34.475256,130.47347 c 0,5.83918 0.350309,12.307 0.352778,17.99167 M 186.52248,131.5318 v 0.70556 M 36.239145,148.46514 c 0.04304,-3.34857 0.07585,-6.80509 -0.1397,-10.23021 -0.09878,-1.56845 -0.508,-3.74191 0.434975,-5.13715 0.915106,-1.35431 2.905478,-1.18004 4.290836,-1.2132 m 97.013894,0 h 1.05833 m 1.76389,0 h 1.41111 m 1.41111,0 h 0.35278 m -104.775002,0.70556 v 10.58333 m 41.627778,-10.58333 h 0.705556 m 1.763889,0 h 0.705555 m 1.058334,0.70555 v 1.41111 m 100.18889,-1.41111 h 0.35278 m 2.11667,0 h 1.05833 m -2.11667,0.70556 v 7.76111 M 36.944701,135.05958 h 1.763889 m 1.411111,0 h 0.705555 m 97.013894,0 h 6.70278 m -63.852784,0.70556 h 0.705556 m 1.763889,0 h 3.175 m -46.21389,0.35277 v 0.35278 m 44.802779,-0.35278 v 5.29167 m 100.18889,-5.29167 h 0.35278 m 1.41111,0 h 1.05833 m -147.813889,1.76389 0.705555,-0.35278 m -3.175,0.35278 v 5.64445 m 101.600004,-5.29167 h 5.29167 m -60.677784,0.70556 h 0.352778 m 1.763889,0 h 0.352778 m -6.702778,0.35277 h 0.352778 m 103.716669,0 c 0.0325,1.63513 0.22084,3.33763 0.0713,4.89233 -0.19579,2.03658 -1.30739,2.80987 -3.24626,3.57434 1.67181,0.27587 2.41688,-0.0783 3.52778,-0.70556 m -44.09723,-7.40833 v 0.35278 m -98.424998,0 v 7.40833 m -1.411111,-6.35 h 1.058333 m 38.805557,0.35278 v 6.70278 m -0.705556,-5.64445 h 2.822222 m 101.952783,0 2.46944,0.35278 m -1.05833,0.35278 v 1.05833 m -45.50834,-0.70555 v 0.35277 m 46.56667,0 v 0.70556 M 40.119701,144.2318 h 1.058333 m 96.661116,0.70556 c 0.59055,2.28776 1.91452,2.69169 4.23333,2.82222 M 37.650256,145.29014 v 0.35277 m 146.755564,-0.35277 1.05833,0.35277 m -106.186115,0 h 2.822222 m 2.822223,0 h 0.352778 m 54.680552,0 v 0.35278 m 46.56667,-0.35278 h 0.35278 m 0.70556,0 h 0.35277 m -147.813889,1.41111 h 1.058333 m -2.116666,0.35278 h 0.352777 m 150.636115,0.70556 h -3.175 l 1.76389,-0.70556 m 26.10556,0 c 0.14957,2.19463 0.0406,3.69217 0,5.64445 h -3.175 m -27.51667,-5.29167 0.70555,1.76389 1.76389,-0.35278 v -0.70555 h -1.41111 m 5.99722,-0.35278 c 2.75908,0 5.35482,0 8.11389,0 m -19.05,0.35278 4.23334,0.70555 m 16.22777,-0.35278 h 0.70556 m 1.41111,0.35278 5.99722,0.35278 m -3.52777,-0.35278 h 1.76388 m 0.70556,0 h 1.76389 m 2.46944,-0.35278 2.82223,0.70556 m -28.22223,-0.35278 3.88056,0.35278 0.70555,4.23333 m 1.05834,-4.23333 h 1.76389 m -178.505564,2.11667 0.352778,3.88055 h -0.705556 l -0.9144,-3.39019 -5.4356001,-1.5487 c 2.5810991,-1.21391 4.4490221,-0.8008 7.4083331,-0.73025 3.095625,0.0737 6.512984,0.0247 9.525001,0.0247 m 8.466667,-0.35278 h 2.469444 m 3.527778,0 h 2.822222 m 154.869447,0 v 3.52778 m 0.35278,-3.52778 -0.35278,3.52778 m -184.502781,-3.175 v 0.70555 m 26.458334,-0.70555 c -2.2987,1.33385 -2.697692,2.70439 -2.822222,4.93889 l -2.116667,-0.35278 m 146.050006,-4.58611 v 3.175 l 6.35,0.70555 c -1.01671,1.71944 -2.73262,1.6256 -4.58611,2.11667 2.76789,0.40358 5.60317,0.35278 8.81944,0.35278 h 12.34722 c 2.90795,-3.6e-4 5.37175,0.0861 7.76112,-0.70556 m -27.86945,-5.64444 v 2.82222 m 3.52778,-2.82222 0.35278,3.52777 m 7.76111,-0.35277 c -0.39441,-1.4919 -0.43392,-2.58375 1.05833,-3.175 l -0.35278,3.175 m 7.05556,-3.175 0.35278,3.175 m 2.11666,-3.175 -0.35277,3.52777 m 1.41111,-3.52777 0.35277,3.175 m -176.036112,-1.76389 -6.702778,-0.35278 -0.705555,3.88056 c 3.369028,0.72213 7.826728,0.79269 7.761111,-3.52778 h 5.644445 m 52.56389,-1.05834 -10.230556,1.05834 M 192.5197,150.22902 v 2.82223 m 1.05834,-2.82223 v 2.82223 m 6.70278,-2.82223 v 2.46945 m 7.76111,-2.46945 v 2.82223 M 22.833589,151.64014 v 3.175 c -2.468739,-0.45685 -2.69628,-1.99426 -2.469444,-4.23334 l 3.175,1.05834 m -0.705556,-1.05834 1.058334,0.35278 m 1.411111,-0.35278 1.411111,0.35278 m 1.411111,-0.35278 1.058333,0.35278 m 1.411112,-0.35278 h 0.705555 m 8.466667,0 0.705556,0.70556 m -25.400001,-0.35278 3.527778,0.35278 c -0.03775,1.71591 -0.06033,3.14854 -2.116667,4.23333 m 2.469445,-4.58611 h 1.058333 m 1.763889,0 -0.352778,3.52778 m 12.347223,-3.52778 0.352778,3.88056 m 9.172222,-3.88056 v 3.175 m -30.691667,-2.82222 v 3.88055 H 9.4280334 l 0.3527778,-3.52777 m 7.7611118,-0.35278 v 3.52778 m 135.466667,-3.52778 0.70556,1.41111 c -4.18818,0.0367 -8.05956,-0.4184 -10.93611,3.175 4.10069,0.59796 8.52734,0.3623 12.7,-0.35278 l -1.41111,-2.46944 m -137.936119,-1.41111 -0.352777,0.35277 m 4.586111,-0.35277 H 21.0697 m 4.233334,0 -0.352778,2.46944 c 1.547989,-0.10513 1.467908,-1.08726 1.411111,-2.46944 m 1.763889,0 -0.705555,3.52777 m 1.411111,-3.52777 0.352777,3.175 m 1.411112,-3.175 v 2.82222 m 97.366669,-2.82222 c 0.61383,1.28799 1.20756,2.65853 2.40841,3.52142 2.97286,2.13607 8.65364,1.06469 12.05548,1.06469 m 2.46944,-4.58611 -0.70555,1.05833 m -40.92223,-0.70556 1.05834,1.76389 m 14.81667,-1.76389 0.35277,1.41111 8.81945,-0.35277 m 37.74722,-1.05834 -0.70555,0.70556 m -94.544452,-0.35278 -0.705555,1.41111 9.525,-0.35278 -0.705556,-1.05833 m 16.227779,0 -0.352778,0.70556 m -40.922223,-0.35278 0.705555,0.70555 m 123.825,-0.70555 1.76389,2.46944 c -4.32153,1.22308 -10.88284,0.387 -16.22778,0.25012 -2.68887,-0.0688 -5.4049,0.44838 -8.11389,0.45544 m 50.09445,-3.175 h 0.70556 m 1.76389,0 h 1.05833 m -41.275,0.35278 v 0.35277 m 24.34166,-0.35277 h 1.05834 m 1.76389,0 h 0.70555 m 3.175,0 v 0.35277 m 2.46945,-0.35277 1.05833,0.35277 m 1.76389,-0.35277 v 0.35277 m 10.23056,-0.35277 c 1.02834,4.08552 0.76799,8.94256 0.97966,13.40485 0.0744,1.56633 0.43215,4.30142 -1.1236,5.31071 -2.49131,1.61573 -4.11515,-1.55822 -5.20453,-3.18981 -1.77306,-2.65642 -4.6803,-4.96711 -8.05674,-4.50356 -2.67652,0.36759 -4.9403,2.33115 -6.3948,4.51238 -1.149,1.72332 -1.67993,3.80612 -3.93912,4.30918 -2.01612,0.44873 -4.19523,0.22648 -6.24699,0.21731 -3.17217,-0.0138 -6.35,0.0473 -9.525,0.0473 h -31.04444 m -25.4,-19.75556 c 3.02436,1.3074 6.6869,0.508 9.87778,1.41112 -3.90878,0.57008 -7.97243,0.35066 -11.99445,0.35736 -3.61103,0.006 -7.6013,-0.54892 -10.93611,1.05375 l 15.16944,0.0889 9.17223,-0.44168 m 50.44722,-2.46945 -0.35278,1.41112 m 7.40834,-1.41112 h 2.46944 m -131.586114,0.35278 -1.058334,3.175 m 86.783338,-2.82222 h 9.525 m 8.46667,-0.35278 v 1.05834 m 1.76388,-1.05834 1.41112,0.35278 m 35.27777,-0.35278 h 1.05834 m 8.46666,0 h 0.70556 m -141.111115,0.35278 c 3.001786,1.23896 6.284383,0.19685 9.387417,1.29011 2.016125,0.71049 3.600803,1.46085 5.790494,1.50742 3.643842,0.0773 6.997348,-0.85372 10.574867,-1.24072 2.793648,-0.30198 5.660677,-0.1457 8.466667,-0.1457 m -23.988889,-1.41111 v 0.70556 m 84.313889,-0.70556 v 0.70556 m 1.05834,-0.70556 1.41111,1.05833 v 0.35278 m 14.11111,-1.41111 3.52778,-0.35278 m -159.102786,0.70556 v 0.70555 m 2.822222,-0.70555 h 0.705556 m 11.288889,0 c 0.573264,2.23061 1.887714,2.86349 3.880556,2.11666 m 14.816667,-2.11666 h 1.058333 m 58.561113,0 v 0.35278 m 47.27222,-0.35278 -3.175,1.05833 m 4.58611,-1.05833 h 0.35278 m 16.93334,0 v 0.70555 m -169.333342,-0.3528 h 0.705556 m 1.763889,0 h 0.705555 m 1.411111,0 1.058334,0.70555 m 2.116666,-0.70555 h 0.705556 m 8.466667,0.35277 h -1.763889 m 14.816667,-0.35277 v 0.35277 m 49.036112,-0.35277 v 0.35277 m 49.741668,-0.35277 h 9.87778 m -141.111116,0.35277 h 1.763888 m 4.586112,0 0.352777,0.35278 m 18.344445,1.41111 1.763889,0.35278 c -2.587978,0.37747 -5.100461,0.28716 -8.113889,0.39899 -2.983442,0.11077 -5.845528,0.38523 -8.819444,-0.0462 v -0.35278 c 3.317522,-0.6731 6.859764,-0.36124 10.230555,-0.41698 1.976967,-0.0328 3.745089,0.24165 4.586112,-1.69969 h 5.997222 m 13.758334,0.70556 1.058333,-0.35278 m 153.811112,0.35278 3.175,-0.70556 m -206.0222243,0.35278 0.3527777,2.82222 12.7000006,-0.35277 m 0.705555,-2.46945 h 0.705556 m 8.819445,0 1.058333,-0.35278 m 27.516667,1.41111 c 3.16477,0.46003 5.888214,0.3482 8.819445,-1.05833 m 47.977775,0 v 0.70556 m 69.85001,-0.70556 h 3.175 m -157.338897,0.35278 v 0.70555 m 36.68889,-0.70555 c 3.411008,0 6.564136,0.079 9.525,-0.35278 m 135.466667,1.76389 c -3.46145,0 -7.03721,0 -10.58333,0 -5.07189,0 -10.10426,0.11889 -15.16945,0.30656 -3.45616,0.12841 -7.18714,0.43251 -8.81944,-1.71767 h 2.11667 m -169.686119,0.35278 c 2.797175,1.60161 6.408562,1.05833 9.525001,1.05833 m 22.930556,-1.05833 h 8.819444 m 158.397228,0 h 2.46944 m -121.355556,0.35277 h 11.641666 m -36.336111,0.35278 h 11.28889 m -70.9083356,0.35278 h 3.1750006 m 31.397223,0 c 3.151011,0 7.375525,0.21802 11.288889,-0.35278 m 106.891674,0.35278 h 11.99444 m -130.527781,0.35278 -1.058334,4.23333 c -4.218516,-1.15711 -9.63683,-0.36724 -14.111111,-0.34854 -1.806222,0.007 -4.292953,-0.3549 -5.951714,0.51011 -1.304572,0.68016 -1.166989,2.14489 -1.103842,3.36621 H 24.2447 l 0.352778,-2.11667 6.117873,4.2993 3.05435,6.28404 c -5.759098,0.62759 -11.811353,0.42086 -17.63889,0.3175 -1.775883,-0.0314 -4.920191,0.50235 -6.2433903,-0.97473 -0.9631187,-1.07527 -0.7957609,-2.94887 -0.8075437,-4.28413 -0.030233,-3.43606 0.066499,-6.83331 -0.00462,-10.22809 m 121.355553,-1.05834 h 0.70556 m 1.05833,0 h 11.99445 m 36.68889,0 c -0.78352,4.0834 -6.72007,2.82222 -9.87778,2.82222 m -71.613891,-2.46944 h 0.352778 m 1.058333,0 h 8.11389 m 0.70555,0 h 1.41112 m 0.70555,0 h 0.70556 m 47.97778,0 h 1.76389 m 1.41111,0 h 0.35277 m 1.05834,0 h 0.70555 m 1.41111,0 h 0.35278 m -101.952778,0.35277 h 1.058333 m 0.705555,0 h 11.994445 m 1.411111,0 h 0.352778 m 47.977776,0 h 8.46667 M 9.4280334,159.04847 c 4.6951196,0 9.9871396,0 14.8166666,0 6.19619,0 12.991042,-0.078 19.050001,0 m 1.411111,-0.35278 h 6.35 m 48.330557,0 h 0.352778 m 0.705553,0 h 10.58334 m 0.70555,0 h 1.05833 m 49.74167,0 h 14.46389 m -105.833334,0.35278 h 2.822222 m 0.705556,0 h 4.586111 m 54.680555,0 h 0.35278 m 1.41111,0 h 0.35278 m 0.70555,0 h 7.76112 m 2.11666,0 h 0.35278 m -103.363891,0.35278 h 7.761111 m 0.705556,0 h 0.705555 m 55.386109,0 h 9.87778 m 65.61667,13.05277 c -0.3108,-2.59115 -0.74789,-5.14491 -1.21214,-7.75335 -0.20003,-1.12359 -0.56374,-2.62502 0.23565,-3.59339 1.42205,-1.72191 6.0004,-1.14229 8.03205,-1.25695 4.23051,-0.23848 8.46948,10e-4 12.7,-0.0787 3.88126,-0.0734 7.74911,-0.37006 11.64166,-0.37041 m -133.702778,0.35277 h 8.819445 m 57.150003,0 h 10.93611 m 1.76389,0 h 0.35278 m -49.03612,0.35278 h 0.70556 m 1.41111,0 h 4.93889 m 0.70556,0 h 1.76388 m 79.02223,0 c -1.32257,2.22356 -3.62374,3.33093 -5.3968,5.15832 -2.11067,2.17593 -3.10938,4.64573 -3.42265,7.54168 m 12.34723,-12.7 -0.35278,3.52778 m -125.941672,-3.175 h 8.11389 m 61.736112,0 h 2.82222 m -107.597222,0.70556 0.705555,-0.35278 m 1.058334,0 h 4.938889 m 65.263894,0 h 2.46944 m 0.70556,0 h 2.82222 m 1.41111,0 h 0.35278 m 28.92778,0 h 1.05833 m 0.70555,0 h 11.28889 m -52.56389,0.35278 h 0.70556 m 11.64167,0 h 0.35277 m 3.52778,0 h 0.35278 m -118.5333366,0.3528 c 3.7700306,0 7.8849366,-0.35771 11.6416666,0.70556 m 25.752779,-0.70556 h 7.408333 m 0.705556,0 h 1.058333 m 1.058334,0 0.705555,0.35278 m 21.166667,-0.35278 h 0.705556 m 2.469444,0 h 17.63889 m 0.705553,0 h 0.35278 m 103.36389,0 c 4.65949,2.33116 7.34166,5.36963 9.17222,10.23056 M 24.597478,161.87069 v 1.41111 m 35.983335,-1.41111 h 11.641666 m 86.783331,0 h 11.64167 m 29.63334,0 0.35277,1.76389 m -158.044445,-1.41111 -1.763889,7.76111 h 2.116667 m 74.788887,-7.76111 h 0.35278 m 1.76389,0 h 0.35278 m 1.76389,0 h 1.05833 m 2.46945,0 h 1.05833 m 1.76389,0 h 0.35278 m 1.76388,0 h 0.70556 m -54.680557,0.35278 h 0.705555 m 1.058334,0 h 0.705555 m 1.411112,0 h 2.116666 m 0.705556,0 h 16.580556 m 35.983333,0 h 0.35278 m 3.52778,0 h 0.70555 m 0.70556,0 h 0.70555 m 1.41111,0 h 0.70556 m 3.52778,0 h 0.35278 m 3.175,0 h 2.46944 m 1.41111,0 h 0.70556 m -104.06945,0.35277 h 2.822222 m 0.705556,0 h 8.113889 m 0.705556,0 h 1.058333 m 47.272224,0 h 0.35278 m 1.76389,0 h 11.99444 m -45.508334,0.35278 h 0.705556 m 1.763889,0 h 0.352778 m 0.705555,0 h 3.175 m 1.058334,0 h 1.411111 m 71.966671,0 h 0.70555 m 2.82223,0 h 0.70555 M 12.250256,173.86514 c 1.000689,-4.78085 3.799416,-8.3111 8.466667,-10.23056 m 22.930556,0 h 0.352778 m 1.058333,0 h 11.288889 m 0.705556,0 h 0.352777 m 66.674998,0 h 8.46667 m 2.11667,0 h 3.175 m 1.05833,0 h 0.35278 m 37.04167,0 h 0.70555 m 2.82222,0 h 0.70556 m -78.66945,0.35278 h 0.70556 m 0.70555,0 h 9.17223 m 39.51111,0 h 0.35278 m 3.175,0 h 0.70555 m 1.05834,0 h 0.70555 m 0.70556,0 h 2.46944 m 1.41111,0 h 0.35278 m -96.661113,0.35278 h 0.705556 m 2.116666,0 h 1.058334 m 2.469444,0 h 0.705556 m 1.058333,0 h 0.352778 m 56.444446,0 h 0.35278 m 49.03611,0 h 0.35278 m -137.583339,0.35277 h 2.469444 m 1.058334,0 h 0.705555 m 1.411112,0 h 0.352777 m 35.983335,0 h 9.172222 m 1.411111,0 h 0.352778 m 54.680561,0 h 2.11666 m 0.70556,0 h 5.29166 m 0.70556,0 h 0.70556 m 0.70555,0 h 0.70556 m 0.70555,0 h 0.70556 m -103.716671,0.35278 h 0.352778 m 1.058333,0 h 4.233334 m 1.058333,0 h 2.469445 m 0.705555,0 h 4.586111 m 53.622222,0 h 3.175 m 0.70556,0 h 6.70278 m 0.70555,0 h 1.05833 m 0.70556,0 h 0.35278 m -39.86389,0.35278 h 0.35278 m 1.76388,0 h 1.76389 m 2.11667,0 h 1.05833 m 46.91945,0 h 1.05833 m 0.70556,0 h 0.35278 m 1.05833,0 h 5.99722 m 1.05834,0 h 0.70555 m 0.70556,0 h 3.175 m 1.05833,0 h 0.35278 m -156.986118,8.46667 c 0.603956,-3.97687 3.003903,-6.64105 6.702778,-8.11389 m 3.527778,0 c 3.566936,1.72508 5.630334,4.20405 7.055556,7.76111 m 43.03889,-7.76111 h 7.761111 m 0.705556,0 h 0.705555 m 40.216664,0 h 12.34723 m 0.70555,0 h 1.05834 m 1.05833,0 h 0.70555 m -88.899998,0.35277 h 0.352778 m 1.058333,0 h 0.705556 m 0.705556,0 h 0.705555 m 0.705556,0 h 2.116666 m 0.705556,0 h 4.938889 m 0.705556,0 h 2.822222 m 29.280556,0 h 2.469445 m 1.058333,0 h 4.233331 m 0.70556,0 h 1.05833 m 0.70556,0 h 8.81944 m 58.20834,0 h 0.35277 m 1.05834,0 h 0.35278 m 1.76388,0 h 1.76389 m 1.05834,0 h 0.35277 m 1.05834,0 h 0.70555 M 68.341924,166.4568 h 0.352778 m 1.058333,0 h 0.352778 m 4.938889,0 h 0.705555 m 71.613893,0 h 0.35278 m -105.127785,0.35278 h 2.116667 m 0.705556,0 h 0.705555 m 70.555557,0 h 9.17222 m 34.925,0 h 8.11389 m -79.022221,0.35278 h 6.702778 m 2.116666,0 h 0.705556 m 1.058331,0 h 0.35278 m 33.51389,0 h 3.88056 m 0.70555,0 h 2.46945 m 1.05833,0 h 2.11667 m -80.080562,0.35278 h 2.116667 m 0.705555,0 h 0.705556 m 43.744444,0 h 0.35278 m -69.497225,0.35277 h 1.763889 m 36.68889,0 h 8.113889 m 65.969447,0 h 9.17222 m -111.125001,0.35278 h 0.352778 m 1.058333,0 h 8.113889 m 0.705556,0 h 1.058333 m 61.736112,0 h 9.525 m 40.92222,0 h 5.64445 m -79.375,0.35278 h 2.46944 m 45.50834,0 h 2.11666 m 1.05834,0 h 0.70555 m -84.666667,0.35278 h 9.172222 m 0.705556,0 h 0.352778 m 39.158331,0 h 9.525 m -86.430555,0.35277 h 0.352778 m 0.705556,0 h 7.761111 m 40.569446,0 h 9.525004 m 0.70555,0 h 0.35278 m -34.572224,0.35278 h 2.116667 m 82.549997,0 h 0.35278 m 5.64445,0 h 0.35277 m 1.05834,0 h 3.175 m -119.591671,0.35278 h 1.763889 m 75.494442,0 h 12.7 m 48.33056,0 h 0.35278 m -93.486115,0.35278 h 10.936112 m 47.625003,0 h 0.35278 m 0.70555,0 h 9.525 m -116.769446,0.35278 c -1.4097,3.19087 -3.838575,3.37255 -7.055555,3.52777 m 19.05,-3.52777 h 0.705556 m 3.527777,0 h 1.058334 m 2.469444,0 h 1.411111 m 52.563889,0 h 0.35278 m 3.175,0 h 1.41111 m 1.05833,0 h 0.70556 m -54.32778,0.35277 h 0.352778 m 7.408334,0 h 0.352778 m 3.527777,0 h 1.058334 m 0.705555,0 h 1.058334 m 0.705555,0 h 7.408334 m 60.677781,0 h 2.11666 m 1.05834,0 h 15.16944 m -126.294445,0.35278 h 0.705556 m 1.058333,0 h 12.347223 m 70.202783,0 h 2.11666 m 0.70556,0 h 10.93611 m -46.919446,0.35278 h 0.352778 m 2.822223,0 h 0.705555 m 1.058333,0 h 0.352778 m 1.058329,0 h 10.58334 m 50.44722,0 h 0.35278 m 1.41111,0 h 0.70556 m 1.41111,0 h 14.81666 m -114.299998,0.35278 h 0.352777 m 1.058334,0 h 7.408333 m 0.705556,0 h 0.705555 m 1.058334,0 h 2.469444 m 0.705556,0 h 2.822222 m 42.686117,0 h 0.70555 m 1.05833,0 h 18.69723 m -100.188895,0.35277 h 9.877778 m 42.333335,0 h 1.058333 m 0.705556,0 h 0.705553 m 0.70556,0 h 12.7 m -49.388892,0.35278 h 0.352778 m 1.058333,0 h 0.705556 m 3.175,0 h 1.058333 m 1.058334,0 h 4.938889 m 117.122229,0.35278 c 4.96499,-0.7239 11.95564,0.0205 16.93333,-0.70556 m -167.216671,1.41112 99.483331,-0.35278 m -101.599998,0.35278 h 1.058333"
       id="path3436" />
  </g>
</svg>
