<?xml version="1.0" encoding="UTF-8" standalone="no"?>
<!-- Created with Inkscape (http://www.inkscape.org/) -->

<svg
   version="1.1"
   id="svg1484"
   width="1300"
   height="1064"
   viewBox="0 0 1300 1064"
   sodipodi:docname="container_ship_lines_second_trace.png.svg"
   inkscape:version="1.1.1 (c3084ef, 2021-09-22)"
   xmlns:inkscape="http://www.inkscape.org/namespaces/inkscape"
   xmlns:sodipodi="http://sodipodi.sourceforge.net/DTD/sodipodi-0.dtd"
   xmlns="http://www.w3.org/2000/svg"
   xmlns:svg="http://www.w3.org/2000/svg">
  <defs
     id="defs1488" />
  <sodipodi:namedview
     id="namedview1486"
     pagecolor="#ffffff"
     bordercolor="#666666"
     borderopacity="1.0"
     inkscape:pageshadow="2"
     inkscape:pageopacity="0.0"
     inkscape:pagecheckerboard="0"
     showgrid="false"
     inkscape:zoom="0.67575188"
     inkscape:cx="649.64673"
     inkscape:cy="531.26008"
     inkscape:window-width="2257"
     inkscape:window-height="1202"
     inkscape:window-x="0"
     inkscape:window-y="25"
     inkscape:window-maximized="0"
     inkscape:current-layer="g1490" />
  <g
     inkscape:groupmode="layer"
     inkscape:label="Image"
     id="g1490">
    <path
       style="fill:none;stroke:#171717"
       d="m 377,233 c -3.86,-1.407 -5.926,-1.905 -10,-2 -0.023,2.6 -0.547,4.554 0.452,6.857 1.847,4.258 5.871,3.939 10.548,4.143 v -8 c 8.258,0.923 5.062,6.076 9.488,10.258 5.724,5.407 16.484,1.537 21.543,8.039 2.016,2.592 2.047,4.659 5.028,4.481 4.441,-0.266 13.337,-4.937 17.941,-6.778 15.025,-6.009 29.994,-12.15 45,-18.201 35.123,-14.162 69.928,-29.114 105,-43.402 12.029,-4.901 24.058,-9.866 36,-14.976 5.322,-2.277 11.254,-5.606 17,-6.031 6.429,-0.477 12.619,2.75 19,3.61 m -1,12 -5,-2 c 5.729,-5.027 14.253,-7.927 22,-2 -1.934,1.447 -4.135,3.137 -8,4.271 -1.786,0.524 -4.549,0.444 -6.545,1.316 -2.86,1.25 -3.122,3.383 -7.46,4.185 -4.681,0.865 -9.011,0.907 -11.995,1.069 -0.934,0.051 -2.482,0.083 -5,0.182 -4.249,0.167 -7.251,0.301 -9,0.558 -0.644,0.095 -2.972,0.181 -4.957,1.008 -5.502,2.293 -5.085,5.241 -6.043,7.411 3.721,-0.09 12.487,0.166 17.761,-5.39 L 630,192 m 25,-15 c 3.57,2.228 5.087,2.558 9,5 m -31,6 c 0.554,-0.687 1.497,-3.842 7.004,-5.606 2.338,-0.749 5.522,-1.08 7.996,-1.394 m -90,72 c -3.919,0.53 -7.986,2.294 -14,4.637 -3.923,1.529 -5.013,0.54 -10,2.993 -6.512,3.204 -17.566,7.409 -21.022,13.463 -2.479,4.342 -0.984,8.143 -0.978,12.907 0.011,8.722 0.941,19.479 0.999,28 0.022,3.264 -0.395,5.147 0.859,7.938 0.734,1.632 1.68,2.693 3.331,3.173 4.903,1.427 13.15,-0.927 15.811,-1.357 5.897,-0.955 13.249,-1.349 19,-2.182 5.393,-0.781 10.949,-0.182 20,-3.572 -1.914,-4.335 -3.52,-6.832 -6.647,-11 -1.189,-1.585 -4.052,-3.446 -4.334,-10 -0.352,-8.202 -0.895,-18.896 -1.733,-26 -0.417,-3.532 -0.163,-5.281 -0.325,-9 -0.14,-3.18 -1.42,-5.557 -0.333,-8.83 1.142,-3.439 4.761,-6.355 7.411,-8.746 7.283,-6.57 13.713,-12.746 20.961,-19.138 9.369,-8.264 15.816,-13.539 16.847,-18.261 0.431,-1.971 -0.301,-3.385 -0.847,-5.025 l 7,-3 m 3,0 c 1.385,1.415 2.427,2.039 6.333,7.002 2.809,3.57 11.237,15.255 14.794,19.998 10.576,14.102 20.975,27.967 31.5,42 5.481,7.308 11.04,13.488 13.373,19 -6.204,0.561 -16.489,-3.703 -27,-6.974 -4.296,-1.337 -9.452,-4.047 -13,-4.893 -2.526,-0.602 -4.323,-0.432 -7,-1.176 -15.159,-4.215 -32.825,-9.95 -48,-14.958 -8.752,-2.888 -17.301,-4.697 -23,-7.999 m 16,-44 c 3.964,2.127 6.445,1.804 11,4 -7.147,5.141 -16.816,4.245 -21,4 0.218,-1.067 0.234,-2.18 0.743,-3.103 l 0.999,-1.618 c 6.807,-6.331 22.157,-5.622 27.256,-6.453 1.74,-0.283 4.745,-1.282 7.002,-1.826 m 12,1 c 0.112,1.288 -0.071,2.174 1.04,6.005 0.957,3.299 3.926,12.025 5.304,15.995 4.311,12.418 13.494,40.68 17.656,48 m -43,-67 c -1.5,1.393 -1.889,3.304 -8,5 M 183,334 c 6.649,0.841 14.093,2.941 20,2.092 4.961,-0.713 12.352,-3.999 16.956,-6.621 5.75,-3.276 4.64,-5.486 5.044,-7.471 -4.072,0.175 -11.487,4.594 -14.397,-1.318 C 209.337,318.109 210,311.349 210,308 c 0,-9.51 -3.997,-31.013 1.742,-38.671 5.809,-7.752 22.514,-12.71 31.258,-17.082 l 59,-29.494 c 7.611,-3.805 18.459,-9.752 26,-12.735 2.847,-1.126 4.187,-1.509 7,-1.762 4.112,-0.369 11.302,1.196 16,2.371 13.135,3.284 25.992,6.995 39,10.246 5.171,1.293 13.728,2.307 17.566,5.829 5.134,4.71 2.675,19.069 1.434,23.298 m -74,-41 c 0,6.597 0,4.533 0,12 0,2.675 -0.04,3.651 0.005,5.995 0.1,5.273 -0.166,5.074 3.995,7.005 m 257,-25 c -0.734,1.403 -0.838,2.563 -4.108,5.718 -2.524,2.436 -8.437,7.118 -11.892,9.882 -12.333,9.866 -34.914,25.893 -42,32.4 m -2,-34 c 9.944,-0.082 13.785,-0.513 30,-6 m -230,5 c -4.886,0.953 -6.601,2.372 -12,6 2.229,5.121 6.518,6.883 10,6 m 2,-12 8,2 m 211,-1 c -0.724,0.927 -1.266,1.902 -2.45,3.052 -0.57,0.553 -1.258,1.679 -3.562,2.775 -2.601,1.238 -14.095,5.768 -16.988,6.654 -3.748,1.147 -6.891,1.079 -9,1.305 -1.321,0.142 -4.718,-0.395 -7.896,0.898 -5.767,2.345 -4.427,5.484 -9.119,7.901 -2.135,1.099 -15.384,6.891 -16.985,7.191 -2.719,0.51 -7.156,0.134 -10.91,1.788 -4.927,2.171 -3.671,4.078 -9.094,6.378 -8.289,3.517 -16.059,5.79 -20.996,6.63 -3.523,0.599 -5.842,-0.499 -12,3.428 1.295,1.623 3.546,2.393 3.956,9 0.185,2.981 0.044,10.434 0.044,14 v 36 90 c 0,13.995 0.16,30.236 -0.004,44 -0.051,4.299 -0.762,6.553 -0.957,11 -0.435,9.935 -0.039,15.373 -0.039,24 0,6.896 0.123,15.201 -0.005,22 -0.046,2.477 0.034,4.624 -1.598,6.582 -3.614,4.333 -10.891,4.159 -15.397,5.106 -4.24,0.891 -7.248,2.832 -11.941,2.605 -6.155,-0.298 -4.089,-11.57 -4.059,-15.293 0.132,-16.471 1,-37.697 1,-54 0,-3.929 0,-6.106 0,-10 0,-10.837 0,-23.948 0,-35 v -74 -31 c 0,-3.276 0.089,-8.526 -0.019,-10.999 -0.135,-3.088 -0.034,-4.402 -2.299,-5.988 -1.723,-1.206 -5.347,-1.482 -7.68,-1.9 -3.904,-0.7 -5.249,-1.851 -7.002,-3.113 1.89,-1.763 3.333,-3.383 6.005,-4.691 2.457,-1.202 6.25,-0.929 11.995,-5.309 -4.691,-1.522 -4.359,-2.258 -10,-2.567 -2.034,-0.112 -4.218,0.412 -5.996,1.22 -5.697,2.587 -5.977,4.892 -6.627,6.332 -0.636,1.405 -2.815,4.435 4.623,5.015 m 126,-58 4.059,-4.845 L 532,226.553 542,229 m -216,6 c -2.172,1.874 -6.231,6.182 -8.982,2.588 -4.45,-5.813 3.67,-8.987 6.982,-9.588 m 42,10 c -3.524,0.491 -6.757,1.612 -8.547,-2.279 -3.111,-6.762 3.199,-7.399 8.547,-5.721 m 161,1 c 4.32,1.155 5.362,1.531 8,3 m -218,5 c -1.872,1.531 -6.132,6.283 -8.975,3.292 -5.009,-5.27 3.168,-9.375 6.975,-10.292 m 20,3 c 0,4.607 -0.037,13.496 10e-4,19 0.017,2.443 -0.241,5.44 1.602,7.258 1.775,1.752 3.753,1.719 6.397,2.151 8.262,1.35 18.511,1.897 27,2.76 4.373,0.445 9.453,1.967 13,1.867 5.155,-0.144 8.541,-2.189 14,-4.036 m -90,-21 c -10.916,8.932 -13.793,-5.003 -1,-7 m 48,0 h 2 m 31,0 c 5.121,0.91 17.53,4.86 22,5 m -14,-2 c 0,3.675 0,4.449 0,7 m 81,9 c -1.164,-5.988 4.642,-10.188 20,-14.296 8.182,-2.188 12.389,-1.702 16,-1.704 m -110,2 c 0,2.514 0,2.948 0,7 m -23,-5 h 5 m 109,1 c 4.148,1.109 5.288,1.49 8,3 m -15,1 c 4.464,0.567 5.497,0.802 8,1 m -27,12 c -3.738,-2.038 -5.16,-1.907 -9,-4 6.27,-3.763 13.176,-3.47 16,-4 m -63,4 -7,4 m 37,7 c 1.108,-2.791 3.461,-7.514 17,-11 M 265,571 c 1.745,5.904 4.155,14.41 -0.028,20.682 -1.779,2.668 -4.943,2.194 -7.947,2.776 -2.966,0.574 -3.582,1.001 -5.025,1.542 -1.301,-4.402 -4.06,-15.51 1.318,-20.298 3.123,-2.78 9.389,-3.093 11.654,-6.916 C 267.428,564.641 266,560.296 266,555 V 523 403 c 0,-16.196 0.281,-38.416 -0.005,-54 -0.124,-6.782 -2.264,-5.078 -2.318,-11 -0.026,-2.884 1.293,-5.085 1.538,-6 0.777,-2.897 1.064,-9.09 0.766,-16 -0.339,-7.851 -2.363,-4.422 -3.335,-10 -0.431,-2.475 1.299,-5.531 1.483,-6 0.731,-1.865 1.61,-3.497 1.831,-8 0.24,-4.903 -0.975,-18.746 0.358,-23.996 1.08,-4.256 7.112,-8.036 10.682,-9.065 2.818,-0.813 4.883,-0.96 8,-0.921 10.759,0.135 24.346,2.121 35,3.152 2.793,0.27 6.424,0.795 8.975,0.826 2.679,0.033 3.684,0.004 5.025,0.004 m 201,44 c 0,-8.305 0.093,-17.828 -0.004,-26 -0.04,-3.419 -1.386,-6.57 -0.303,-9.956 2.131,-6.666 12.217,-8.509 18.307,-11.044 1.617,5.421 1.999,11.024 2,19 m -156,-15 3,-1 m 50,0 c 4.011,0.18 4.528,0.405 7,1 m -78,6 c -5.731,3.917 -22.796,9.908 -33,13.681 -3.638,1.345 -8.517,3.363 -12,4.419 -4.89,1.482 -10.114,1.835 -14,2.486 -4.584,0.769 -7.698,1.125 -12,1.5 -1.196,0.105 -3.843,0.292 -5.895,1.348 -5.803,2.985 -5.458,6.547 -6.316,9.566 -0.484,1.701 -0.969,5.365 -0.77,10 0.274,6.376 0.867,9.833 9.976,6.647 9.55,-3.341 4.709,-5.23 11.024,-7.754 2.047,-0.818 5.771,-1.13 6.981,-1.317 4.027,-0.625 7.638,-0.564 14,-2.565 15.091,-4.748 6.148,-6.806 16.04,-9.925 3.463,-1.091 9.773,1.622 12.96,1.882 6.261,0.509 7.136,-0.991 8.84,-2.125 1.374,-0.915 2.161,-1.92 3.16,-2.843 -2.535,-1.244 -8.377,-4.235 -20,2 m 158,-21 c 6.837,-2.652 10.357,-4.994 16,-6 m -126,15 c 10.108,-0.762 7.721,-4.82 12.209,-7.775 2.72,-1.792 11.51,-4.796 15.791,-5.225 m -158,6 v 242 69 c 0,8.108 2.54,21.457 -0.603,28.867 -1.114,2.623 -3.957,3.676 -6.398,3.834 -2.012,0.13 -3.562,-0.477 -5.999,-0.061 -2.87,0.49 -4.07,1.521 -7,2.03 -3.131,0.544 -4.971,-0.014 -8,0.554 -2.227,0.417 -3.81,1.161 -6,1.646 -7.423,1.642 -14.733,3.009 -19,3.13 0,-6.142 0.576,-8.277 0,-18 H 211 M 399,281 c 7.939,-4.303 13.597,-3.768 19,-4 m 262,12 c 7.907,3.564 7,9.556 7,19 0,6.859 1.282,13.849 -2,20 -12.244,-5.892 -19.932,0.854 -22,2 2.021,1.867 2.977,4.597 8,4.526 4.284,-0.06 10.814,-3.506 14,-5.526 M 380,294 h 3 m 24,4 c 2.412,-0.496 8.101,-4.007 9.682,1.163 0.872,2.851 0.318,9.33 0.318,12.837 v 32 130 39 c 0,8.185 0,14.319 0,20 M 367,300 c -7.912,4.288 -14.049,3 -18,3 m 552,0 0.003,20 0.136,8 -0.139,8 M 515,325 519.045,322.487 546,311.6 554.975,307.834 560,305 m -334,16 35,-15 m 872,29 c 0.36,-1.418 0.9,-3.908 2.23,-5.946 1.82,-2.798 3.59,-3.824 6.77,-3.709 5.49,0.199 14.49,5.074 18.38,1.051 1.86,-1.923 0.98,-5.29 0.79,-7.396 -0.56,-6.354 0.47,-4.438 -1.17,-10 5.1,-1.285 8.72,0.274 17,2.576 3.75,1.043 9.59,1.267 11.97,4.843 2.6,3.896 -0.06,9.595 2.63,11.218 3.8,2.284 11.86,-1.799 16.4,-3.061 14.43,-4.011 29.2,-7.877 44,-11.446 5.94,-1.434 18.4,-4.081 15.65,3.495 -1.08,3.006 -16.12,6.557 -19.65,7.491 -13.53,3.574 -27.32,7.335 -41,11.035 -6.8,1.841 -12.33,3.335 -18,5.849 0.45,1.528 0.95,2.831 1,7.002 0.07,6.432 0,21.692 0,28.998 0,24.342 -0.88,48.737 -1,73 -0.03,7.252 -0.01,15.895 0,23 0.01,2.739 -0.45,5.415 1.03,7.566 1.49,2.171 3.33,2.18 5.97,2.679 3.26,0.615 4.63,0.895 8,0.89 2.71,-0.004 4.22,-0.226 7,-0.045 9.46,0.618 24.04,0.834 31,2.91 -0.41,1.499 -0.86,2.724 -0.57,6.005 0.25,2.69 0.77,5.277 -1.75,6.967 -2.41,1.617 -4.37,1.021 -7.68,1.028 -8.37,0.017 -20.64,2.85 -26.68,-1.179 -2.81,-1.877 -2.3,-4.778 -2.32,-7.819 -0.02,-3.685 0,-5.509 0,-7.002 m -96,-132 c -1.28,-6.875 -4.03,-21.136 1.43,-26.49 3.38,-3.314 10.02,-4.328 14.57,-5.843 12.1,-4.034 29.87,-11.045 37,-11.667 m -826,1 c -0.691,0.833 -1.002,2.158 -4.059,3.511 -4.213,1.865 -14.962,2.473 -16.941,2.489 m 600,2 c -0.034,2.907 0.121,5.523 -1.603,7.856 -3.713,5.021 -5.247,3.57 -9.397,4.144 m 250,-9 9,-2.7 13,2.7 m -873,0 c -1.39,2.259 -3.117,4.398 -3.826,11 -0.318,2.958 -0.174,8.639 -0.174,12 v 31 116 M 573,321 c 7.084,0.059 13.174,1.281 20,2.05 15.917,1.793 29.97,4.017 45,6.36 9.976,1.555 18.304,1.046 25,0.59 m 225,-6 v 9 c -4.987,0.848 -11.867,0.186 -16.397,5.433 -3.405,3.945 -2.105,18.65 1.545,20.25 3.875,1.698 11.736,-0.489 13.824,-3.911 4.551,-7.458 1.673,-16.27 2.028,-20.772 m 24,9 c 0,-7.799 -0.953,-19.294 10,-17.327 4.311,0.774 7.869,3.824 11.956,7.087 3.925,3.134 3.162,8.677 6.647,11.173 4.146,2.969 9.263,-0.974 14.397,-0.544 6.483,0.542 15.804,1.131 21.682,5.697 4.676,3.631 -2.29,12.53 1.921,15.886 3.598,2.867 11.138,0.899 15.397,1.481 5.27,0.719 15.36,2.047 17.82,5.85 1.16,1.801 1.09,3.423 1.16,5.697 0.07,2.198 0.03,3.533 0.02,6 -0.02,3.11 0.04,5.007 -0.71,8 -1.9,7.59 -10.68,14.617 -16.29,19.428 -2.778,2.382 -5.513,4.464 -7.111,7.572 -1.525,2.966 -0.906,5.301 -0.892,8 0.017,3.443 0.003,9.228 0.003,13 0,19.324 1.94,39.841 -0.576,59 -0.576,4.391 -0.142,9.827 0.277,14 0.199,1.988 -0.41,4.685 0.612,6.682 0.969,1.892 2.618,2.074 4.692,2.259 4.376,0.39 12.125,0.767 15.935,-0.375 4.04,-1.21 3.99,-3.958 4.06,-7.567 0.09,-5.046 -1.54,-11.856 2.32,-15.486 5.27,-4.955 18.79,-6.401 25.68,-8.214 3.97,-1.045 4.74,-0.699 8,-0.75 2.13,-0.034 6.44,-0.648 9,-0.549 2.06,-11.08 1.29,-26.717 1.96,-42 0.95,-21.588 2.04,-44.519 2.04,-66 0,-4.212 0,-6.201 0,-10 0,-6.902 0.94,-16.811 1,-24 M 924,326 c 0,3.628 -0.052,7.44 10e-4,14.999 0.014,2.116 -0.334,4.63 1.027,6.244 1.482,1.759 3.755,1.3 5.973,0.853 4.102,-0.827 6.719,-2.409 8.999,-4.096 m -727,16 c 7.976,4.398 4,27.679 4,36 0,31.004 -1.309,64.218 0.039,95 0.223,5.095 0.952,7.663 0.961,13 0.016,9.935 0.177,23.325 -0.005,33 -0.065,3.468 0.092,5.964 -3.143,7.32 -3.876,1.625 -6.827,1.359 -9.852,1.587 -2.537,0.192 -6.225,0.093 -9,0.093 -15.449,0 -31.699,1.182 -47,0.996 -3.442,-0.042 -5.864,-0.754 -9,-0.795 -2.623,-0.035 -4.486,0.621 -7,0.748 -3.208,0.163 -5.44,0.368 -7.682,-1.128 C 122.579,543.993 123,538.6 123,535 c -0.001,-12.659 0,-25.339 0,-38 V 371 c 0,-11.587 1.01,-36.2 -1,-43 10.856,-2.985 37.718,1.836 51,5 m 988,-6 c 1.99,1.322 4.69,2.609 8,3.431 2.57,0.637 4.16,1.281 7,1.534 7.75,0.688 7.36,-0.332 13,-2.965 M 114,375 c 3.907,13.217 2.765,19.327 -3.394,24.077 -2.556,1.972 -8.595,3.807 -11.606,4.985 -11.3317,4.432 -19.0179,11.909 -26.6821,7.616 -3.8109,-2.134 -3.5086,-13.509 0.8302,-16.979 8.2037,-6.561 22.0755,-10.481 31.8519,-15.455 3.672,-1.868 7.816,-3.403 9.397,-7.337 3.357,-8.36 -2.026,-27.338 -0.053,-36.903 1.017,-4.928 4.428,-6.345 7.656,-7.004 m 1013,1 1,7 m -246,-3 c 4.287,-0.577 5.688,-1.285 11,-2 m 273,2 c -7.48,4.581 -11.04,5.012 -19,3.621 -5.43,-0.948 -11.34,-3.264 -11.94,3.398 -0.52,5.66 -0.06,15.792 -0.06,21.981 M 249,341 c 6.461,-3.405 9.077,-3.775 14,-4 m 948,252 c -3.99,-4.02 -1.73,-11.92 -0.59,-19 0.62,-3.824 0.91,-6.164 1.59,-9 -2.36,-1.534 -2.87,-2.59 -2.56,-6.005 0.23,-2.457 1.71,-7.736 -1.76,-9.388 -4.32,-2.059 -11.23,0.948 -15.68,1.782 -11.57,2.168 -29.89,6.193 -40.99,6.823 -2.07,0.117 -4.26,0.12 -4.98,-2.375 -0.59,-2.031 -0.12,-3.421 -0.04,-5.837 0.1,-2.965 0.38,-3.992 0.69,-7 0.3,-3.009 -0.17,-4.126 -0.52,-7 -0.8,-6.56 0.94,-11.921 0.85,-19 -0.04,-3.642 -1.09,-8.975 0.88,-11.397 2.25,-2.772 6.75,-1.602 9.11,-1.603 11.08,-0.005 20.78,-0.053 33,10e-4 3.82,0.017 9.41,-0.094 11.4,1.733 2.06,1.899 1.58,4.002 1.6,7.266 0.02,3.564 0.13,4.807 -0.17,8 -0.23,2.441 -0.64,4.106 -0.73,6 -0.16,3.803 1.68,7.656 -1.43,9.822 -7.4,5.15 -24.2,3.336 -33.67,4.092 -3.47,0.278 -8.06,1.737 -9.69,-1.271 -1.38,-2.55 -0.28,-6.193 -0.31,-9.643 -0.04,-3.691 -0.37,-4.688 -0.63,-8 -0.23,-2.912 0.09,-5.196 0.37,-8 0.45,-4.537 0.26,-6.22 0.26,-10 0,-2.239 0,-3.948 0,-6 0,-5.875 0.15,-9.133 0,-12 3.06,0 5.35,0 10,0 5.8,0 12.01,1.553 13.68,-4.189 2.58,-8.859 0.32,-22.488 0.32,-31.811 0,-3.943 0,-6.155 0,-10 0,-18.183 0,-41.352 0,-60 0,-7.451 0,-11.323 0,-18 0,-6.83 -1.82,-9.182 1.03,-13.721 1.37,-2.189 4.23,-2.842 6.97,-3.279 m -232,3 c 0.507,3.89 -0.212,5.36 2.589,8.005 1.844,1.743 3.758,2.104 6.411,2.837 5.197,1.436 8.691,2.129 12,4.158 m 172,-8 c 11.51,-0.94 22.25,-6.6 31,-7 M 151,360 c -5.185,1.754 -7.057,2.623 -10,4 -0.881,-2.98 -1.249,-6.584 -0.941,-9.981 0.319,-3.522 1.438,-4.789 4.96,-4.675 3.326,0.108 12.452,0.656 14.981,0.656 m 728,6 c 10.15,0.374 29.613,-5.022 35,-7 m -694,3 -6.997,2.022 L 216,355 m 740,15 c -4.32,1.044 -5.716,1.254 -9,0 l 0.989,-6.005 1.73,-8.152 L 957,353 c 0.173,2.187 0.799,5.306 0.871,8 0.071,2.636 -1.218,5.269 0.246,7.396 2.147,3.117 6.829,1.124 10.883,0.342 4.458,-0.859 6.725,-2.217 9,-3.738 m -38,-7 c 0,1.535 0.063,3.421 -0.005,7.002 -0.061,3.242 0.398,5.546 -3.143,7.908 -9.099,6.068 -7.337,-7.786 -8.852,-12.91 4.944,-1.855 15.939,-3.803 20,-4 m -77,2 c -8.27,6.119 -26.533,7.507 -39,10 -4.589,0.918 -12.333,1.275 -15.382,5.279 -2.044,2.684 -0.853,7.017 1.661,8.103 1.553,0.672 2.928,0.434 4.722,0.099 5.724,-1.071 5.008,-1.674 10.999,-2.481 0.004,5.829 0.461,8.736 1,13 l 22.999,-3.404 5.398,-2.415 1.599,-7.179 L 864,372 c -3.567,1.084 -6.692,-0.699 -10.127,3.514 -4.006,4.913 -0.744,8.037 -0.873,11.486 M 205,359 v 4 m 713,5 c 0.17,-1.448 0.254,-3.965 1.282,-5.444 1.812,-2.606 3.727,-2.666 7.718,-2.556 m 157,0 5,-1 m 41,0 h 1 m -13,2 h 1 m -200,12 c -1.811,3.484 -1.626,5.017 -6.928,5.458 -1.495,0.124 -2.525,-0.256 -3.214,-1.78 -0.841,-1.861 -0.676,-3.281 -0.782,-5.678 -0.117,-2.657 -0.516,-4.453 0.952,-6.436 2.733,-3.691 4.769,-2.38 8.972,-2.564 m -11,17 c -3.156,1.14 -13.574,0.58 -9.397,-9.945 1.985,-5.001 6.679,-4.882 10.397,-5.055 m -768,1 c 0,2.91 -0.09,7.986 0.005,13 0.102,5.415 0.349,7.047 4.054,7.353 3.015,0.249 10.426,-3.524 13.941,-4.956 15.621,-6.364 20.971,-8.374 28,-7.397 m 700,-4 c 10e-4,1.363 -0.04,3.381 0.15,7.001 0.122,2.318 0.543,3.708 -0.843,5.605 -1.416,1.938 -5.276,4.907 -8.627,2.351 -2.1,-1.602 -2.321,-5.394 -2.43,-7.952 -0.082,-1.916 0.01,-3.696 1.469,-5.067 1.495,-1.404 3.169,-1.494 5.283,-1.909 1.842,-0.363 2.887,-0.456 4.998,-0.878 5.1,-1.02 5.297,-1.414 11,-2.151 m -715,5 1,-4 m 805,0 c 0,5.905 -1.666,18.735 0.603,23.772 1.303,2.891 3.567,2.9 6.398,3.484 4.815,0.995 11.599,2.554 15.999,2.744 m -829,-26 3,-2 m 681,3 c 3.449,-0.825 4.509,-0.927 8,-1 m 186,119 h 7 c 0,-9.567 0.02,-17.978 0.91,-31 1.17,-17.123 2.08,-34.853 2.09,-52 0,-7.028 0.99,-15.128 1,-22 0.01,-5.237 -1.03,-7.524 2.32,-10.4 2.8,-2.405 9.12,-2.879 11.68,-3.6 m -145,1 c 3.27,0.492 3.796,0.301 7,-1 m 110,7 c -2.95,1.175 -5.89,2.543 -10,3.896 -2.23,0.733 -4.72,1.304 -6.98,0.771 -8.67,-2.047 -1.27,-8.575 3.98,-10.667 m -833,1 c 3.285,41.622 0,85.072 0,127 0,13.569 -0.383,36.548 1,44 m 22,-171 v 180 49 24 m 888,-253 c 0,26.678 -3,53.305 -3,80 0,7.051 -3,23.49 5.02,25.551 4.11,1.056 7.79,-0.425 11.98,-1.551 -1.47,-4.967 -1.81,-15.473 -0.42,-26 2.88,-21.99 0.42,-45.815 0.42,-68 m -3,-10 v 63 l -0.91,10 -0.09,31 m -19,-103 -1.01,25 -0.99,50 -0.99,18 0.59,6.772 7.4,3.228 m -283,-99 18,-3 m 66,2 c 3.529,-0.914 5.276,-1.277 9,-2 m -85,3 c 0.043,5.258 0.616,7.362 0,11 m 213,-10 c 0.63,1.185 1.79,1.93 1.98,7.002 0.21,5.706 0.03,16.774 0.02,22.998 -0.03,18.274 -1.91,36.728 -2,55 -0.05,10.357 0,18.225 0,24 M 887,383 c 3.283,-0.15 4.96,-0.402 10,-2 m -73,2 c 0,4.009 0,5.437 0,11 4.235,-0.035 6.102,-0.276 10,-1 m 41,-9 c -4.698,2.863 -6.411,2.75 -10,1 m 277,-1 -1,68 -1,19 0.6,5.775 7.4,4.04 8,0.185 M 143,386 c -1.704,2.781 -2.967,5.496 -2.999,12 -0.023,4.664 -0.001,13.811 -0.001,19 0,16.106 0.077,32.971 -0.001,49 -0.024,5.007 -0.857,7.812 -0.984,13 -0.089,3.601 -0.015,5.603 -0.015,9 0,4.732 0,11.091 0,16 0,13.208 0,30.689 0,41 M 988,392 c -5.743,4.558 -14.309,10.48 -21.985,17.289 -2.91,2.58 -5.122,4.755 -7.876,7.997 C 952.285,424.176 955,430.26 955,441 v 54 c 0,5.515 0.821,11.609 0.956,17 0.067,2.673 -0.048,5.426 -2.274,7.258 -2.902,2.387 -5.801,1.479 -9.682,1.028 -6.254,-0.728 -12.507,-0.135 -18,-0.135 -3.03,0 -5.685,-0.147 -9,-0.151 -21.296,-0.026 -44.835,1.212 -66,-1.286 -8.149,-0.961 -20.272,-0.366 -28,-0.756 -2.465,-0.125 -3.672,-0.576 -6,-0.722 -3.077,-0.193 -6.494,0.714 -10,0.76 -5.851,0.077 -9.135,1.454 -12.397,-1.738 -1.836,-1.798 -1.597,-5.234 -1.603,-8.258 -0.015,-7.387 0.217,-16.591 -0.015,-24 -0.094,-2.977 -0.384,-6.091 -3.213,-7.821 -6.528,-3.991 -19.977,-2.067 -27.772,-3.025 -3.382,-0.415 -5.707,-1.022 -9,-1.203 -3.146,-0.174 -4.801,0.079 -8,0.045 -3.232,-0.034 -5.042,-0.361 -8,-0.71 -2.73,-0.323 -5.103,-0.272 -8,-0.287 -8.129,-0.042 -16.902,-0.976 -25,-1.999 m 112,47 c 0,-1.578 0,-2.877 0,-6.005 0,-4.858 -0.104,-12.821 -0.714,-17.995 -1.407,-11.922 -0.225,-25.056 -0.287,-37 -0.02,-3.841 0.113,-5.862 -1.456,-9 -1.657,-3.314 -4.945,-6.386 -7.544,-9 -4.164,-4.188 -8.895,-8.216 -10.774,-14 -1.736,-5.341 -2.47,-12.222 -0.907,-17.942 1.345,-4.925 7.374,-4.996 11.682,-5.858 7.604,-1.521 12.115,-2.894 17,-4.2 m -711,5 c 0.94,1.307 2.53,1.904 2.943,7.002 C 115.285,411.223 114,427.409 114,433 v 74 c 0,10.273 -3.322,27.879 0.603,36.852 1.747,3.993 5.172,2.832 8.397,1.148 M 962,417 c 8.214,0.648 18.429,1.999 25,2 m -376,84 c 0,3.752 0.672,7.981 -1.603,10.682 -1.88,2.231 -4.558,2.26 -7.397,2.313 -6.504,0.123 -19.794,2.016 -24.397,-2.598 -2.881,-2.889 -1.608,-10.965 -1.603,-15.397 0.004,-3.163 0.1,-5.108 0.139,-8 0.036,-2.689 -0.015,-4.301 -0.168,-7 -0.149,-2.658 -0.557,-4.431 -0.801,-7 -0.485,-5.091 -1.718,-18.816 2.148,-22.49 7.88,-7.489 27.329,-11.905 37.682,-11.396 4.457,0.219 8.224,1.158 13,1.731 28.225,3.388 57.608,6.668 86,10.579 9.661,1.33 19.349,2.425 29,3.848 4.202,0.619 7.8,0.2 9.972,3.242 2.036,2.85 1.028,6.238 1.028,9.486 M 610,443 c 0,5.238 0,14.408 0,23 m 33,-14 c 0,8.299 -1.877,13.744 6,15 v 5.025 L 649.004,481 650,508.998 V 516 c -1.953,0 -3.809,0 -7.002,0 -7.616,0 -26.844,0.227 -31.998,-1 m -19,-60 v 19 m 58,-8 c 7.086,-0.255 28.594,2 41,2 m 3,1 h 6 m 409,7 c -0.44,1.843 -0.94,3.513 -1,8 -0.04,3.93 1.12,9.774 -2.32,11.958 -2.86,1.815 -7.21,0.399 -10.68,-0.271 -2.29,-0.442 -3.72,-1.098 -6,-1.501 -2.66,-0.471 -4.64,-0.219 -7,-0.483 -5.83,-0.652 -10.86,-2.055 -14,-2.703 m 20,2 c -0.41,-11.604 14.27,-14.154 20,-15 m 28,1 c 2.02,0 0.98,0 3,0 m -535,1 c -8.587,4.573 -18.474,7.741 -27,9 m 604,-9 c 3.67,2.502 4.13,2.274 7,2 m 67,4 14,1.833 15,0.169 15,0.998 m -23,0 c -0.3,7.071 -1.13,5.821 -0.67,13 0.18,2.749 0.55,3.422 0.6,6 0.08,3.402 -0.55,5.852 0.07,7 m -227,-25 c 0,4.677 0,7.451 0,13 0,9.732 0,13.029 0,20 5.51,0 12.17,-0.715 22,0.576 16.62,2.182 35.22,2.221 52,2.42 8.65,0.103 15.98,1 22,1.004 M 593,492 v 16 m 515,-12 c 9.38,5.199 24.97,4.354 38,6 m 95,-1 c 5.52,1.343 17.55,0.999 27,1 2.71,0 4.18,-0.104 7,0.089 2.86,0.196 5.25,0.751 8,0.872 4.41,0.193 11.31,0.039 16,0.039 m -269,-1 c 0,3.741 -0.11,8.394 0.08,12 0.1,2.113 -0.04,4.651 1.14,6.566 1.77,2.849 5.14,2.399 8.78,2.434 4.48,0.043 6.01,0.413 8,1 m 194,-22 c 0,1.181 0.07,2.253 0,6.005 -0.05,2.575 0.18,4.609 -1.6,6.392 -1.71,1.707 -4.08,1.555 -6.4,1.598 -5.8,0.109 -16.19,1.005 -22,1.005 -4.11,0 -5.4,0 -9,0 -3.26,0 -5.47,0 -9,0 -6.4,0 -24.95,1 -31,1 -2.79,0 -4.11,-0.109 -7,0.089 -4.94,0.34 -2.9,0.508 -8,0.911 m -100,5 c 0,7.377 0,23.719 0,30 -2.32,0.183 -4.51,0.671 -8,0.911 -5.54,0.38 -16.82,0.089 -23,0.089 h -56 c -7.108,0 -21.814,0 -28,0 -2.122,0 -4.329,0 -7,0 -3.219,0 -4.457,-10e-4 -8,0 -5.683,0.002 -13.132,0.998 -19,1 h -44 c -16.56,0.027 -36.72,1.384 -53,0.985 -3.193,-0.078 -5.051,-0.535 -8,-0.815 -3.459,-0.329 -6.469,-0.17 -11,-0.17 -28.168,0 -56.827,0.806 -85,2.039 -11.819,0.518 -26.441,0.527 -38,1.036 -3.445,0.151 -5.948,0.134 -9,0 -3.215,-0.142 -4.459,-0.075 -8,-0.075 -8.825,0 -20.872,0 -30,0 -21.312,0 -42.695,-0.507 -64,0.015 -15.305,0.375 -30.775,0.985 -42,0.985 0,6.926 0.024,19.545 0,31 -0.006,3.057 0.52,5.316 -1.028,7.566 -1.585,2.304 -4.965,2.417 -7.972,2.855 -5.526,0.803 -26.312,5.597 -29.972,0.976 -3.913,-4.941 -1.07,-21.15 -1.027,-27.397 0.02,-2.88 -0.318,-5.416 1.602,-7.411 1.642,-1.705 4.245,-1.945 6.397,-2.388 4.057,-0.836 8.843,-1.593 13,-2.281 3.66,-0.607 8.556,-1.188 11.999,-2.059 2.932,-0.741 5.095,-1.593 6.398,-4.905 3.06,-7.78 0.599,-23.531 0.603,-32.956 10e-4,-3.324 -0.257,-8.13 2.318,-9.397 5.192,-2.555 10.087,-0.144 16.682,0.308 13.145,0.9 40.108,2.206 49,0.089 m -135,15 c 7.2,-2.024 16.976,-3.857 25,-5.756 13.49,-3.193 33.615,-9.07 42,-9.244 m 768,0 c 0,1.8 -0.11,4.056 0.02,7.001 0.08,1.815 0,3.879 1.58,5.226 4.64,3.935 16.12,-0.21 22.4,-0.227 m -58,-10 c 9.96,0.572 26.65,-1 33,-1 m 2,0 c 5.04,0 11.47,0 23,0 m -648,2 c 5.868,-1.735 18.71,-0.021 32,0 26,0.042 52,0 78,0 13.336,0 23.812,-1.125 31,1 m -141,-1 c 0,9.28 -0.94,29.342 0.17,41 0.375,3.939 0.778,4.938 0.826,9 0.081,6.766 -0.295,9.417 -0.826,15 -0.641,6.737 -1.007,11.786 0.83,18 6.243,-1.845 24.677,-1.93 39,-2.911 22.17,-1.518 44.764,-1.089 67,-1.089 7.656,0 21.05,-0.815 28,-0.985 2.668,-0.066 3.517,-0.015 6,-0.015 5.793,0 10.792,-0.907 17.329,0.415 L 811,596 c -1.18,0.654 -1.768,1.351 -5.025,2.161 -6.808,1.695 -11.405,1.341 -12.657,-3.22 C 792.511,592.003 793,589.472 793,586 c 0,-5.423 0,-16.719 0,-22 0,-2.77 0,-5.105 0,-8 0,-2.734 0,-4.422 0,-7 0,-9.687 0.38,-25.332 -1,-30 m 450,-1 c -1.53,5.563 1.15,8.284 -2.33,11.258 -2.02,1.721 -3.92,1.548 -6.67,1.896 -7.35,0.931 -22.92,1.398 -29,2.846 M 955,519 c 7.269,3.879 25.289,3.227 32,2 m -61,0 c 0,8.582 0,17.448 0,26 0,2.527 0,5.64 0,8 0,4.65 0,5.566 0,11 0,6.037 -0.539,7.862 -0.811,12.995 -0.202,3.83 1.043,5.408 3.87,5.853 6.306,0.992 19.07,-1.508 25.941,-2.424 20.642,-2.751 41.231,-4.4 62,-7.294 6.45,-0.899 18.32,-2.244 24,-3.634 1.99,-0.488 4.51,-0.926 6.05,-3.006 1.34,-1.797 1.05,-3.273 1.11,-5.491 0.06,-2.527 -0.53,-5.341 1.47,-7.315 1.82,-1.799 3.74,-1.515 6.37,-1.629 4.19,-0.183 10.57,-0.055 15,-0.055 h 48 c 10.56,0 17.42,-0.724 24,0 -5.32,3.07 -12.73,3.535 -23,5.247 -16.63,2.77 -33.31,5.536 -50,7.883 -9.98,1.403 -16.97,3.448 -22,0.87 m -35,-47 c 5.62,3.001 11.38,3.001 17,0 m -719,35 c 2.106,7.126 4.051,14.845 0.397,23.942 -1.228,3.057 -3.574,3.866 -6.398,4.664 -2.192,0.619 -5.318,1.689 -6.971,-0.249 -3.436,-4.025 -2.489,-19.34 0.575,-22.858 1.708,-1.959 4.031,-2.423 6.396,-3.348 2.15,-0.84 3.881,-1.401 5.398,-3.379 1.587,-2.069 1.551,-4.235 1.598,-6.772 0.095,-5.03 -1.345,-11.758 3.153,-14.925 17.721,-12.477 42.575,-8.554 62.852,-7.164 9.637,0.66 20.281,1.24 27,2.089 m 61,-4 c 0,7.167 0.604,24.468 0.961,33 0.119,2.853 0.312,6.408 -1.564,8.258 -1.781,1.757 -3.75,1.707 -6.397,2.152 -6,1.007 -13.876,1.793 -20,2.724 -3.691,0.562 -6.991,1.675 -10,1.929 -2.301,0.195 -3.765,0.197 -6,0.53 -9.835,1.467 -22.026,4.15 -28,4.407 0,5.786 -0.18,15.112 0.831,25 0.242,2.366 -0.099,5.517 1.772,7.218 1.887,1.716 3.757,1.106 6.397,0.936 6.217,-0.399 13.636,-1.153 20,-1.154 m -84,-83 c 0,3.676 -0.028,11.798 10e-4,16 0.015,2.192 -0.753,5.107 1.602,6.972 2.587,2.049 8.782,1.028 12.397,1.028 10.326,0 26.208,-2.355 35.941,0.318 3.909,1.073 3.986,4.043 4.054,7.682 0.115,6.113 1.918,11.507 -0.193,15.772 -1.265,2.556 -12.874,3.982 -15.802,4.767 -5.227,1.401 -6.552,0.402 -11.682,3.778 -2.939,1.934 -2.316,6.286 -2.318,9.683 -0.003,6.298 3.418,15.903 -2.166,19.991 -3.561,2.607 -8.35,1.944 -13.834,2.033 -2.502,0.04 -5.275,-0.112 -8,0.075 -5.211,0.357 -9.679,1.732 -16,1.886 -4.604,0.113 -6.096,-0.25 -10,-0.034 -2.962,0.163 -3.991,0.706 -7,0.949 -2.968,0.239 -4.832,-0.077 -8,0.027 -7.861,0.259 -10.395,1.859 -20,3.073 m 206,-94 1,25 m 756,-21 c 5.02,0 24.36,-1.117 32,-3 m -923,4 v 11 m 78,-9 c 0.321,4.062 0.891,6.154 0.985,10 0.261,10.638 1.292,22.86 -1.985,29 m -21,-37 c -6.404,4.363 -14.479,4.355 -13,14 m 53,-13 v 20 m 709,-20 c -3.82,2.047 -4.82,1.91 -8,2 m -738,5 v 20 m 877,0 c 0.74,-5.878 0.22,-13.606 3.03,-17.486 2.21,-3.058 7.28,-2.091 7.81,1.545 0.61,4.277 -1.01,10.493 -1.84,13.941 m -58,19 c -1.12,0.468 -2.57,1.857 -4.42,0.769 -2.17,-1.278 -1.59,-3.898 -1.58,-6.769 0.03,-5.38 -0.59,-14.005 3.32,-17.411 2.01,-1.754 6.35,-2.112 8.68,-2.735 4.1,-1.096 7.98,-1.744 12,-2.685 2.81,-0.657 4.4,-0.767 7,-1.303 8.98,-1.852 20.06,-4.93 26,-4.866 m -1071,0 c 2.353,0.691 5.67,0.37 7.397,4.228 2.009,4.489 0.74,15.806 0.585,20.772 -0.083,2.675 -0.616,4.286 -0.678,7 -0.061,2.687 0.544,4.785 0.654,7 0.355,7.212 0.042,20.827 0.042,25 M 1,551 c 4.61463,-0.364 8.73504,-0.846 13,-1.039 3.1325,-0.143 4.9545,-0.663 8,-0.872 4.091,-0.28 7.1565,0.079 11,-0.375 5.7081,-0.673 10.8901,-0.714 17,-0.714 3.5822,0 5.5819,0 9,0 7.0021,0 18.8099,-1.249 26,-0.96 3.1748,0.128 5.0965,0.881 8,0.92 2.5766,0.034 4.6403,-0.669 7,-0.86 5.738,-0.465 9.486,-0.263 13,-1.1 m 1168,1 c -0.91,7.167 -3.59,17.056 0,21 l 3,-2 M 94,549 c 0,5.179 0.0598,18.206 -8e-4,27 -0.0197,2.863 0.0906,6.214 -2.3171,7.821 -2.1093,1.408 -3.8355,1.135 -6.6821,1.175 -7.1634,0.1 -14.8084,0.992 -22,1.004 -20.2866,0.033 -42.0144,0.29 -62,4 m 1271,-41 c -0.4,5.125 0.35,8.8 -1.72,15.999 -1.29,4.449 -4.5,6.588 -8.28,9.001 -3.81,-7.771 0.28,-17.328 1,-23 m -950,5 c 3.808,-1.239 11.051,-4.274 19,-5.532 2.11,-0.334 3.801,-0.662 5.682,0.564 1.976,1.287 2.121,3.411 2.259,4.973 0.238,2.673 0.085,8.949 0.055,11.995 -0.026,2.693 -0.841,6.444 0.777,8.281 1.62,1.839 3.939,1.602 6.227,1.69 7.677,0.293 22.597,0.029 27,0.029 M 0,551 h 1 m 1251,3 c -2.11,7.08 -6.98,23.989 5,21 m -1144,-20 1,17 m 14,-17 1,13 m 1114,-13 c -0.19,4.494 -1.17,8.499 -1.83,16.999 -0.34,4.452 0.49,6.394 4.83,6.001 m -1139,-22 1,13 m 13,-13 1,15 m 1107,12 c -4.67,1.064 -5.78,-0.308 -5.98,-5.005 -0.2,-4.737 -0.36,-13.787 2.01,-17.851 1.95,-3.349 5.02,-3.499 7.97,-4.144 m -888,1 v 12 m 873,18 c -2.62,-2.564 -2.74,-5.626 -2.17,-11 0.46,-4.29 -0.39,-8.038 0.71,-12.945 0.99,-4.385 3.31,-4.393 7.46,-5.055 M 10,559 v 16 m 4,-16 1,18 m 335,-18 v 11 m -322,-10 1,15 m 1184,-15 h 2 M 46,561 v 11 m 7,-11 v 12 m -32,-11 1,13 m 1186,-13 c -1.43,6.949 -3.14,19.386 -9,28 m 71,-21 4,1 m -789,1 v 23 m -55,-21 c 0,4.798 -0.005,13.758 0,24 0.003,5.616 -0.397,9.362 5,11 M 181,769 c -1.129,0.691 -2.257,1.905 -5.02,2.393 -1.858,0.328 -6.764,-0.222 -4.804,-3.964 2.343,-4.475 10.048,-0.054 11.824,0.039 3.69,0.193 3.715,-0.362 8,-3.139 5.467,-3.544 12.427,-8.281 18,-11.996 13,-8.666 26.193,-17.104 39,-26.053 7.73,-5.402 14.586,-9.665 20,-14.28 -7.758,-7.125 -17.555,-13.001 -27,-21.286 -3.919,-3.438 -7.234,-6.996 -11,-10.712 -2.1,-2.073 -4.124,-4.544 -7,-5.264 -2.256,-0.565 -4.713,0.129 -7,0.414 -6.645,0.828 -14.264,1.689 -21,2.566 -22.668,2.953 -45.361,5.667 -68,8.858 -7.522,1.06 -16.587,2.595 -24,3.253 -2.359,0.21 -5.5044,0.421 -6.9722,-1.432 C 94.5932,686.585 95.0175,684.42 95.0008,682 94.9671,677.112 95,671.007 95,666 c 0,-4.661 0,-8.262 0,-12 0,-2.494 0,-4.473 0,-7 0,-5.441 0.026,-13.455 -8e-4,-19 -0.0162,-3.359 -0.3652,-6.046 -0.7137,-9 -0.3503,-2.969 -0.2842,-4.63 -0.2855,-8 -0.002,-5.103 -0.0874,-14.13 0.0046,-18.999 0.0375,-1.983 -0.1266,-4.526 1.5988,-6.013 1.7374,-1.496 3.9688,-1.569 6.3966,-1.817 7.19,-0.736 16.584,-1.136 24,-1.172 23.332,-0.112 46.668,-3.884 70,-3.998 11.1,-0.054 21.844,-0.535 28,-2.001 m 88,5 c 8.775,0.323 19.44,-2.605 26,-5 m 3,1 c 0,6.636 -0.074,19.676 -1,27 7.044,1.291 14.815,0 22,0 m 86,-23 c 0,10.12 4.5,24.841 -9,25 M 313,583 c 0,6.714 -0.428,18.548 0,26 6.671,-1.588 20.533,-2.309 26,-3 m 7,-21 v 14 m 64,-14 1,16 m 400,-5 c 7.359,0 11.336,-0.905 19,-0.996 2.679,-0.032 4.345,0.073 7,-0.043 15.948,-0.699 39.435,-4.496 56,-6.036 10.405,-0.967 23.827,-2.158 31,-3.925 m -625,1 c -4.013,7.519 -1.744,22.882 -2,30 m 53,-30 v 13 m 851,-10 2,2 M 0,590 h 1 m 380,1 c 0,5.758 1.866,14.505 -1.603,18.686 -4.027,4.853 -9.149,2.525 -14.397,2.314 m -262,-20 1,14 M 25,594 v 18 M 8,595 v 9 m 258,-9 c 0,5.171 2.656,11.662 -1.028,17.775 -1.639,2.72 -4.291,3.361 -6.971,3.9 -4.074,0.819 -5.342,-0.673 -7.001,4.325 M 31,596 v 17 m 220,-16 c 0,6.887 0,14.229 0,19 m 256,-18 c 8.507,4.539 22.727,-3.136 35,0.652 3,0.926 7.181,4.492 10,5.194 3.584,0.891 5.917,-0.622 10,-0.807 8.741,-0.396 19.389,-0.843 28,-1.054 2.951,-0.072 5.144,-0.543 8,-0.815 3.37,-0.321 5.236,-0.092 9,-0.185 4.314,-0.105 6.549,-0.861 11,-0.97 4.985,-0.123 6.883,-0.015 11,-0.015 9.736,0 17.035,-0.436 21,0 m 2,0 c 0.002,3.126 -0.706,7.088 1.603,9.397 1.785,1.784 3.72,1.56 6.397,1.598 8.609,0.12 22.942,-1.64 32,-2.709 22.914,-2.706 46.073,-3.294 69,-6 11.471,-1.355 23.42,-0.156 32,-4.286 m -326,5 -8,2 m -118,1 c 0,2.599 0,2.522 0,6 m 109,-6 h 6 m 98,0 c 7.776,8.754 17.175,10.443 29,10.961 4.9,0.214 10.228,-0.543 15,-0.872 14.229,-0.979 45.044,-1.285 54,-6.089 m -354,1 c 7.157,-0.924 10.172,-1.924 14,-3 m 1,1 v 6 m 68,-4 c 6.053,1.391 9.747,0.1 14,-1 m -394,16 57,-4.089 28,-1.926 7,-0.714 7,-0.985 15,-1 83,-5.286 m 68,4 c 0,3.156 0,1.021 0,3 m 833,11 39,-10 m -57,21 70,-19 m -1029,3 v 13 M 0,626 h 1 m 13,36 c 21.6723,-0.06 43.363,-4.831 65,-6.036 3.0916,-0.172 7.2036,-0.779 10,-1.039 1.8742,-0.174 3.577,-0.5 6,-0.759 2.6607,-0.285 4.141,-0.365 7,-0.742 6.636,-0.873 15.186,-0.953 22,-1.848 17.818,-2.341 36.071,-3.409 54,-4.665 6.721,-0.472 14.371,-1.572 21,-1.911 3.001,-0.153 5.381,-0.014 7.671,-1.858 2.692,-2.167 2.229,-6.242 4.597,-8.148 5.333,-4.294 9.891,-4.813 12.732,-5.994 m -177,1 1,16 m -19,-15 1,18 m 388,-15 c 8.889,-0.382 14.586,-2.062 22,-3 M 8,632 v 23 m 7,-23 v 21 m 8,-21 1,19 m 1112,-19 -73,21 M 5,634 v 18 m 1139,-14 -21,6.421 -53,14.87 -25,6.709 m -686,-26 -2,2 m -149,2 c 4.394,7.07 10.14,21.626 15,28 m 802,8 41,-12.025 49,-14.695 28,-8.28 M 101,658 v 19 m 12,-19 1,16 m 4,-16 v 18 m 33,-18 v 13 m 848,21 48,-11.849 78,-22.151 m -1019,1 1,20 m 20,-18 v 15 M 6,663 h 6 m -12,1 h 2 m 39,2 v 17 M 22,669 v 22 M 5,671 6,691 m 22,-20 v 17 M 14,672 v 21 m 1086,-13 c -15.05,5.677 -36.72,10.816 -53,15.116 -12.07,3.189 -28.32,8.467 -40,10.884 M 1,704 c 20.9377,-6.247 45.3285,-6.521 67,-9.576 10.6945,-1.507 20.3519,-2.366 26,-4.424 m 902,3 h 1 m -752,2 -40.715,46 -17.476,19.995 L 182,767 M 0,704 h 1 m 268,8 c 4.733,3.441 10.807,7.059 18,11.692 13.557,8.732 27.012,17.535 40,26.103 2.902,1.914 5.178,2.88 7.998,4.803 2.097,1.43 3.869,2.627 5.117,4.691 1.298,2.147 1.191,4.488 1.471,6.711 0.495,3.938 0.414,8.915 0.414,13 0,18.381 1,36.61 1,55 m -52,-91 c 4.359,5.052 4.524,12.808 -2.848,11.573 -6.489,-1.086 -0.027,-8.491 2.848,-11.573 m 38,8 c -6.4,3.812 -8.148,3.093 -16,4.79 -2.548,0.551 -4.359,0.45 -7,1.148 -2.174,0.574 -3.68,1.351 -6,1.852 -2.437,0.526 -4.497,0.551 -7,1.018 -5.876,1.095 -10.82,3.275 -17,3.192 m 50,-9 c 0,9.922 -1,33.064 -1,45 m -12,-42 c -0.015,5.342 -0.656,15.238 -1.039,24 -0.905,20.657 -2.961,41.292 -2.961,62 m -9,-83 c -0.015,5.318 -0.266,15.356 -1.285,24 -2.422,20.522 -3.701,42.334 -3.715,63 m 48,-87 c 6.346,5.15 18.29,10.833 20.798,20 0.88,3.216 0.215,6.342 0.203,10 -0.04,12.38 -10e-4,25.547 -10e-4,38 m -101,30 c 4.48,-6.222 4,-15.352 4,-23 0,-15.669 2,-31.331 2,-47 0,-6.992 -0.682,-20.515 5,-24 m 8,0 c 0,6.643 0,18.161 0,26 v 61 m -26,8 c 2.187,-7.398 0.534,-15.883 1.09,-24 1.111,-16.224 2.831,-32.737 2.909,-49 0.039,-8.076 -0.178,-22.425 10.001,-19 m -16,1 7,1 m -23,5 c 2.497,-1.847 8.418,-5.969 10.687,-1.667 2.867,5.437 0.049,17.718 -0.517,23.667 -1.294,13.6 -0.282,27.422 -1.885,41 -0.527,4.472 -0.125,11.857 -0.304,16 -0.22,5.076 -5.829,11.943 -10.953,7.589 l -0.71,-1.662 c -1.014,-3.588 0.128,-11.138 0.592,-17.927 1.086,-15.847 2.064,-32.123 2.09,-48 0.011,-6.877 4.556,-19.255 -5,-20 m 121,-3 -10e-4,19 L 352,831 M 182,771 c -0.368,3.296 1.14,7.554 -6.999,7.922 -1.899,0.086 -3.868,-0.088 -4.933,-1.521 C 168.377,775.126 169.82,772.863 170,772 m 52,96 c 0,-23.343 2.991,-46.656 3,-70 0.003,-6.767 -0.302,-20.748 5,-24 m -27,88 c 0,-20.385 1.327,-41.762 3.715,-62 0.7,-5.933 -1.298,-14.508 2.298,-19.57 3.226,-4.542 11.64,-4.32 16.987,-4.43 m -73,112 c 0.197,-23.818 2.572,-48.287 4.83,-72 0.533,-5.595 0.788,-13.685 1.341,-19 0.256,-2.465 0.271,-4.511 1.817,-6.436 1.787,-2.223 5.98,-2.724 9.012,-3.431 9.108,-2.122 29.866,-9.445 38,-6.133 m 157,1 c 8.293,4.237 9.9,11.425 10.025,22 0.106,8.866 2.819,11.379 -0.025,21 M 194,783 c -1.287,6.93 -1.811,19.718 -2.015,28 C 191.436,833.358 188,855.593 188,878 M 177,787 175.285,807 173,855 M 43.2986,791.176 c 5.142,-2.469 7.5321,8.905 2.6289,10.926 -5.3052,2.187 -6.66,-0.958 -5.5988,-5.106 0.5144,-2.01 0.9379,-4.844 2.9699,-5.82 M 110,799 c 7.401,-0.583 16.001,-2.956 23,-4.077 2.51,-0.402 4.557,-0.554 7,-1.057 9.886,-2.037 12.715,-3.552 20,-3.866 m -20,5 c -0.003,4.5 -0.963,9.569 -0.999,17 -0.063,13.038 -1.001,25.942 -1.001,39 m 239,-53 c 3.063,5.388 5.726,15.701 4,25 M 121,799 c -0.005,7.116 -0.514,20.59 -1.09,29 -1.596,23.313 -1.91,46.588 -1.91,70 m -21,-96 10,-2 m -15,3 c -3.6189,5.031 -3.3874,18.388 -4.2855,26 C 84.6477,854.991 84,881.816 84,908 M 103,803 102.039,819 101,854 M 83,805 h 2 m -16,3 12,-2 m -16,3 h 1 m 9,0 c -0.0046,7.006 -1,19.679 -1,28 0,22.796 3.4577,53.153 -3,75 m -15,4 c 0,-26.068 -0.8157,-54.172 2.5756,-80 1.0321,-7.86 -1.3835,-20.633 4.4244,-26 m 261,1 v 29 M 21,818 60,812 m -17,4 c 0,10.234 -1,34.651 -1,47 M 1,822 18,819 m 10,0 c 0,5.736 -1,18.596 -1,28 0,25.719 -1,51.321 -1,77 M 0,822 h 1 m 12,1 c -2.0794,7.035 -0.5921,14.736 -1.0895,22 -1.2427,18.146 -1.9035,36.818 -1.9105,55 -0.00359,9.311 2.4477,22.666 -2,31 m 92,-73 c 0,8.53 0.303,25.459 -0.0394,33 -0.19,4.18 -0.1715,7.126 -3.3904,10.621 C 93.6081,904.837 89.3265,906.988 88,908 m 49,-50 v 18 m 35,-17 v 24 m 63,-21 -7,5 M 41,865 v 38 l -2,19 m 97,-43 v 14"
       id="path1530" />
  </g>
</svg>
