<?xml version="1.0" standalone="no"?>
<!DOCTYPE svg PUBLIC "-//W3C//DTD SVG 20010904//EN"
 "http://www.w3.org/TR/2001/REC-SVG-20010904/DTD/svg10.dtd">
<svg version="1.0" xmlns="http://www.w3.org/2000/svg"
 width="632.000000pt" height="634.000000pt" viewBox="0 0 632.000000 634.000000"
 preserveAspectRatio="xMidYMid meet">
<metadata>
Created by potrace 1.10, written by Peter Selinger 2001-2011
</metadata>
<g transform="translate(0.000000,634.000000) scale(0.100000,-0.100000)"
fill="#000000" stroke="none">
<path d="M853 5130 c-6 -17 -23 -34 -37 -40 -30 -11 -34 -25 -10 -34 12 -4 15
-2 10 9 -3 8 0 15 6 15 6 0 17 8 24 18 19 24 16 4 -4 -38 -21 -43 -82 -69
-167 -70 -64 0 -97 -12 -75 -25 7 -4 15 -4 19 1 3 5 35 10 70 12 37 1 83 11
109 22 53 24 52 24 52 7 0 -18 -80 -58 -115 -57 -16 0 -61 2 -98 4 -73 3 -112
-12 -90 -34 8 -9 20 -9 49 0 21 7 72 13 113 14 63 1 82 6 108 26 18 13 35 21
37 19 3 -3 -2 -46 -10 -96 -12 -76 -19 -97 -44 -125 -17 -18 -38 -42 -48 -54
-10 -11 -40 -29 -68 -38 -86 -31 -95 -36 -89 -46 3 -6 20 -10 38 -10 50 0 19
-17 -62 -34 -82 -17 -92 -23 -71 -37 18 -12 110 -2 165 17 53 18 91 18 99 -1
4 -11 13 -14 32 -9 25 6 26 6 19 -27 -17 -85 -28 -113 -61 -149 -38 -42 -124
-90 -162 -90 -48 0 -92 -37 -67 -56 12 -9 10 -13 -12 -23 -25 -11 -26 -14 -10
-22 12 -7 28 -7 50 0 18 6 67 20 110 31 43 11 91 28 106 39 l28 20 -5 -24 c-2
-15 0 -25 7 -25 6 0 11 14 11 30 0 20 5 30 15 30 11 0 15 -11 15 -42 -1 -34
-6 -47 -25 -61 -14 -10 -25 -13 -25 -7 0 5 -4 10 -10 10 -5 0 -10 -6 -10 -14
0 -8 -7 -22 -17 -31 -11 -11 -13 -19 -5 -24 17 -10 -21 -108 -58 -145 -17 -19
-46 -36 -63 -39 -64 -11 -90 -26 -85 -50 4 -19 0 -22 -28 -23 -48 -1 -114 -33
-114 -56 0 -28 34 -22 105 17 52 29 64 33 69 20 3 -8 13 -15 22 -15 9 0 22 -7
29 -16 17 -24 51 -9 82 37 44 67 58 54 58 -53 0 -51 3 -107 8 -123 l8 -30 -43
3 c-45 4 -98 -11 -98 -27 0 -21 55 -31 109 -21 30 5 55 10 57 10 1 0 5 -21 9
-47 3 -27 8 -65 10 -85 l5 -38 -37 2 c-70 2 -173 -5 -173 -12 0 -28 91 -70
152 -70 68 0 71 -5 69 -116 -1 -55 -4 -114 -7 -131 -4 -19 -2 -33 4 -33 5 0
12 21 16 46 10 73 39 98 51 44 5 -24 11 -30 28 -27 45 6 48 13 46 135 -1 178
0 200 12 208 8 5 8 9 -1 14 -9 5 -9 17 -1 44 5 21 7 44 4 52 -3 8 0 14 7 14 6
0 8 5 5 10 -3 6 -1 10 4 10 6 0 11 -5 11 -10 0 -7 7 -7 20 0 11 6 20 7 19 3
-1 -4 -1 -16 0 -26 1 -15 3 -16 15 -5 10 9 11 15 2 20 -7 5 -6 8 4 8 10 0 11
3 4 8 -7 4 -15 54 -19 115 -4 59 -11 107 -15 107 -16 0 -23 -21 -11 -33 6 -6
11 -20 11 -30 0 -16 -3 -17 -15 -7 -11 9 -15 9 -15 1 0 -6 7 -14 15 -17 10 -4
12 -10 7 -18 -9 -11 -12 -46 -5 -46 2 0 8 10 13 23 7 18 9 13 9 -25 1 -43 -1
-48 -25 -54 -17 -4 -29 -2 -34 6 -13 20 -1 38 21 33 18 -5 19 -6 2 -19 -16
-12 -16 -13 -2 -14 29 0 31 30 4 40 -19 7 -25 17 -26 42 l-2 33 -8 -35 c-7
-32 -7 -31 -3 10 14 158 16 243 5 236 -6 -4 -11 -25 -11 -46 0 -21 -5 -42 -10
-45 -6 -4 -10 -12 -9 -18 3 -28 -2 -33 -32 -29 -22 3 -30 1 -25 -7 4 -6 18
-11 30 -11 21 0 24 -6 30 -51 10 -72 -8 -91 -82 -87 l-55 3 4 90 c2 50 3 111
4 138 0 42 2 47 23 47 35 0 114 21 137 37 28 19 45 16 45 -8 0 -12 8 -23 19
-26 15 -4 20 -17 24 -61 3 -32 10 -77 15 -102 6 -25 8 -49 5 -54 -3 -5 -5 -46
-4 -91 2 -87 -5 -103 -38 -85 -24 12 -32 2 -24 -31 l7 -24 7 25 c6 23 7 23 8
-7 1 -29 -2 -32 -21 -29 -37 5 -45 -39 -36 -204 8 -148 17 -205 34 -205 5 0
10 14 11 30 2 22 1 25 -5 11 -5 -12 -12 17 -20 85 -15 128 -15 226 -1 234 6 4
8 13 5 21 -3 9 2 14 14 14 19 0 19 -7 17 -132 -1 -75 2 -140 8 -150 7 -11 9
28 7 128 l-4 144 35 0 35 0 5 -52 c4 -51 30 -159 44 -181 4 -6 10 -2 14 10 6
15 14 19 32 16 34 -7 51 26 43 82 l-5 43 37 5 c20 2 41 0 47 -4 5 -5 17 -9 26
-9 26 0 50 -44 42 -80 -4 -23 0 -39 14 -58 11 -15 22 -35 26 -45 4 -9 15 -20
24 -24 24 -9 31 -20 44 -70 6 -24 15 -41 19 -38 3 2 6 52 6 111 -1 96 0 103
11 68 6 -22 12 -58 12 -81 1 -46 14 -55 31 -23 6 11 17 20 25 20 8 0 15 5 15
10 0 6 7 10 16 10 12 0 14 8 8 45 -7 49 1 59 16 20 15 -39 72 -32 83 10 4 18
5 18 6 -2 1 -28 21 -30 28 -3 9 32 25 23 18 -10 -8 -34 2 -90 16 -90 5 0 9 9
9 19 0 18 2 19 33 5 17 -9 40 -20 50 -25 27 -15 30 -7 30 63 -1 42 1 53 5 34
12 -49 33 -54 86 -16 l46 33 33 -17 c18 -10 43 -16 57 -15 21 3 27 12 36 54 5
28 12 49 15 48 2 -1 16 -6 32 -12 15 -6 27 -18 27 -27 0 -26 31 -84 46 -84 8
0 15 18 19 48 9 69 10 70 26 37 9 -18 22 -30 34 -30 14 0 21 -8 23 -25 6 -39
22 -49 22 -13 0 18 4 34 9 37 11 7 21 -18 21 -54 0 -16 11 -41 24 -57 22 -25
26 -26 51 -15 24 11 26 16 20 48 -5 28 -3 35 7 31 7 -2 21 0 31 5 14 7 17 4
17 -20 0 -16 8 -47 17 -68 l18 -39 2 40 c9 142 16 186 26 182 7 -2 15 -19 18
-38 l6 -34 12 32 c13 33 49 63 76 63 12 0 15 14 16 68 1 37 4 58 7 47 10 -30
110 -35 135 -7 12 13 26 18 39 14 29 -7 57 33 58 81 0 34 2 37 29 37 25 0 31
-7 56 -62 15 -35 28 -85 30 -113 4 -83 29 -111 57 -65 17 26 42 25 62 -2 15
-23 16 -23 31 -4 8 11 15 14 15 8 0 -7 6 -12 14 -12 16 0 21 19 32 104 6 55 7
58 20 35 7 -13 17 -24 22 -24 5 0 22 -13 38 -28 15 -16 40 -31 55 -34 25 -5
28 -9 31 -62 2 -31 0 -86 -6 -123 -10 -68 -1 -98 28 -98 31 1 41 21 47 100 5
68 9 83 28 96 12 9 27 28 33 43 10 23 12 24 16 6 7 -34 22 -41 22 -11 0 24 3
26 23 21 12 -4 26 -11 32 -16 14 -14 32 -11 39 7 18 46 26 158 14 198 -6 22
-11 44 -10 48 1 4 -9 19 -23 32 -20 20 -25 35 -25 73 0 42 4 52 31 76 17 15
35 27 40 27 5 0 13 8 17 18 9 22 179 185 210 201 12 6 22 17 22 24 -1 15 -103
65 -150 74 -19 3 -53 14 -75 23 -34 15 -42 24 -52 60 -9 36 -8 49 5 78 16 33
16 34 -8 53 -104 81 -217 193 -265 264 -88 129 -98 139 -135 140 -21 0 -35 6
-38 15 -5 13 -3 13 12 1 9 -8 19 -11 22 -8 3 3 -6 13 -21 23 -23 15 -31 15
-66 4 -30 -10 -48 -11 -76 -2 -24 8 -41 8 -47 2 -6 -6 -21 -10 -35 -10 -15 0
-46 -11 -69 -25 -24 -14 -48 -23 -52 -20 -5 3 -36 -14 -71 -36 -78 -53 -155
-62 -236 -30 -28 11 -53 17 -56 15 -11 -11 -175 74 -187 96 -21 39 -100 108
-108 95 -15 -27 -116 -105 -122 -95 -4 6 -14 2 -25 -10 -15 -16 -26 -19 -54
-14 -47 9 -80 26 -110 58 -31 33 -49 33 -62 0 -5 -15 -12 -24 -16 -21 -3 4
-19 -5 -36 -19 -16 -14 -51 -36 -77 -49 -31 -16 -51 -34 -60 -54 -9 -23 -23
-34 -62 -46 -31 -11 -59 -14 -76 -10 -48 14 -65 12 -100 -8 -19 -11 -62 -28
-96 -37 -56 -15 -68 -15 -108 -2 -29 9 -45 20 -44 29 1 11 -24 24 -82 43 -57
18 -94 37 -118 61 -23 21 -38 29 -41 22 -3 -9 -9 -10 -23 -1 -15 10 -23 9 -37
-4 -24 -22 -130 -68 -157 -68 -41 0 -46 -12 -50 -131 -5 -121 -13 -199 -20
-206 -3 -3 -8 12 -12 32 -6 35 -4 67 12 194 l7 53 -30 -6 c-23 -5 -32 -3 -36
8 -8 20 -49 21 -86 2 -15 -8 -56 -17 -92 -20 l-64 -5 57 12 c86 18 138 71 61
61 -34 -4 -32 -2 17 16 83 30 101 42 127 82 35 57 47 49 40 -29 -2 -38 -8 -76
-12 -85 -5 -12 -3 -18 6 -18 10 0 15 17 17 57 2 32 5 59 7 61 2 2 12 -1 23 -7
29 -16 93 -14 135 4 43 18 92 19 150 5 57 -15 122 -1 122 25 0 12 -8 21 -19
23 -11 2 -26 10 -34 18 -9 10 -41 14 -109 14 -83 0 -102 3 -137 24 -23 13 -56
27 -73 31 -18 3 -33 12 -33 18 0 7 -3 23 -7 36 l-6 24 44 -26 c53 -30 218 -49
244 -27 30 25 17 38 -42 45 -52 6 -135 19 -188 30 -11 2 -28 20 -39 39 -19 35
-19 43 0 144 8 40 -8 42 -23 2z m127 -214 c47 -9 102 -16 123 -16 35 0 51 -14
25 -22 -16 -6 -202 17 -219 27 -29 17 -48 38 -43 47 3 5 11 3 17 -5 7 -8 50
-22 97 -31z m-76 -89 c19 -3 49 -16 66 -29 27 -19 48 -24 138 -29 59 -3 97 -6
84 -7 -13 -1 -20 -7 -17 -12 4 -6 12 -10 18 -9 31 4 79 -2 73 -8 -4 -5 -67 -9
-139 -10 -73 0 -159 -4 -193 -8 -50 -5 -64 -4 -78 10 -9 10 -15 24 -12 32 3 8
6 38 7 66 0 39 2 47 9 31 5 -14 20 -23 44 -27z m1551 -61 c19 -51 100 -146
126 -146 8 0 -7 21 -33 46 -26 25 -50 54 -53 65 -4 11 -11 17 -16 14 -5 -3 -6
2 -2 11 4 12 3 15 -5 10 -8 -5 -10 -1 -5 10 6 15 7 15 19 -2 52 -77 95 -119
154 -152 36 -20 96 -62 134 -94 45 -38 72 -54 77 -47 4 8 11 4 18 -10 7 -12
16 -19 21 -16 6 3 15 -5 22 -19 6 -14 15 -26 20 -26 5 0 2 13 -6 29 -17 31
-13 42 12 34 13 -3 13 -1 -2 11 -11 9 -23 16 -28 16 -4 0 -19 23 -34 51 -32
64 -25 70 66 68 86 -2 88 -2 100 20 13 25 -3 36 -21 14 -12 -14 -12 -16 1 -8
8 4 12 5 8 0 -4 -4 -24 -9 -44 -11 -42 -4 -42 -4 16 35 49 32 70 28 63 -13 -4
-21 26 -92 119 -279 8 -17 7 -17 -24 -1 -18 9 -53 34 -77 55 -35 31 -47 37
-58 27 -11 -9 -13 -8 -11 3 3 14 -9 15 -62 3 l-25 -6 25 -13 c14 -8 42 -14 62
-15 23 0 47 -8 65 -24 27 -23 94 -56 142 -71 23 -7 22 -5 -8 32 -18 22 -31 44
-30 49 4 25 -2 45 -13 38 -6 -4 -8 -3 -4 4 3 6 0 26 -8 44 -14 34 -44 118 -53
152 -5 16 -2 17 28 11 50 -10 122 -35 136 -46 7 -6 9 -24 6 -43 -3 -20 -1 -36
6 -40 6 -4 11 -35 11 -71 0 -108 17 -165 62 -207 21 -21 47 -38 58 -38 10 0
30 -10 43 -22 36 -33 27 -92 -17 -119 -47 -28 -67 -24 -116 27 -68 70 -132
106 -275 153 -136 46 -173 62 -215 92 -14 11 -72 33 -129 50 -57 17 -111 35
-120 39 -9 5 -35 18 -59 29 -23 12 -56 37 -73 56 -22 25 -39 35 -60 35 -16 0
-29 -4 -29 -10 0 -5 -27 16 -61 48 l-61 58 22 42 c12 23 26 42 30 42 4 0 30
20 58 45 l49 44 7 -46 c3 -25 6 -61 6 -80 0 -37 24 -103 38 -103 10 0 -2 88
-22 160 -9 30 -16 61 -16 69 0 27 25 -8 45 -63z m-405 -51 c-12 -40 -45 -85
-63 -85 -5 0 -2 11 7 25 9 13 16 40 16 60 0 21 9 48 23 66 l22 31 3 -28 c2
-16 -2 -47 -8 -69z m28 16 c-2 -32 -6 -57 -9 -55 -4 2 -10 -3 -13 -12 -4 -9
-9 -15 -11 -12 -3 3 2 21 10 41 8 20 15 50 15 67 0 16 3 30 6 30 3 0 4 -27 2
-59z m19 -3 c-2 -13 -4 -5 -4 17 -1 22 1 32 4 23 2 -10 2 -28 0 -40z m1150
-25 c11 -38 12 -41 9 -13 -2 19 -8 44 -12 55 -7 18 -6 19 9 6 13 -10 17 -27
16 -67 -1 -29 -6 -51 -11 -48 -4 3 -20 28 -34 56 -20 40 -23 52 -13 59 18 10
20 8 36 -48z m133 35 c0 -10 4 -26 9 -36 6 -9 13 -34 16 -55 4 -26 20 -54 48
-84 l42 -46 -48 7 c-49 7 -76 26 -138 91 -24 24 -29 39 -29 78 0 31 4 46 11
42 13 -9 61 3 55 13 -2 4 4 8 15 8 12 0 19 -7 19 -18z m-1385 -25 c-6 -38 -26
-61 -79 -89 -27 -15 -29 -15 -21 2 4 11 7 28 7 39 0 13 16 31 46 51 26 18 49
32 51 33 2 1 0 -16 -4 -36z m145 -30 c0 -55 0 -55 -67 -120 -106 -102 -126
-103 -61 -5 15 24 28 47 28 52 0 5 13 22 29 38 16 16 33 45 36 65 5 25 11 34
21 30 10 -3 14 -22 14 -60z m980 27 c-22 -31 -35 -37 -44 -21 -5 7 43 45 62
50 2 1 -6 -12 -18 -29z m81 3 c11 -31 -5 -29 -26 3 -16 24 -16 26 1 22 9 -1
20 -13 25 -25z m-1002 7 c24 -7 39 -6 48 1 21 18 15 3 -26 -63 -57 -90 -77
-115 -124 -147 -38 -25 -167 -84 -167 -75 0 2 26 20 58 40 31 20 82 62 112 92
54 56 55 57 52 109 -4 57 -4 58 47 43z m992 -32 c45 -36 45 -47 0 -24 -17 9
-33 16 -36 16 -48 -2 -49 -1 -30 20 10 11 20 20 22 20 2 0 22 -14 44 -32z
m284 6 c14 -15 48 -62 76 -105 47 -71 198 -223 260 -262 21 -13 25 -42 8 -52
-6 -4 -9 -27 -6 -56 l5 -48 -37 15 c-20 9 -51 21 -68 27 -40 13 -59 33 -68 72
-7 30 -7 30 41 -16 45 -43 101 -79 121 -79 4 0 -9 11 -31 24 -65 40 -116 98
-147 165 -16 35 -32 62 -35 59 -3 -3 3 -23 12 -44 34 -74 34 -79 3 -44 -25 29
-30 42 -26 71 3 21 -1 43 -9 54 -8 10 -14 27 -14 36 0 10 -7 22 -15 26 -8 5
-16 17 -18 28 -3 25 -16 45 -27 45 -5 0 -2 -16 6 -35 16 -39 19 -64 5 -49 -12
13 -51 130 -51 153 0 11 -4 23 -10 26 -14 9 -13 -5 10 -77 11 -34 20 -65 19
-68 0 -15 -38 69 -39 87 0 12 -4 25 -10 28 -5 3 -15 15 -20 26 -9 16 -7 19 15
19 15 0 36 -11 50 -26z m-1037 -35 c-3 -20 -5 -19 -9 9 -3 20 -2 29 4 23 5 -5
7 -19 5 -32z m177 14 c6 -1 31 -8 56 -15 45 -13 81 -45 108 -96 7 -13 15 -21
18 -18 3 3 -7 26 -21 51 l-27 45 25 -11 c17 -8 31 -27 41 -60 9 -27 21 -51 26
-54 12 -8 12 -3 -7 40 -8 20 -14 44 -12 53 4 22 60 -84 64 -122 l4 -31 -20 30
c-11 17 -20 24 -20 15 -1 -10 -7 -7 -21 10 -12 14 -24 25 -28 25 -4 0 -27 16
-51 36 -50 41 -130 92 -130 84 0 -3 -13 1 -30 10 -16 9 -30 20 -30 26 0 6 9 5
23 -3 12 -6 27 -13 32 -15z m-1500 -10 c14 -15 25 -31 25 -35 0 -3 18 -14 40
-24 48 -21 36 -34 -32 -34 -37 0 -51 -5 -60 -20 -19 -31 -23 -24 -20 30 3 32
0 50 -7 50 -7 0 -11 -23 -11 -58 0 -48 -7 -71 -36 -128 -20 -38 -52 -85 -70
-106 -36 -40 -58 -77 -51 -84 3 -3 14 10 26 29 21 35 61 76 61 63 0 -23 -71
-101 -92 -101 -4 0 -14 -9 -23 -20 -15 -19 -16 -11 -9 100 4 66 8 154 9 196 2
85 9 103 36 96 10 -3 35 4 56 14 20 10 42 19 48 19 5 0 21 9 35 20 33 26 45
25 75 -7z m125 -48 c58 -18 78 -31 68 -41 -4 -3 -19 1 -35 9 -15 9 -40 18 -54
21 -32 7 -75 40 -90 69 -9 17 -4 15 22 -9 19 -18 59 -39 89 -49z m642 20 c-7
-14 -12 -30 -12 -35 0 -12 49 6 75 28 20 17 20 17 1 -5 -19 -23 -19 -23 7 -23
14 0 29 5 32 10 8 12 45 13 45 1 0 -5 -7 -15 -16 -22 -9 -7 -27 -36 -40 -64
-17 -38 -36 -60 -73 -86 -28 -18 -51 -37 -51 -41 0 -5 -6 -8 -14 -8 -7 0 -24
-9 -38 -19 -33 -27 -94 -13 -202 46 -16 9 -46 16 -67 17 -51 1 -41 10 28 26
32 8 82 27 112 42 29 15 61 28 71 28 22 0 122 89 117 104 -7 19 13 50 26 37 7
-7 7 -18 -1 -36z m1554 -12 c7 -21 12 -39 10 -41 -4 -3 -36 73 -36 85 0 15 15
-10 26 -44z m-329 -25 c13 -34 21 -63 19 -65 -4 -5 -56 104 -56 118 0 27 18 1
37 -53z m-814 -14 c71 -69 67 -83 -30 -109 -91 -24 -166 -64 -242 -130 -69
-61 -87 -65 -146 -35 -22 11 -50 20 -63 20 -14 0 -22 5 -20 13 5 14 112 69
183 92 105 36 187 96 228 168 11 20 23 37 26 37 3 0 32 -25 64 -56z m1076 -47
c1 -12 -50 30 -68 56 -10 14 -1 10 26 -13 23 -19 42 -39 42 -43z m-1577 54
c-8 -4 -12 -12 -10 -16 1 -4 -8 -14 -22 -22 -23 -14 -24 -14 -6 1 20 16 20 16
0 16 -16 1 -16 3 6 15 26 15 54 21 32 6z m-135 -12 c6 -6 26 -15 45 -19 l33
-7 -48 -22 c-51 -22 -159 -29 -187 -11 -9 6 -17 5 -21 -2 -4 -6 -12 -7 -20 -3
-16 11 13 23 56 24 17 1 51 12 75 25 55 29 54 28 67 15z m-385 -27 c4 -10 118
-88 165 -114 18 -10 52 -18 75 -18 24 0 59 -9 78 -19 19 -11 49 -26 67 -34
l32 -16 -22 -43 c-12 -24 -23 -45 -24 -47 -2 -2 -45 17 -95 42 -51 25 -132 64
-180 86 -93 42 -122 75 -120 135 1 21 -2 26 -10 18 -14 -14 7 -95 31 -115 22
-20 120 -72 151 -81 43 -13 210 -100 207 -109 -1 -5 -28 -22 -59 -39 l-56 -30
-73 35 c-41 19 -96 43 -124 52 -27 10 -59 24 -70 30 -11 7 -42 18 -70 25 -27
6 -56 14 -64 16 -8 3 2 15 27 34 51 37 69 63 77 115 3 22 8 55 11 73 4 28 7
31 24 22 10 -5 20 -14 22 -18z m2054 -6 c26 -28 32 -44 37 -100 3 -36 11 -76
18 -88 18 -36 71 -88 82 -81 6 4 7 1 2 -6 -4 -8 4 -24 20 -41 31 -33 25 -62
-7 -33 -11 10 -43 29 -71 44 -72 35 -90 70 -95 183 -3 50 -11 103 -18 118 -26
50 -12 52 32 4z m-2122 -50 c-16 -77 -22 -87 -79 -128 l-40 -29 -6 23 c-12 42
-9 115 6 151 16 38 42 52 75 42 11 -3 28 -2 37 4 10 5 19 9 20 8 1 -1 -5 -33
-13 -71z m141 50 c27 -30 99 -46 208 -47 l82 -1 -50 -16 c-27 -9 -77 -16 -110
-16 -52 0 -66 4 -107 32 -26 18 -50 37 -53 43 -4 5 -10 7 -15 4 -5 -3 -12 0
-16 6 -4 7 -3 9 4 5 6 -3 13 -2 17 4 9 15 15 13 40 -14z m1087 -26 c18 -16 28
-30 21 -30 -17 0 -83 40 -83 51 0 18 31 8 62 -21z m68 -68 c36 -17 73 -33 82
-36 10 -3 52 -29 94 -57 42 -28 104 -64 138 -80 91 -42 259 -142 264 -156 15
-48 -101 13 -198 102 -39 37 -93 50 -150 37 -31 -7 -40 -4 -75 24 -22 17 -74
50 -115 73 -41 23 -94 58 -118 76 -24 19 -50 39 -59 44 -9 5 -14 15 -10 24 5
14 10 14 44 -3 21 -10 67 -32 103 -48z m975 56 c11 1 28 -6 38 -16 16 -14 20
-14 29 -2 8 12 9 11 4 -4 -4 -10 -2 -24 3 -30 5 -6 14 -30 20 -53 6 -23 24
-57 39 -75 15 -18 19 -27 9 -19 -10 8 -17 9 -17 3 0 -6 5 -14 10 -17 6 -3 10
-18 9 -33 -1 -26 -1 -26 -15 7 -8 18 -13 40 -10 47 3 7 1 16 -5 19 -11 7 -49
79 -60 115 l-7 25 -1 -25 c-1 -14 10 -46 24 -72 14 -26 25 -55 25 -65 0 -23
-50 -94 -61 -87 -5 3 -21 26 -34 52 -14 26 -34 58 -45 72 -11 14 -27 54 -34
90 -8 36 -15 59 -15 51 -1 -8 -3 -12 -6 -9 -3 3 -3 13 1 22 5 13 14 15 43 9
20 -3 45 -6 56 -5z m-2430 -88 c-4 -44 -14 -74 -36 -110 -17 -27 -27 -55 -23
-61 4 -7 3 -9 -3 -6 -16 10 -33 -16 -69 -105 -19 -44 -41 -89 -50 -99 -17 -19
-17 -19 26 -32 8 -2 0 -6 -17 -9 -27 -4 -33 -1 -33 14 0 11 7 33 16 50 12 23
15 46 10 83 l-6 52 50 42 c50 42 86 94 75 110 -3 5 6 29 20 53 14 23 25 39 25
33 0 -5 -9 -25 -21 -44 -11 -18 -18 -35 -15 -38 9 -9 48 79 42 94 -6 14 0 33
9 33 3 0 2 -27 0 -60z m1400 -21 c17 -15 55 -39 85 -54 30 -15 75 -42 100 -59
24 -17 48 -34 53 -37 6 -4 1 -19 -10 -35 -31 -45 -76 -151 -68 -164 3 -6 2 -9
-3 -8 -5 2 -27 -16 -49 -39 -23 -24 -49 -43 -60 -43 -22 0 -84 62 -107 107 -9
17 -24 38 -35 45 -10 7 -32 34 -49 59 -32 46 -92 107 -128 127 -18 11 -18 12
6 28 14 9 54 47 90 84 l65 66 40 -25 c22 -14 54 -37 70 -52z m-175 25 c-71
-73 -126 -107 -161 -100 -21 4 -46 -2 -82 -19 l-52 -26 50 46 c61 57 147 108
212 128 76 23 80 20 33 -29z m1158 -94 c24 -32 24 -34 3 -15 -28 24 -51 67
-50 92 0 11 5 6 11 -12 6 -16 22 -46 36 -65z m-2628 20 c0 -80 -16 -91 -208
-145 -34 -10 -64 -16 -67 -13 -3 3 27 17 66 33 42 16 73 35 76 45 2 9 17 24
32 33 16 9 43 34 62 56 19 22 35 40 37 40 1 1 2 -22 2 -49z m1941 22 c30 -10
74 -32 98 -50 24 -17 48 -29 54 -25 5 3 7 1 3 -5 -4 -6 15 -22 44 -38 35 -19
47 -30 38 -35 -8 -5 1 -7 20 -4 20 2 32 -1 32 -8 0 -8 3 -8 8 -2 4 6 26 10 49
10 23 0 40 -2 38 -4 -8 -7 70 -58 117 -75 25 -10 59 -32 75 -49 l28 -31 -28
18 c-16 10 -54 26 -84 37 -31 10 -61 23 -67 28 -23 19 -106 59 -99 48 4 -8 1
-7 -9 1 -10 8 -18 9 -22 3 -8 -12 30 -34 44 -26 9 6 70 -21 70 -31 0 -2 -14 3
-31 11 -17 9 -33 14 -36 12 -6 -7 36 -30 62 -33 33 -5 159 -54 171 -67 6 -7 8
-38 5 -80 l-6 -68 -75 85 c-41 46 -84 88 -95 91 -11 4 -36 22 -55 41 -19 18
-60 47 -90 63 -30 17 -48 31 -40 31 8 1 -19 18 -60 39 -41 22 -78 37 -82 35
-9 -6 -110 57 -103 64 3 3 19 -5 36 -17 17 -13 33 -21 35 -18 8 8 -23 28 -73
47 -61 24 -43 26 28 2z m-1666 -49 c4 -19 3 -33 -3 -33 -9 0 -22 47 -22 79 1
14 2 14 9 1 5 -8 12 -30 16 -47z m705 7 c19 -7 55 -22 79 -33 63 -28 124 -31
171 -7 69 35 152 5 218 -77 15 -19 48 -57 73 -86 26 -29 54 -67 64 -86 15 -29
33 -49 82 -91 7 -5 17 -10 22 -10 5 0 31 -17 58 -37 26 -20 64 -42 83 -49 26
-9 36 -18 38 -38 4 -30 -4 -33 -30 -9 -26 24 -32 11 -8 -20 11 -14 20 -31 20
-39 0 -8 5 -19 11 -25 19 -19 0 -35 -32 -28 -42 9 -36 -10 11 -40 32 -20 40
-31 40 -55 0 -35 -15 -38 -61 -14 -31 16 -55 11 -29 -6 10 -6 -14 -7 -65 -2
-44 4 -109 7 -145 7 -57 0 -65 -2 -65 -19 0 -23 58 -56 99 -56 37 0 24 -15
-21 -25 -21 -4 -33 -3 -33 4 0 6 -15 11 -34 11 -32 0 -34 2 -40 46 -3 26 -6
67 -6 91 0 24 -4 42 -9 39 -5 -3 -9 -32 -10 -63 0 -40 -5 -59 -16 -65 -24 -14
-18 -28 13 -28 18 0 23 -3 14 -8 -7 -5 -10 -16 -6 -25 9 -24 -13 -21 -50 6
-17 13 -67 43 -111 67 -44 24 -91 51 -105 62 -14 10 -88 42 -165 72 -248 94
-363 160 -399 225 l-24 46 23 27 23 27 17 -27 c34 -53 69 -82 123 -102 30 -12
57 -18 61 -15 3 3 -10 18 -29 33 -72 55 -150 136 -150 155 0 19 9 20 73 1 9
-3 17 -1 17 4 0 12 -75 62 -93 62 -18 0 -56 29 -39 30 7 0 26 -7 42 -15 27
-14 31 -14 47 3 10 10 43 33 75 51 l56 31 38 -47 c21 -27 62 -71 91 -98 29
-28 53 -58 53 -67 0 -9 30 -37 69 -62 38 -26 72 -53 75 -62 3 -8 32 -26 63
-40 32 -14 77 -39 101 -55 29 -19 56 -29 81 -29 53 0 123 -23 163 -54 19 -14
41 -26 49 -26 8 0 47 -18 87 -40 51 -28 85 -40 110 -39 l37 1 -43 9 c-23 4
-57 18 -74 30 -17 12 -54 32 -82 43 -28 12 -72 34 -98 50 -31 18 -74 32 -120
39 -46 7 -88 20 -113 36 -22 14 -57 33 -78 43 -21 10 -59 36 -85 58 -25 23
-63 50 -84 62 -21 12 -38 28 -38 35 0 7 -45 61 -100 120 -55 60 -100 112 -100
117 0 5 10 30 21 54 23 47 25 48 99 22z m-730 -15 c0 -8 -8 -16 -17 -16 -16
-1 -16 -2 -2 -6 14 -3 18 -23 22 -111 3 -59 10 -131 15 -159 7 -42 6 -53 -5
-53 -7 0 -13 11 -13 25 0 30 -9 31 -58 6 -42 -21 -140 -46 -149 -38 -10 11 9
27 32 27 33 0 55 10 55 25 0 8 17 16 41 20 22 4 49 16 60 28 29 32 23 44 -8
15 -17 -15 -46 -28 -70 -32 l-42 -6 19 33 c11 19 27 57 36 86 8 28 24 67 35
85 11 19 19 38 18 42 -3 14 12 44 22 44 5 0 9 -7 9 -15z m225 -60 c198 -82
235 -99 231 -103 -2 -2 -13 1 -24 7 -28 15 -59 14 -65 -3 -3 -7 8 -26 24 -42
16 -15 29 -32 29 -38 0 -5 -13 3 -30 19 -16 16 -30 25 -30 20 0 -5 -15 5 -32
22 -42 39 -65 51 -146 74 -75 21 -142 64 -142 89 0 17 4 17 53 3 28 -8 88 -29
132 -48z m1755 -6 c79 -26 95 -41 22 -20 -20 6 -32 6 -32 0 0 -5 -21 2 -47 17
-54 31 -79 51 -48 39 11 -4 58 -20 105 -36z m571 -48 c-1 -14 -9 -34 -19 -45
-11 -12 -29 -39 -42 -61 -13 -22 -34 -52 -48 -67 -24 -26 -26 -26 -54 -12 -17
9 -32 13 -35 10 -3 -3 6 -11 20 -17 15 -7 24 -17 20 -22 -4 -6 0 -8 10 -4 10
3 17 2 17 -3 0 -18 -28 -10 -60 17 l-32 26 46 28 c49 31 71 58 81 102 4 15 11
27 16 27 5 0 9 8 9 17 0 9 12 35 27 56 l28 40 8 -34 c5 -19 8 -45 8 -58z m56
27 c9 -10 25 -20 37 -24 11 -3 40 -13 63 -21 l42 -15 -14 -32 c-8 -17 -19 -49
-25 -72 -17 -68 -49 -107 -102 -122 -44 -12 -50 -11 -97 12 l-50 26 35 51 c19
28 34 58 34 66 0 8 9 31 20 51 11 20 23 60 26 87 4 28 9 41 12 30 2 -11 11
-28 19 -37z m-3018 27 c-5 -5 -21 -10 -37 -11 -49 -3 -53 -4 -47 -14 3 -6 -1
-7 -9 -4 -41 16 5 44 66 41 23 -1 33 -5 27 -12z m616 -69 c81 -26 91 -33 175
-129 l24 -28 -27 -27 -27 -27 -27 28 -28 28 23 5 c29 8 28 20 -4 40 -19 13
-28 14 -37 5 -8 -8 -6 -11 10 -11 12 0 25 -4 28 -10 10 -17 -31 -11 -53 8 -11
9 -29 22 -39 29 -17 11 -17 12 4 12 12 1 25 6 28 11 3 6 11 10 17 10 6 0 3 -9
-7 -20 -10 -11 -13 -20 -8 -20 18 0 36 29 29 46 -6 15 -8 15 -29 1 -35 -23
-58 -23 -97 -2 -19 10 -55 21 -80 24 -25 4 -44 9 -42 14 1 4 2 25 2 47 l0 41
43 -25 c23 -14 78 -36 122 -50z m1620 24 c22 -20 70 -58 106 -83 66 -47 66
-47 59 -84 -3 -21 -15 -54 -25 -72 -11 -22 -17 -54 -16 -89 1 -43 -15 -142
-23 -142 -2 0 -37 18 -80 40 -42 22 -91 40 -109 40 -41 0 -184 59 -232 96
l-36 27 46 40 c25 21 52 52 60 68 17 33 19 43 5 34 -6 -3 -7 1 -3 10 4 13 8
14 14 4 9 -15 29 28 29 63 0 37 32 76 69 85 57 14 93 4 136 -37z m-1917 -31
c-23 -71 -41 -109 -61 -126 -21 -18 -21 -18 -4 9 15 24 36 73 61 142 12 33 16
11 4 -25z m2265 -6 c20 -13 37 -26 37 -28 0 -7 -70 29 -95 49 -20 16 -20 16 0
9 11 -3 37 -17 58 -30z m-2370 -88 c-3 -16 -8 -24 -10 -17 -3 6 -9 12 -15 12
-6 0 -7 -7 -4 -16 10 -26 -5 -94 -21 -94 -10 0 -11 5 -5 18 16 30 24 74 12 67
-6 -4 -10 9 -10 36 0 30 6 50 22 67 l23 24 7 -34 c4 -18 5 -46 1 -63z m227 48
c0 -30 31 -53 72 -53 21 0 38 -4 38 -10 0 -5 14 -10 32 -10 28 0 30 -2 18 -14
-8 -8 -38 -17 -65 -21 -45 -5 -53 -4 -71 17 -11 13 -26 42 -32 64 -15 50 -15
57 -2 49 6 -3 10 -13 10 -22z m2868 -29 c26 -4 63 -17 83 -29 19 -13 44 -25
55 -27 17 -4 17 -6 -6 -16 -14 -5 -56 -42 -95 -81 l-69 -71 -82 0 c-77 0 -82
1 -77 20 3 11 0 20 -6 20 -6 0 -11 -9 -11 -19 0 -18 -1 -18 -45 -2 -50 19 -66
31 -41 31 39 0 78 32 102 83 13 29 24 63 25 77 1 17 3 20 6 7 12 -44 -39 -139
-93 -175 -18 -11 -17 -12 6 -6 50 12 100 105 100 183 0 26 3 50 6 54 3 3 26
-5 50 -18 25 -13 66 -27 92 -31z m-2736 12 c20 -10 42 -24 49 -32 6 -8 18 -14
27 -14 8 0 13 -3 9 -6 -9 -10 -67 6 -64 18 1 6 -23 11 -61 12 -61 1 -81 12
-82 42 0 15 75 3 122 -20z m-422 -48 c0 -28 -5 -80 -11 -115 -11 -60 -13 -64
-34 -59 -17 4 -25 1 -29 -12 -3 -9 -20 -33 -37 -52 -31 -34 -32 -34 -40 -12
-6 14 -14 20 -24 16 -9 -4 -21 1 -29 12 -12 16 -11 20 3 31 14 12 12 12 -13 7
-19 -5 -27 -3 -22 4 3 5 25 13 49 17 81 13 138 72 158 165 14 65 29 64 29 -2z
m664 -17 c-5 -5 -43 42 -44 54 0 6 11 -3 24 -20 13 -16 22 -32 20 -34z m76 39
c0 -5 -9 -6 -20 -3 -11 3 -17 9 -15 14 7 10 35 1 35 -11z m2017 -33 c-29 -48
-54 -73 -64 -63 -4 3 3 13 15 21 11 9 31 33 43 55 13 22 25 38 27 35 2 -2 -7
-24 -21 -48z m-436 21 c11 -13 34 -51 50 -85 17 -34 46 -79 64 -100 32 -37 32
-40 14 -51 -21 -13 -24 -55 -10 -130 7 -33 5 -46 -6 -58 -13 -13 -18 -13 -37
-1 -11 8 -37 17 -57 21 -35 6 -36 8 -42 59 -4 28 -4 63 0 77 5 21 3 23 -8 12
-9 -8 -12 -32 -11 -72 2 -45 -1 -58 -10 -55 -7 2 -25 9 -40 14 l-27 10 21 47
c17 39 20 60 15 114 -4 52 -1 75 13 108 11 23 22 58 26 77 7 41 18 44 45 13z
m122 -98 c42 -47 77 -90 77 -96 0 -6 -6 -17 -14 -23 -10 -9 -21 -3 -49 29 -36
39 -117 186 -99 179 5 -2 43 -42 85 -89z m-1884 28 c48 -50 52 -45 -79 -113
-65 -33 -94 -55 -115 -85 l-29 -41 -13 48 c-7 26 -16 85 -19 131 l-5 83 24
-16 c30 -19 97 -11 130 16 35 29 62 23 106 -23z m191 -38 c40 -38 69 -70 65
-70 -18 0 -73 42 -101 77 -67 85 -57 83 36 -7z m1861 15 c70 -75 236 -182 319
-205 16 -4 25 -14 25 -26 0 -19 -6 -21 -36 -9 -13 5 -18 -3 -23 -37 -13 -80
-28 -118 -47 -118 -11 0 -21 -10 -25 -25 -10 -40 -22 -29 -34 33 -6 31 -12 65
-14 75 -2 9 0 17 5 17 7 0 -1 21 -19 50 -2 2 -7 -2 -11 -9 -15 -23 -50 -2
-132 77 l-79 76 0 73 c0 89 11 93 71 28z m139 -35 c19 -11 31 -20 25 -20 -5
-1 -23 -3 -40 -5 -17 -2 -41 3 -55 12 -23 15 -23 17 -5 24 29 11 36 10 75 -11z
m-2729 -121 c-6 -17 -8 -58 -4 -93 5 -53 3 -64 -11 -69 -16 -6 -17 4 -14 122
2 95 7 133 18 146 14 17 15 15 18 -29 2 -27 -1 -61 -7 -77z m608 86 c7 -19 27
-46 44 -59 59 -44 221 -123 362 -176 77 -29 154 -63 170 -75 17 -12 64 -39
105 -60 142 -71 141 -72 -28 -77 -123 -4 -157 -1 -205 14 -32 10 -70 18 -84
18 -24 0 -25 2 -21 45 7 62 -8 57 -16 -5 -4 -33 -11 -48 -18 -44 -6 4 -36 8
-67 9 -31 1 -71 9 -88 18 -30 16 -33 22 -33 62 0 27 -5 45 -11 45 -8 0 -10
-15 -5 -46 8 -59 7 -58 -140 52 l-114 86 0 54 c0 30 -4 54 -9 54 -5 0 -6 -21
-3 -47 l5 -47 -26 17 c-15 9 -40 17 -57 17 -16 0 -30 4 -30 8 0 18 69 73 135
108 39 20 79 43 90 50 27 19 29 18 44 -21z m2209 -4 c21 -13 -32 -23 -76 -15
-35 7 -35 8 -12 15 35 10 73 10 88 0z m-611 -83 c-2 -13 -4 -3 -4 22 0 25 2
35 4 23 2 -13 2 -33 0 -45z m691 51 c29 -10 42 -32 42 -71 0 -25 -9 -23 -107
24 l-88 43 40 6 c64 10 80 10 113 -2z m-2727 -80 l-9 -34 -1 30 c0 17 2 41 6
55 7 23 8 24 11 4 2 -12 -1 -37 -7 -55z m2462 -46 c7 -11 -71 33 -122 69 -20
14 -22 20 -11 33 11 13 19 9 69 -37 31 -29 59 -58 64 -65z m422 84 c-8 -14
-30 -28 -48 -32 -18 -4 -37 -9 -42 -10 -6 -1 -11 12 -11 31 l0 33 56 3 c30 2
56 2 58 1 2 -1 -4 -12 -13 -26z m-3359 -6 c-7 -11 -70 -41 -86 -41 -26 0 -1
26 36 37 49 14 57 15 50 4z m2823 -32 c36 -28 151 -95 179 -103 25 -8 26 -18
10 -98 -9 -42 -16 -57 -27 -55 -19 3 -26 -29 -11 -48 16 -20 49 -19 72 2 25
23 30 13 22 -46 -6 -44 -10 -51 -28 -51 -12 0 -35 14 -51 30 -16 17 -34 30
-40 30 -6 0 -19 16 -29 35 -23 42 -36 37 -36 -14 0 -21 -3 -59 -6 -85 -6 -37
-9 -44 -20 -35 -11 9 -15 7 -20 -5 -5 -14 -10 -12 -37 10 l-30 25 -22 -27
c-29 -36 -45 -24 -45 32 0 47 -26 140 -41 150 -5 3 -9 11 -9 17 0 8 16 11 47
9 56 -4 136 24 112 39 -8 5 -26 9 -41 9 -14 0 -34 3 -42 6 -15 6 -15 7 0 18
14 10 14 22 5 90 -13 92 -6 111 36 95 14 -5 37 -19 52 -30z m-591 16 c5 -4
-28 -74 -38 -80 -13 -8 -24 39 -16 71 5 20 11 24 29 18 12 -3 23 -7 25 -9z
m157 -50 c24 -14 50 -31 57 -38 7 -8 37 -22 65 -31 52 -17 63 -30 63 -71 0
-36 -24 -48 -79 -41 -26 3 -101 2 -165 -4 -65 -6 -123 -7 -129 -3 -18 12 -16
39 2 40 9 1 27 4 41 9 25 7 25 7 7 -14 -11 -12 -25 -18 -35 -15 -10 4 -13 2
-8 -5 8 -13 57 -17 54 -4 0 4 2 15 7 25 13 30 -10 43 -40 23 -19 -13 -26 -14
-29 -4 -1 7 -7 27 -13 44 -9 28 -7 32 24 52 24 17 33 29 33 51 l0 28 51 -8
c28 -4 70 -20 94 -34z m911 10 c-21 -16 -32 -13 -21 4 3 6 14 11 23 11 15 -1
15 -2 -2 -15z m-2597 -26 c36 -13 37 -17 14 -34 -22 -17 -10 -45 21 -45 22 0
24 -4 24 -45 -1 -48 -10 -54 -42 -30 -11 8 -32 15 -46 15 -24 0 -27 5 -39 64
-7 36 -10 70 -6 75 8 14 34 14 74 0z m2587 -130 c18 -20 18 -45 -1 -53 -35
-13 -40 2 -36 97 l4 92 9 -60 c5 -33 16 -67 24 -76z m-2667 24 c0 -18 -3 -33
-9 -33 -6 0 -9 27 -9 63 1 49 3 56 9 32 4 -16 8 -45 9 -62z m2616 7 c-4 -41
-7 -84 -6 -95 6 -91 -3 -180 -18 -171 -11 7 -44 -30 -37 -42 13 -22 -31 -6
-52 20 -13 15 -30 28 -39 28 -11 0 -13 7 -9 28 4 15 8 44 10 65 2 20 11 46 20
55 9 10 16 24 16 30 0 6 6 9 13 6 22 -8 35 17 49 88 11 60 14 66 36 64 24 -1
24 -2 17 -76z m-2475 38 c0 -11 -38 -10 -45 1 -3 6 2 14 12 20 17 9 32 -1 33
-21z m227 -151 c14 -6 23 -19 23 -33 0 -12 3 -29 6 -38 5 -13 -1 -16 -32 -15
-36 0 -94 17 -67 18 18 1 35 39 28 61 -8 25 -23 25 -49 1 -12 -10 -40 -21 -63
-25 -43 -6 -43 -6 -31 19 9 19 16 23 35 19 12 -4 23 -2 23 4 0 18 -32 36 -62
34 -23 -2 -29 1 -25 12 14 36 19 86 8 86 -6 0 -11 4 -11 10 0 5 44 -25 97 -66
54 -42 108 -81 120 -87z m2067 68 l15 -70 -27 -22 c-31 -26 -43 -28 -60 -11
-16 16 -15 31 2 25 24 -9 34 14 42 93 4 41 9 71 10 65 2 -5 10 -41 18 -80z
m-895 66 c7 -5 12 -13 10 -19 -2 -6 -14 -2 -28 9 -23 19 -9 27 18 10z m474
-17 c51 -17 59 -29 25 -37 -12 -4 -19 -9 -16 -12 3 -4 16 -2 27 4 22 12 98 5
107 -10 3 -5 -27 -9 -66 -9 -58 0 -72 3 -77 18 -3 9 -17 27 -32 39 -31 27 -29
28 32 7z m-2300 -1 c-21 -8 -15 -22 7 -16 11 3 20 9 20 14 0 5 25 8 55 7 56
-2 61 -7 57 -48 -1 -8 -5 -40 -7 -70 -3 -30 -10 -59 -15 -64 -5 -5 -33 -17
-62 -27 l-53 -18 -6 47 c-19 135 -19 132 6 132 13 0 27 5 30 11 4 6 13 8 20 5
7 -2 21 2 32 10 17 13 16 14 -12 8 -16 -4 -38 -11 -47 -15 -28 -15 -48 -10
-48 11 0 13 6 20 18 19 10 0 12 -3 5 -6z m2281 -36 c13 -20 5 -30 -18 -21 -9
3 -16 15 -16 26 0 22 18 20 34 -5z m-2369 6 c36 -6 38 -7 15 -14 -37 -10 -98
-10 -105 0 -5 9 12 17 40 20 6 0 28 -2 50 -6z m385 -90 c0 -42 0 -43 -35 -43
-31 0 -35 3 -35 25 0 18 5 25 19 25 13 0 20 10 25 33 9 44 26 18 26 -40z m59
57 c50 -14 72 -37 61 -65 -5 -12 -5 -66 -2 -119 7 -94 2 -136 -17 -136 -5 0
-13 10 -17 22 l-6 21 -13 -24 c-15 -26 -14 -27 -34 54 -6 26 -11 65 -11 87 0
37 2 40 28 41 l27 2 -27 4 c-24 4 -28 9 -29 36 -1 18 -3 44 -5 60 -3 30 -2 31
45 17z m126 -30 c-28 -12 -45 -12 -45 0 0 6 15 10 33 9 27 0 29 -2 12 -9z
m1331 -27 c26 -19 33 -30 28 -48 -3 -13 -2 -25 3 -28 6 -4 6 -29 2 -59 -4 -29
-9 -98 -10 -153 -1 -55 -4 -80 -6 -55 -5 53 -16 68 -37 51 -8 -7 -25 -9 -40
-5 -26 6 -26 6 -20 -40 6 -43 5 -46 -15 -46 -24 0 -51 50 -51 93 0 29 -28 57
-39 39 -4 -7 -17 -9 -36 -4 -26 7 -30 14 -33 45 -2 20 -7 37 -11 37 -17 0 -31
-26 -32 -60 0 -19 -4 -44 -9 -55 -7 -18 -10 -16 -24 17 -9 21 -16 41 -16 46 0
5 -7 23 -16 40 -8 18 -13 41 -9 52 4 12 1 28 -6 36 -11 13 -9 15 12 13 29 -4
179 41 179 52 0 5 -12 11 -27 15 -53 11 -113 36 -113 46 0 8 45 9 146 4 136
-6 149 -9 180 -33z m312 30 c-15 -2 -42 -2 -60 0 -18 2 -6 4 27 4 33 0 48 -2
33 -4z m102 1 c0 -4 -5 -24 -12 -46 -10 -34 -15 -39 -35 -35 -14 2 -29 -3 -39
-14 -13 -14 -31 -19 -71 -19 -46 0 -53 2 -53 20 0 11 -4 20 -10 20 -17 0 -30
-38 -30 -90 0 -28 -4 -49 -8 -46 -5 3 -23 -8 -39 -24 -28 -27 -32 -28 -39 -13
-4 10 -9 36 -11 58 -5 75 -10 110 -16 128 -15 39 -16 47 -4 47 7 1 73 1 147 0
74 0 149 4 165 9 37 11 55 13 55 5z m765 -115 c-9 -97 -11 -101 -55 -86 -32
11 -35 15 -29 42 4 17 7 53 8 80 1 46 4 51 34 65 30 14 33 14 40 -5 5 -11 5
-54 2 -96z m-2541 66 c-6 -24 -4 -25 39 -25 29 0 53 7 70 20 24 19 47 26 47
14 0 -17 -23 -43 -47 -53 -30 -12 -138 -3 -135 12 1 4 2 18 2 32 0 16 6 25 15
25 11 0 14 -7 9 -25z m359 -28 c31 -5 56 -15 72 -31 25 -25 35 -53 15 -41 -13
8 -50 -4 -50 -16 0 -5 11 -14 25 -19 19 -7 25 -17 25 -38 0 -15 6 -37 14 -47
17 -23 10 -52 -15 -60 -25 -8 -39 2 -39 28 0 28 -15 51 -28 44 -5 -4 -12 -29
-16 -57 -8 -61 -15 -82 -26 -75 -5 3 -16 -5 -24 -17 -16 -22 -16 -22 -16 17 0
22 -7 62 -15 89 -8 27 -15 75 -15 108 l0 58 68 0 c37 0 74 5 82 10 10 6 -12 8
-67 6 -46 -2 -83 0 -83 4 0 4 -3 22 -6 40 l-7 32 29 -15 c16 -8 51 -17 77 -20z
m222 -18 c6 -1 -8 -5 -30 -9 -22 -4 -49 -11 -59 -15 -13 -6 -17 -5 -13 2 4 6
1 14 -5 16 -29 12 14 24 55 16 23 -4 47 -9 52 -10z m465 12 c0 -10 -50 -25
-57 -17 -3 2 -2 9 2 15 8 13 55 15 55 2z m-1380 -175 c0 -149 -1 -155 -20
-153 -13 1 -23 11 -27 27 -10 41 -14 43 -40 18 l-26 -23 7 55 c3 30 6 65 6 76
0 12 6 22 13 21 41 -1 53 5 65 35 14 38 7 51 -9 15 -11 -23 -53 -42 -71 -30
-5 2 -8 19 -8 38 0 31 4 35 38 45 20 5 44 14 52 20 8 5 16 10 18 10 1 0 2 -69
2 -154z m355 144 c-28 -12 -45 -12 -45 0 0 6 15 10 33 9 27 0 29 -2 12 -9z
m213 -15 c2 -2 5 -70 8 -151 3 -100 1 -142 -5 -127 -5 12 -19 24 -30 28 -12 3
-21 12 -21 19 0 7 -9 25 -20 39 -12 15 -20 40 -20 62 0 42 -33 95 -59 95 -9 0
-22 5 -28 11 -8 8 -13 8 -17 0 -10 -16 -56 -14 -56 3 0 22 68 35 160 29 47 -3
86 -7 88 -8z m736 -11 c7 -28 -9 -75 -25 -72 -7 2 -18 -19 -25 -46 -16 -62
-23 -69 -58 -51 -42 22 -77 18 -116 -15 -19 -17 -37 -27 -41 -22 -4 4 -14 29
-21 55 -21 72 -33 58 -30 -32 l4 -79 -35 12 c-19 6 -43 18 -52 26 -10 8 -21
15 -24 15 -3 0 -5 14 -3 31 4 37 -14 53 -32 29 -11 -15 -14 -12 -30 23 -10 22
-15 45 -11 52 4 6 2 17 -5 25 -9 11 -5 17 19 30 17 8 31 20 31 25 0 10 80 15
297 17 150 1 151 0 157 -23z m-717 -31 c-3 -10 -5 -2 -5 17 0 19 2 27 5 18 2
-10 2 -26 0 -35z m-713 11 c17 -45 9 -51 -51 -42 -32 4 -78 16 -103 26 l-45
17 50 6 c101 12 142 10 149 -7z m1877 -35 c-9 -23 -10 -22 -10 11 -1 23 2 31
9 24 7 -7 7 -19 1 -35z m922 -27 c15 -16 16 -24 7 -41 -6 -11 -13 -57 -17
-101 -5 -67 -9 -80 -23 -80 -16 0 -17 13 -16 129 1 138 4 143 49 93z"/>
<path d="M2841 4565 c0 -5 8 -26 19 -45 11 -19 19 -30 19 -25 0 6 -8 26 -19
45 -11 19 -19 31 -19 25z"/>
<path d="M2114 4278 c21 -35 31 -72 16 -63 -22 14 -2 -96 24 -130 55 -73 43
-74 -27 -3 -48 48 -79 88 -84 109 -9 34 -33 52 -33 25 0 -9 7 -33 15 -53 31
-74 -6 -51 -68 44 -22 34 -45 63 -49 63 -13 0 -9 -10 13 -38 11 -15 30 -42 42
-61 42 -64 114 -96 87 -38 -8 18 -7 17 7 -3 10 -14 31 -36 47 -50 16 -14 45
-40 64 -59 l35 -33 12 28 c7 19 14 24 19 16 4 -7 2 -12 -5 -12 -7 0 -5 -8 6
-20 20 -22 78 -28 69 -7 -2 6 -22 23 -44 36 -44 28 -82 91 -104 173 -15 57
-35 98 -49 98 -4 0 -1 -10 7 -22z m60 -169 c42 -81 43 -100 1 -37 -23 34 -50
108 -40 108 1 0 19 -32 39 -71z m96 -104 c7 -8 8 -15 2 -15 -5 0 -15 7 -22 15
-7 8 -8 15 -2 15 5 0 15 -7 22 -15z"/>
<path d="M1390 4152 c0 -11 5 -24 10 -27 6 -4 9 2 7 14 -4 29 -17 39 -17 13z"/>
<path d="M1180 3550 c32 -25 73 -27 68 -3 -2 9 -10 19 -18 21 -13 5 -13 3 -1
-11 11 -15 11 -17 -1 -17 -8 0 -23 7 -34 15 -10 8 -23 14 -29 14 -5 1 1 -8 15
-19z"/>
<path d="M1012 3574 c-12 -22 -6 -64 9 -64 13 0 11 28 -2 36 -8 5 -8 9 1 14 7
4 10 14 8 21 -3 10 -8 8 -16 -7z"/>
</g>
</svg>
