<?xml version="1.0" encoding="UTF-8" standalone="no"?>
<!-- Created with Inkscape (http://www.inkscape.org/) -->

<svg
   width="8.2677202in"
   height="7.0866141in"
   viewBox="0 0 210.0001 180"
   version="1.1"
   id="svg1784"
   sodipodi:docname="rotunda_edited.svg"
   inkscape:version="1.1.1 (c3084ef, 2021-09-22)"
   xmlns:inkscape="http://www.inkscape.org/namespaces/inkscape"
   xmlns:sodipodi="http://sodipodi.sourceforge.net/DTD/sodipodi-0.dtd"
   xmlns="http://www.w3.org/2000/svg"
   xmlns:svg="http://www.w3.org/2000/svg">
  <sodipodi:namedview
     id="namedview1786"
     pagecolor="#ffffff"
     bordercolor="#666666"
     borderopacity="1.0"
     inkscape:pageshadow="2"
     inkscape:pageopacity="0.0"
     inkscape:pagecheckerboard="0"
     inkscape:document-units="mm"
     showgrid="false"
     fit-margin-top="0"
     fit-margin-left="0"
     fit-margin-right="0"
     fit-margin-bottom="0"
     inkscape:zoom="0.94679445"
     inkscape:cx="368.61222"
     inkscape:cy="356.99407"
     inkscape:window-width="1800"
     inkscape:window-height="1033"
     inkscape:window-x="0"
     inkscape:window-y="44"
     inkscape:window-maximized="0"
     inkscape:current-layer="layer1"
     units="in"
     width="8.26772in" />
  <defs
     id="defs1781" />
  <g
     inkscape:label="Layer 1"
     inkscape:groupmode="layer"
     id="layer1"
     transform="translate(-8.6661761,-3.5145703)">
    <path
       id="path9999"
       style="fill:none;stroke:#000000;stroke-width:0.264583px;stroke-linecap:butt;stroke-linejoin:miter;stroke-opacity:1"
       d="m 58.208799,169.4887 117.942331,0.0271 m -75.34541,-157.324691 2.41248,-1.511493 4.93642,-1.5817497 6.17431,-0.9067448 c 4.29303,1.3491688 7.83884,2.8681165 11.95405,4.0459095 m 0,0 9.05352,5.295998 11.62438,4.199996 8.46667,4.342165 10.23055,3.988153 8.92704,6.689372 8.79475,7.955844 4.50321,3.186289 7.40657,3.145014 2.47121,2.483203 m -96.95516,-41.331956 -8.172625,4.995847 m 13.758335,-2.822224 c -2.02953,0.230117 -3.80334,0.581358 -6.21528,1.088652 -2.549525,0.536257 -4.919447,1.454242 -7.543055,1.733572 m 24.341675,-3.175001 c -3.48121,0.507611 -6.92679,0.301378 -10.58334,0.352777 m 10.58334,-0.352777 8.11389,1.050572 7.05555,1.418872 M 48.183094,62.695287 c 1.900912,-1.034963 4.547855,-2.084294 6.702778,-2.993672 l 10.936111,-4.622095 10.583334,-4.731455 -20.084345,-0.07514 -7.129286,-2.743552 -9.828037,1.407583 c 2.707922,-2.378781 5.469467,-4.683478 8.095898,-7.241822 4.197702,-4.088342 8.314972,-8.120239 13.423547,-11.074047 2.370314,-1.370895 4.960409,-2.020359 7.408334,-3.191934 4.034014,-1.929906 7.804503,-4.251607 11.994444,-5.903912 4.050242,-1.597272 8.385528,-2.77495 12.347223,-4.338285 m -22.930556,9.525 c 6.177844,0.549275 12.868628,-1.4478 19.05,-2.008611 12.455531,-1.129982 25.245841,-1.774966 37.747231,-1.07008 9.92525,0.02629 18.61236,1.826871 27.86944,2.373136 m -97.719449,8.113886 4.7625,-1.41111 10.054167,-2.116667 15.698611,-1.940278 13.405551,-1.058333 15.16946,-0.176389 h 14.64027 l 2.11667,0.352778 11.81806,0.881944 13.58194,1.763888 7.40833,1.587501 3.175,0.881944 0.70556,0.176389 m -92.780563,17.286111 11.641667,-4.647847 11.994446,-4.980164 10.58334,-4.029781 5.99722,1.313039 8.81944,3.401836 c 13.37722,4.851187 26.49527,10.2715 39.51112,15.998472 M 49.594205,40.470287 l 3.175,-1.058333 9.877778,-2.293055 10.583334,-1.763889 9.701389,-1.058333 11.288889,-0.881945 10.759735,-0.529167 14.64027,-0.176389 15.16944,0.176389 7.05556,0.352778 5.46805,0.352778 3.52778,0.176389 1.41112,0.352777 9.17221,1.234723 10.75973,2.116666 4.05695,1.5875 M 73.935872,55.639731 c 1.501602,-1.043487 10.241139,-4.459111 13.758334,-5.942894 7.440789,-3.138664 14.458554,-7.033951 22.146644,-9.161201 3.5246,-1.811867 9.69261,2.163854 13.13114,3.48924 11.2776,4.347281 22.87199,8.357306 33.86667,13.378744 M 130.38032,42.234176 c 8.70585,0 17.4043,-0.165805 26.10556,-0.377825 4.23439,-0.103011 8.78064,-0.844903 12.98434,-0.177094 2.50825,0.398639 3.68582,2.50825 5.90479,3.488619 3.11926,1.377597 7.44749,1.654175 10.7442,2.005189 m -135.113894,-0.352778 3.108678,-3.400425 9.238545,-0.48013 29.986112,-0.352778 m 80.080559,3.174999 -0.70555,1.763889 m 0,1e-6 c -1.48308,3.639255 -1.05692,7.720188 -1.05834,11.641666 l -5.99722,-1.411111 m -18.69722,-8.819444 11.64167,-0.352778 h 13.05277 M 39.363649,49.289732 c -4.090458,1.724025 -8.966553,2.833158 -11.641667,6.702777 m 82.905608,-5.880452 c 8.56791,-2.082448 11.84522,11.458574 3.16477,13.784791 -7.43373,1.992489 -11.74186,-7.826375 -5.89068,-12.423422 0.80433,-0.631825 1.72931,-1.119011 2.72591,-1.361369 m -57.152829,0.236008 v 9.172222 M 172.0081,52.464732 c 5.12939,0.09666 10.21433,0.960966 15.16945,2.272947 4.5092,1.1938 8.39223,2.864202 11.64166,6.193719 1.11196,-3.133372 -0.48323,-5.632445 -1.05833,-7.408333 M 27.721982,55.992509 c -1.933928,2.820811 -1.959328,4.947709 0,7.761111 2.361495,-3.692525 6.448073,-5.239102 10.583334,-6.475236 4.739569,-1.417108 10.079567,-2.264127 14.816667,-3.049764 m -3.175,11.641667 23.988889,-10.230556 m 82.902788,1.763889 11.64166,4.417484 9.525,3.696405 m -5.99722,-5.997222 5.99722,2.185106 2.11667,0.989894 m 18.34445,-1.411111 0.47131,16.572794 4.24709,7.792508 -4.01285,8.090253 c -1.83416,-0.920652 -20.10833,-5.203767 -20.10833,-3.175 M 41.480316,65.517509 c 0,0 1.646296,-0.623946 2.116667,-1.112308 l 4.586111,-1.709914 m 131.938896,0 1.76389,0.705555 m 0,0 2.46944,1.058334 -1.76388,3.175 c -3.64596,0.952852 -4.52861,4.805539 -4.23334,8.113888 2.52483,-0.809624 5.09905,-0.382058 7.76111,0.05962 4.87469,0.808567 9.7589,2.255308 13.40556,5.584825 M 28.07476,64.106398 c 0,4.869039 -0.371828,10.5537 0.352778,15.522222 1.991607,-1.062037 12.200325,-5.54251 12.200325,-5.54251 0,0 1.198001,-6.533017 -1.188456,-7.704749 m 10.507574,-0.511074 c -3.584223,1.049514 -7.072577,2.675013 -10.507574,0.511074 l 2.040907,-0.863852 m 136.525006,0 5.29167,0.352778 m -5.29167,6.702778 c -4.13596,0 -8.47901,-0.09419 -12.7,0.03422 -7.0619,0.215547 -14.097,0.318206 -21.16666,0.318558 -22.45501,7.06e-4 -44.925203,1.05657 -67.380567,1.058334 -7.884231,7.05e-4 -15.762112,0.323497 -23.636112,0.348897 -2.609497,0.0081 -9.855363,-0.76824 -9.855363,-0.76824 -0.296753,-0.964464 -1.824218,-2.464973 -1.428756,-4.046824 0,0 9.79275,-0.47184 10.578563,-0.472369 8.119534,-0.0056 16.223192,-0.276578 24.341668,-0.340431 22.459597,-0.177094 44.921667,-0.399697 67.380567,-0.734836 8.46913,-0.126294 16.92769,-0.332317 25.4,-0.33655 3.52213,-0.0014 7.07425,-0.343606 10.58333,3.53e-4 m 2.46945,0 -0.0136,4.586111 c 3.12526,0.615597 4.24694,0.964494 7.42194,1.716264 3.17747,0.752475 5.92243,1.910291 8.11389,4.280958 M 27.369204,83.509168 c 5.896328,-3.952522 11.664403,-4.376893 18.18262,-7.44915 M 43.26662,73.564834 c 0,0 4.851034,5.431344 5.481271,5.639747 1.58115,0.52317 3.448403,0.153106 5.08,0.105128 2.8194,-0.0829 5.645856,-0.03387 8.466314,-0.03387 13.172017,0 26.343682,-0.60325 39.511115,-0.700264 13.71459,-0.101247 27.58687,0.245181 41.275,-0.593372 8.07403,-0.494594 16.25248,-0.189442 24.34167,-0.436033 3.48897,-0.106186 7.70361,0.663575 10.58333,-1.445331 M 28.07476,79.981398 v 0.705555 m 149.93056,1.763889 2.65889,-1.869016 c 1.65418,-0.27305 3.46569,0.128058 5.10223,0.383116 5.96123,0.928511 12.37015,1.828095 17.28611,5.366456 M 46.419205,81.745287 C 41.505528,83.246519 20.072243,87.82145 25.958093,92.681398 M 169.14403,91.864094 c -4.59557,-0.72017 -13.46566,-0.582166 -13.46566,-0.582166 l 0.45473,-8.125531 c 0,0 5.78838,-0.403577 7.74947,-0.362302 l 4.62596,-0.05638 c 0.64029,1.966737 0.16843,7.104608 0.6355,9.126378 1.93816,-0.246592 8.84304,0.08194 8.84304,0.08194 0,0 0.0225,3.912829 0.0454,5.32394 0.0557,3.411007 0.32455,6.811077 0.32561,10.228087 0.004,16.00059 0.35278,31.97612 0.35278,47.97777 M 168.50853,82.737716 c 0,0 6.49501,-0.286874 9.49679,-0.286874 m -49.38889,10.230556 c -2.14347,0 -7.00122,1.014233 -8.81944,-0.352781 0,0 -0.05,-5.975603 0.096,-8.664572 1.67428,-0.954617 4.40443,-0.509058 6.25404,-0.506236 4.73569,0.0071 14.38503,-0.226845 14.38503,-0.226845 l 2.93675,0.284026 0.37885,4.789575 0.18132,3.782846 c 0,0 -3.09104,0.178199 -4.4771,0.185961 -3.4096,0.01834 -6.84812,0.142875 -10.22985,-0.350309 l -0.70556,9.524997 0.31856,15.16945 0.387,39.86389 c -3.11468,-0.30163 -5.71747,-0.12277 -8.46667,0 v -14.46389 c -3.5e-4,-2.04929 0.3585,-5.76457 0.35274,-7.76111 m 22.22504,-50.800003 h 12.7 M 54.180306,94.445283 c 0,0 17.991667,-1.05833 17.991652,0.352781 h 7.408334 l 0.705555,-2.469444 c 3.590926,0.523522 7.306734,0.426155 10.928351,0.336903 1.22308,-0.03034 4.593897,-0.336903 4.593897,-0.336903 0,0 -0.895562,-6.158241 -0.480861,-8.171392 1.560799,-0.319347 4.377267,-0.648758 6.125276,-0.646994 5.41232,0.0046 13.16923,-0.0261 18.44044,0.153811 m 60.77126,-3.082219 -1.60058,8.924572 M 71.785528,89.404063 c -0.07728,-1.408275 -0.434132,-3.47083 -0.08838,-5.248599 2.466623,-0.789164 5.676548,-0.296686 8.235951,-0.2794 4.547305,0.03105 10.975597,-0.887942 15.394139,0.281164 M 46.771987,83.861953 57.708098,84.23872 69.702543,84.21473 m 59.354437,-1.367227 0.0981,5.625509 M 27.016427,84.214731 c -2.042584,1.567744 -3.804709,2.823281 -3.527778,5.644444 m 58.561112,-5.644444 -1.763889,8.113889 m 26.458338,-8.113889 -0.0904,8.243808 2.92108,-0.142972 10.22209,0.01305 m -65.616674,2.116666 3.175,-9.524999 m -11.994434,76.199996 2.116656,-4.23333 7.761112,0.35278 c 0.982838,-6.73947 0.145344,-13.69166 0.01764,-20.46111 -0.179916,-9.52183 0.189442,-19.05423 -0.04269,-28.575 -0.05715,-2.35479 -0.299155,-4.69865 -0.315736,-7.05521 -0.01058,-1.510943 0.21202,-3.270599 -0.355247,-4.708521 -0.723547,-1.834092 -3.110795,-2.176286 -4.798836,-1.59385 -1.841853,0.635353 -2.180873,2.463094 -2.249664,4.193117 -0.144992,3.632204 -0.01658,7.293334 -0.01658,10.928354 v 46.91944 m -2.822221,-71.261108 2.822222,9.525 m 81.677532,-6.67783 0.16692,3.150052 m -57.536462,-2.219001 0.386455,3.98289 M 47.477538,95.150842 C 39.03098,95.163542 34.31293,93.18587 27.721982,99.384175 M 95.808095,92.32862 c 2.849386,0.883355 7.337775,0.33038 10.845725,0.129919 m -80.695727,0.222859 1.763889,6.702777 M 144.02898,91.787411 c 2.18405,0.486834 11.64939,-0.505483 11.64939,-0.505483 0,0 -2.00201,7.1628 -1.89794,8.808152 0.25999,4.11622 0.236,8.22361 0.236,12.34687 0,14.46953 0.35278,26.87823 0.35278,41.35129 l -8.11391,-0.0763 c 0,0 -6.10371,-0.85166 -9.52495,-0.35283 m -16.2278,-59.972167 c 1.18286,4.468636 0.75847,9.540527 0.69356,14.111107 -0.0377,2.6543 -0.34784,5.0539 -0.3295,7.76111 0.0127,1.87608 0.22543,3.47557 0.28575,5.29167 0.0586,1.75401 -0.0127,3.53272 -0.0208,5.29167 -0.0138,3.00355 0.0399,5.37704 0.0765,8.11389 M 96.160833,93.739731 96.866388,104.32306 v 15.52222 22.93056 13.75833 c 1.992489,-3.5e-4 8.052682,0.12549 8.052682,0.12549 0,0 0.0591,-5.15257 0.0609,-6.82862 0.004,-4.00685 -0.32456,-7.99182 -0.34643,-11.99374 -0.009,-1.63053 -0.16235,-6.46159 -0.16235,-6.46159 0.15642,-0.24159 3.62028,-0.19673 5.09983,-0.22848 3.76273,-0.0808 7.61012,-0.0131 11.2843,-0.0131 M 96.866428,94.445286 c 1.980142,-0.351013 5.143152,-1.043516 6.596242,0.84067 1.57833,2.046464 0.8121,6.260744 0.8121,8.684334 0,4.13067 0.15346,8.22254 0.30656,12.34722 0.1076,2.89101 -0.0106,5.65679 0.39899,8.46666 2.54036,-1.22907 5.52203,-3.3094 8.46667,-3.42617 2.57598,-0.10231 5.10681,1.50071 7.40833,2.36784 m 24.74507,-28.461896 0.64493,11.175076 -0.34277,10.23127 m 24.69431,-22.225004 c -0.0579,6.692904 0.38644,14.329454 0,21.166664 l -0.15628,39.20195 8.2703,0.66194 2.82222,4.23333 c -4.32153,1.22308 -10.88284,0.387 -16.22778,0.25012 -2.68887,-0.0688 -5.4049,0.44838 -14.81667,0.63183 -10.10461,0.17639 -19.04999,-0.17636 -19.04999,-0.17636 m 46.91931,-65.969474 c 4.67149,0.08643 9.78994,0.792692 14.46354,1.908175 2.03341,0.48507 4.36104,1.002595 5.57248,2.882548 2.0267,3.144661 1.02623,8.228191 1.22696,11.789831 0.508,9.01241 0.883,18.13736 0.95708,27.16389 0.0233,2.8321 0.19862,5.63845 0.31292,8.46596 0.0582,1.43969 -0.14817,3.23427 0.55209,4.54942 0.76835,1.44251 2.6723,1.40723 4.08658,1.37513 3.0219,-0.0691 7.33214,-0.72531 9.87002,-0.2794 M 72.171983,94.798064 v 62.088886 l 7.819317,0.36112 0.294572,-2.83056 10.315991,-0.0512 c 0.807861,-1.9692 0.267343,-6.33196 0.267343,-8.41547 0,-3.40854 0.0088,-6.82272 -0.0039,-10.23056 -0.0127,-3.31646 0.26339,-5.20592 0.3065,-9.25387 -0.209843,-3.93215 -9.034908,-5.4612 -11.238711,-0.27113 m 66.322205,27.51667 c -0.15381,-7.84966 0.0268,-15.79598 -0.0649,-23.63611 -0.0353,-3.01484 -0.28785,-13.40555 -0.28785,-13.40555 l -9.53913,-0.13582 c 0,0 -0.10195,-3.03566 -0.18203,-4.45594 -0.21202,-3.75426 -0.16757,-7.52263 -0.15522,-11.28254 0.005,-1.558218 -0.31186,-4.02872 0.99942,-5.185831 1.93322,-1.706386 6.21965,-0.346215 8.5748,-0.346215 m -66.020082,-0.113102 0.352787,31.044438 m 32.668005,-8.03804 c -1.45873,0.0688 -3.46921,0.4886 -4.76814,-0.38311 -1.46826,-0.98496 -1.21144,-3.46252 -1.22449,-4.98581 -0.0307,-3.64243 -0.0113,-7.29121 -0.005,-10.93435 0.003,-1.59667 -0.27411,-3.764842 0.64735,-5.17172 0.5722,-0.874183 1.59949,-1.180747 2.57775,-1.338086 2.41617,-0.388761 6.74736,-1.294445 8.27806,1.151716 0.90947,1.453091 1.11466,18.668 0.34722,20.44656 -0.52371,1.64745 -5.85275,1.2148 -5.85275,1.2148 z M 79.933095,95.50362 c 2.487436,0 7.586486,-0.949325 9.582503,0.812094 1.241777,1.096081 0.990247,3.352447 0.998361,4.833766 0.02152,3.99626 0.03104,7.99535 -0.0028,11.99162 -0.0127,1.48025 0.148842,6.28805 0.148842,6.28805 0,0 -7.936059,-0.60022 -10.374107,-0.28942 m -34.925022,41.98055 c 0,0 -0.139831,-4.28576 0,-6.35 l -2.469445,-2.46944 c -0.656167,0.45932 -1.271764,0.98707 -2.293056,1.26894 -1.788583,0.49354 -5.153025,0.17568 -7.231239,0.38523 -1.539169,0.15523 -4.276372,0.66323 -5.349875,-0.81068 -0.7239,-0.99307 -0.625828,-2.5079 -0.638175,-3.67136 -0.02893,-2.71074 0.252236,-5.40138 0.317853,-8.10824 0.237419,-9.74478 -0.434269,-19.55095 0.213431,-29.28056 0.195438,-2.93581 -0.72637,-7.72442 1.377597,-10.08344 1.27635,-1.43122 3.361267,-2.056344 5.13715,-2.596094 4.056239,-1.232958 8.476897,-1.837972 12.699647,-2.137127 m 136.31592,1.870534 c -0.43356,-0.752123 2.75861,-0.924072 3.12021,-0.927247 1.34479,-0.01235 3.06846,0.288573 3.84951,1.555398 0.79622,1.291516 0.63712,3.105146 0.64523,4.557536 0.0159,2.94358 -0.0159,5.87833 0.16404,8.81803 0.0882,1.43545 0.3489,3.25297 -0.46002,4.54166 -1.26012,2.00837 -4.57517,1.24919 -6.40433,1.10351 -1.47516,-0.87464 -1.38655,-20.218204 -0.91464,-19.648887 z M 27.721982,99.384175 v 2.116665 m 14.532487,19.9985 c -1.27247,0.60184 -5.031828,0.83444 -5.886962,-0.68039 -0.910166,-1.6129 -0.530225,-4.13314 -0.531283,-5.91255 l 0.0011,-8.46596 c 0.0049,-1.46403 -0.171802,-3.24803 0.506237,-4.59881 0.754238,-1.50354 2.790119,-1.910649 4.325761,-1.78859 1.727553,0.13723 2.346678,1.32362 2.499078,2.91571 0.317147,3.30412 -0.237599,12.64385 -0.237599,12.64385 l 0.167306,2.89648 c 0.155575,1.1296 -0.110623,2.39913 -0.843638,2.99026 z m 0.28418,-21.40961 v 1.05833 m 103.363901,15.52223 v 0 m 46.25375,36.02919 c -1.48245,-8.97792 -0.44049,-9.83098 -0.74542,-15.20693 l -0.0321,-0.89574 -5.38548,-0.0309 -1.41867,0.11224 -0.28224,-7.69089 c 0.17117,-1.50212 1.27655,-3.81833 3.77351,-3.64123 2.16742,0.0326 2.87494,1.90691 2.98047,3.0936 0.0831,0.93469 0.25166,7.34055 0.33241,8.15713 M 104.62757,125.1369 v 2.11667 m -68.438891,5.64444 c -0.67557,-2.57069 1.386509,-6.14095 3.179939,-5.98099 1.909233,0.21202 2.990321,0.20378 3.988656,1.32484 0,0 0.275657,6.17796 0.236916,10.30024 0,0 -2.399759,1.02471 -7.405511,0.25408 v -5.89817 m 43.744446,-6.70278 c 0.201083,2.73791 0.0035,6.15562 0.1651,9.17223 0.338314,6.30061 0.312208,12.73104 0.187677,19.05 m 24.341668,-27.16389 v 3.88055 m 32.10278,0 c 0,0 6.08013,-0.33478 9.17223,-0.35277 m 38.67205,5.8968 0.48628,7.15597 m -48.33056,9.525 v -10.58333 l -0.31999,-17.60944 c 5.48574,-3.70077 5.61589,-1.54322 9.49222,-0.0294 m -65.616678,6.70278 h 10.230556 m -54.327779,6.9565 c 0,5.83918 -0.0025,8.5255 0,14.21017 m 148.872231,-9.17223 c 0.0325,1.63513 0.0305,4.71798 0.0305,4.71798 l -1.28759,3.57434 M 43.59416,138.54215 42.891467,151.94806 m 173.213863,0 c 0.14957,2.19463 0.0406,3.69217 0,5.64445 m -23.63612,-4.93889 h 8.11389 m -17.13211,0.17843 9.01822,-0.17843 m -182.386117,2.46944 c 2.581099,-1.21391 4.449022,-0.8008 7.408333,-0.73025 3.095625,0.0737 6.512984,0.0247 9.525001,0.0247 m 8.466667,-0.35278 h 2.469444 m -27.16389,5.64444 0.352778,-3.52777 m 145.697234,3.88055 -1.75753,-3.36846 -0.71192,-2.90525 m -82.197227,3.09871 -1.058333,3.17501 m 144.99168,-2.46945 c 1.02834,4.08552 0.76799,8.94256 0.97966,13.40485 0.0744,1.56633 0.43215,4.30142 -1.1236,5.31071 -2.49131,1.61573 -4.11515,-1.55822 -5.20453,-3.18981 -1.77306,-2.65642 -4.6803,-4.96711 -8.05674,-4.50356 -2.67652,0.36759 -4.9403,2.33115 -6.3948,4.51238 -1.149,1.72332 -1.67993,3.80612 -3.93912,4.30918 -2.01612,0.44873 -4.19523,0.22648 -6.24699,0.21731 -3.17217,-0.0138 -6.35019,0.0124 -9.525,0.0473 l -32.10278,0.35275 m -37.39444,-17.28608 15.16944,0.0889 9.17223,-0.44168 m -60.32501,-0.3528 9.387417,-0.12098 c -2.276957,-0.14694 11.005866,0.76645 16.365361,0.2667 2.793648,-0.30198 7.424572,0.55986 10.230562,0.55986 m -96.661119,-0.70558 0.352777,2.82222 m 45.861113,-1.41111 c 3.16477,0.46003 11.532658,-0.005 14.463889,-1.41111 m -25.752778,1.76389 c 3.151011,0 7.375525,0.21802 11.288889,-0.35278 m -34.572223,6.70277 c 4.744308,-0.91179 5.459723,0.62871 9.998428,3.94653 l 3.05435,6.28404 c -5.759098,0.62759 -11.811353,0.42086 -17.63889,0.3175 -1.775883,-0.0314 -4.920191,0.50235 -6.24339,-0.97473 -0.963119,-1.07527 -0.795761,-2.94887 -0.807544,-4.28413 -0.03023,-3.43606 0.0665,-6.83331 -0.0046,-10.22809 m 0.352776,1.94027 h 14.816667 c 6.19619,0 10.548804,-0.85237 16.254985,0.0194 l 0.325571,9.32923 M 185.0609,176.9953 c -0.3108,-2.59115 -0.50327,-7.67459 -0.50327,-7.67459 l -0.0487,-4.62732 c 0,0 5.57588,-0.18712 7.60753,-0.30178 4.23051,-0.23848 8.46948,0.001 12.7,-0.0787 3.88126,-0.0734 7.74911,-0.37006 11.64166,-0.37041 M 13.610891,178.4064 c 1.000689,-4.78085 3.799416,-8.3111 8.466667,-10.23056 m 20.108333,6.35 -0.258945,3.88189 c 0,0 -4.835342,0.27383 -6.443832,0.35144 m 159.808346,-1.05833 c 4.96499,-0.7239 11.95564,0.0205 16.93333,-0.70556 m -170.297844,1.41245 102.564504,-0.35411 m -86.433048,-4.29423 117.942338,-0.0271 m -117.761225,-8.66703 117.942335,0.0271"
       sodipodi:nodetypes="ccccccccccccccccccccsccccccccccccccccccccccccccccccccccccccccccccccccccccccccccccccccccccccccccccccccccccccccccccccccccccccccccccccccccccccccccccccccccccccsscccccccccccccsscsccccccccccccccccccccccccccccccccccccccccccccccccccccccccccccccccccccccccccccsccsccccccccccccccccsccccsscscccccccccsccccsccccccccscccccccccccsccccccccsccccscccccccccccccccccccccccccccscccscccccsccccccccccccccccccccccccccccscccccccccccccccccccccccccccccccccccccccccccccccccccccccccsccccccccccccccccccccccsccccccccccccccccccccc" />
  </g>
</svg>
